<?xml version="1.0" encoding="utf-8"?>
<!-- Generator: Adobe Illustrator 16.0.0, SVG Export Plug-In . SVG Version: 6.00 Build 0)  -->
<!DOCTYPE svg PUBLIC "-//W3C//DTD SVG 1.1//EN" "http://www.w3.org/Graphics/SVG/1.1/DTD/svg11.dtd">
<svg version="1.1" id="Layer_1" xmlns="http://www.w3.org/2000/svg" xmlns:xlink="http://www.w3.org/1999/xlink" x="0px" y="0px"
	 width="55px" height="28.417px" viewBox="0 0 55 28.417" enable-background="new 0 0 55 28.417" xml:space="preserve">
<path fill="none" stroke="#49505A" stroke-miterlimit="10" d="M47.504,25.545H7.5L7.498,3.546c0-2.192,0.168-2.192,1.816-2.192
	H46.43c0.784,0,1.078,0.355,1.067,0.818L47.504,25.545z"/>
<rect x="8.583" y="2.341" fill="none" stroke="#49505A" stroke-width="1.2" stroke-miterlimit="10" width="37.917" height="22.5"/>
<path fill="#49505A" stroke="#49505A" stroke-width="0.2" stroke-miterlimit="10" d="M53.211,26.375c0,0.138-0.206,0.25-0.455,0.25
	H2.246c-0.252,0-0.457-0.112-0.457-0.25l0,0c0-0.139,0.204-0.25,0.457-0.25h50.51C53.005,26.125,53.211,26.237,53.211,26.375
	L53.211,26.375z"/>
<g>
	<path fill="#49505A" d="M53.211,27.133c0,0-0.798,0.075-2.195,0.166c-1.396,0.068-3.393,0.237-5.787,0.313
		c-2.395,0.069-5.188,0.23-8.182,0.259c-2.993,0.036-6.186,0.074-9.379,0.112c-3.193-0.039-6.386-0.077-9.379-0.113
		c-2.994-0.032-5.787-0.189-8.182-0.26c-2.395-0.077-4.391-0.243-5.787-0.312c-1.397-0.09-2.195-0.165-2.195-0.165v-0.1
		c0,0,12.771-0.025,25.543-0.05c12.771,0.024,25.543,0.05,25.543,0.05V27.133z"/>
</g>
<circle fill="#FFFFFF" cx="27.668" cy="1.958" r="0.604"/>
<line fill="none" stroke="#49505A" stroke-width="1.2" stroke-miterlimit="10" x1="8.083" y1="1.958" x2="8.208" y2="24.583"/>
</svg>
