<?xml version="1.0" encoding="utf-8"?>
<svg version="1.1" id="Layer_1" xmlns="http://www.w3.org/2000/svg" xmlns:xlink="http://www.w3.org/1999/xlink" x="0px" y="0px" viewBox="0 0 399.3 136.3" style="enable-background:new 0 0 399.3 136.3;" xml:space="preserve">
<style type="text/css">.st0{fill:#2E67B2;}</style>
<g>
	<path d="M40.3,27c9.4,0,17,3.2,22.6,9.5c5.7,6.4,8.5,14.5,8.5,24.5v48.2H58.8V64.1c0-8.2-1.9-14.4-5.6-18.9
		c-3.7-4.4-9.1-6.6-16.1-6.6c-6.9,0-12.7,2.6-17.3,7.7c-4.7,5.1-7,11.5-7,19.1v43.9H0V28.8h9l2.5,12.6c3.1-4.5,7.1-8,12.1-10.6
		C28.6,28.3,34.2,27,40.3,27z"/>
	<path d="M211.4,97.6h8.7v11.7h-10.4c-8.7,0-15.5-2.5-20.5-7.5c-5-5-7.5-11.9-7.5-20.6V40.2h-14.2v-2.3l24.9-26.2h2v17h25.3v11.4
		h-25.3v40.6c0,5.4,1.5,9.6,4.4,12.5C201.7,96.1,205.9,97.6,211.4,97.6z"/>
	<path d="M303.8,69.4c0,1.5-0.1,3-0.2,4.5h-68.7c1,7.5,4,13.5,9.2,18s11.5,6.8,19.1,6.8c5.5,0,10.5-1.2,14.8-3.7
		c4.3-2.4,7.7-5.9,10.3-10.2h13.4c-3.4,8.3-8.5,14.8-15.3,19.4c-6.7,4.6-14.5,6.9-23.2,6.9c-7.7,0-14.7-1.8-20.9-5.5
		c-6.3-3.6-11.2-8.7-14.8-15.1c-3.6-6.4-5.4-13.6-5.4-21.5c0-7.9,1.8-15,5.4-21.4s8.5-11.5,14.8-15.1c6.3-3.6,13.3-5.5,20.9-5.5
		c8,0,15,1.9,21.3,5.7c6.2,3.8,11,8.9,14.3,15.3S303.8,61.6,303.8,69.4z M263.3,39c-7.3,0-13.4,2.1-18.5,6.3
		c-5.1,4.2-8.2,9.8-9.5,16.9h55.9c-1.4-7.1-4.5-12.8-9.6-16.9S270.4,39,263.3,39z"/>
	<path d="M357.8,27c8,0,15.1,1.8,21.4,5.5c6.3,3.6,11.3,8.7,14.8,15c3.5,6.4,5.3,13.6,5.3,21.5c0,12-3.9,22.1-11.7,30
		s-17.7,12-29.8,12c-6.2,0-12-1.2-17.3-3.5c-5.3-2.3-9.9-5.5-13.7-9.7l-1.7,11.4h-9.8V0H328v39c3.8-3.8,8.2-6.7,13.3-8.8
		C346.4,28.1,351.9,27,357.8,27z M335.6,90.2c5.7,5.7,12.7,8.6,21.2,8.6s15.5-2.8,21.1-8.5c5.6-5.7,8.4-12.8,8.4-21.3
		s-2.8-15.6-8.4-21.3c-5.6-5.7-12.7-8.5-21.1-8.5s-15.6,2.8-21.2,8.5c-5.7,5.7-8.5,12.8-8.5,21.3C327.2,77.5,330,84.5,335.6,90.2z"
		/>
	<path d="M161.7,47.5c-3.7-6.4-8.8-11.5-15.4-15.1c-6.5-3.6-13.8-5.4-21.8-5.4s-15.3,1.8-21.8,5.4c-6.5,3.6-11.6,8.6-15.3,15
		c-3.7,6.4-5.5,13.6-5.5,21.6c0,12,4.1,22.1,12.2,30c6.6,6.5,14.7,10.2,24,11.4v25.8h13v-25.7c5.5-0.7,10.6-2.4,15.3-5
		c6.5-3.6,11.6-8.6,15.4-15.1c3.7-6.4,5.6-13.6,5.6-21.5S165.4,53.9,161.7,47.5z M145.9,90.4c-5.6,5.6-12.7,8.4-21.4,8.4
		c-8.6,0-15.7-2.8-21.3-8.4c-5.6-5.6-8.4-12.7-8.4-21.4c0-8.6,2.8-15.8,8.4-21.4c5.6-5.6,12.7-8.4,21.3-8.4c8.6,0,15.8,2.8,21.4,8.4
		c5.6,5.6,8.4,12.7,8.4,21.4C154.3,77.7,151.5,84.8,145.9,90.4z"/>
	<g>
		<path id="XMLID_1_" class="st0" d="M124.6,51.5c-3.3,0-6.3,1-8.9,2.5c1.5,1.5,2.4,3.6,2.4,5.9c0,4.6-3.8,8.4-8.4,8.4
			c-0.9,0-1.7-0.3-2.6-0.5c0,0.4-0.1,0.8-0.1,1.3c0,9.7,7.9,17.5,17.5,17.5s17.5-7.9,17.5-17.5C142.1,59.3,134.3,51.5,124.6,51.5z"
			/>
	</g>
</g>
</svg>
