<?xml version="1.0" encoding="utf-8"?>
<!DOCTYPE svg PUBLIC "-//W3C//DTD SVG 1.1//EN" "http://www.w3.org/Graphics/SVG/1.1/DTD/svg11.dtd">
<svg version="1.1" id="Layer_1" xmlns="http://www.w3.org/2000/svg" xmlns:xlink="http://www.w3.org/1999/xlink" x="0px" y="0px"
	 width="760.556px" height="283.796px" viewBox="0 0 760.556 283.796" enable-background="new 0 0 760.556 283.796"
	 xml:space="preserve">
<g>
	<defs>
		<rect id="SVGID_1_" x="-34.556" width="830.732" height="298.216"/>
	</defs>
	<clipPath id="SVGID_2_">
		<use xlink:href="#SVGID_1_"  overflow="visible"/>
	</clipPath>
	<path clip-path="url(#SVGID_2_)" fill="#FFFFFF" d="M254.783,70.839c22.452,1.02,43.548,6.233,61.026,21.23
		c16.228,13.924,21.914,31.964,17.629,52.652c-3.918,18.918-8.613,37.694-13.552,56.378c-7.288,27.571-28.92,43.028-59.126,42.162
		c-19.147-0.548-37.316-5.286-53.432-16.093c-20.897-14.012-29.308-35.362-23.645-59.896c4.152-17.985,8.432-35.946,13.009-53.826
		c6.715-26.24,27.919-42.481,55.091-42.606C252.783,70.835,253.783,70.839,254.783,70.839 M256.431,215.038
		c20.574,0.031,31.258-7.677,35.198-23.562c4.144-16.709,8.168-33.448,12.169-50.193c2.354-9.851,0.733-18.873-6.136-26.607
		c-4.411-4.967-10.099-8.045-16.053-10.781c-2.852-1.311-3.845-0.639-4.469,2.353c-0.421,2.021,0.694,2.693,1.751,3.676
		c5.472,5.083,7.741,11.333,6.137,18.628c-1.955,8.892-4.014,17.779-6.513,26.53c-2.913,10.201-13.477,15.814-23.685,13.065
		c-9.962-2.682-16.038-13.117-13.598-23.48c1.802-7.652,3.847-15.248,5.524-22.927c1.86-8.519,6.736-14.141,15.223-16.173
		c3.056-0.731,2.828-2.956,2.901-4.837c0.095-2.435-2.215-1.14-3.422-1.508c-1.05-0.319-2.225-0.284-3.346-0.303
		c-15.478-0.264-28.99,6.03-33.194,23.555c-4.046,16.865-8.274,33.685-12.284,50.558c-3.042,12.808,1.056,23.201,11.485,30.972
		C234.505,211.742,246.56,214.566,256.431,215.038 M272.321,125.678c0.226-4.125-1.965-6.937-5.179-7.49
		c-3.175-0.547-6.142,1.194-7.06,4.69c-2.211,8.419-4.255,16.883-6.216,25.363c-0.753,3.256,1.293,6.327,4.425,7.256
		c3.152,0.934,6.651-0.513,7.542-3.795C268.244,142.827,270.306,133.858,272.321,125.678"/>
	<path clip-path="url(#SVGID_2_)" fill="#FFFFFF" d="M590.446,131.442c0-27.641-0.003-55.281,0.003-82.922
		c0.001-8.504,3.029-11.555,11.447-11.573c2.502-0.005,5.003-0.017,7.504,0.002c7.362,0.057,10.771,3.336,10.879,10.756
		c0.111,7.753,0.024,15.508,0.026,23.262c0,7.793-0.004,7.785,7.473,5.744c17.17-4.687,34.506-6.899,52.247-3.7
		c25.439,4.589,41.982,21.274,44.647,47.076c2.378,23.018,2.32,46.265,0.152,69.276c-2.707,28.735-18.816,46.024-47.344,51.262
		c-24.253,4.452-48.273,2.447-71.41-6.796c-1.274-0.509-2.487-1.166-3.744-1.719c-8.387-3.686-12.053-9.989-11.968-19.249
		C590.605,185.725,590.447,158.583,590.446,131.442 M620.306,157.525c0,15.625,0.082,31.251-0.072,46.874
		c-0.031,3,0.877,4.44,3.729,5.417c14.087,4.822,28.52,6.355,43.193,4.188c17.47-2.582,27.02-12.512,28.562-30.017
		c1.559-17.693,1.28-35.504,0.313-53.191c-1.106-20.221-10.244-28.879-30.554-30.928c-14.447-1.458-28.265,1.79-41.873,6.312
		c-2.61,0.867-3.379,2.175-3.359,4.845C620.367,126.524,620.306,142.025,620.306,157.525"/>
	<path clip-path="url(#SVGID_2_)" fill="#FFFFFF" d="M517.557,167.372c-15.758,0-31.515,0.08-47.271-0.07
		c-3.002-0.028-3.896,0.858-3.705,3.782c0.373,5.724-0.311,11.476,0.677,17.207c2.355,13.683,10.374,22.176,23.621,25.598
		c10.705,2.765,21.523,2.595,32.247-0.245c10.645-2.819,18.78-9.005,24.64-18.314c5.063-8.041,9.658-8.837,18.237-4.827
		c13.057,6.103,12.049,12.406,5.563,22.05c-7.563,11.244-17.496,19.562-30.233,24.158c-21.106,7.615-42.589,8.274-63.998,1.596
		c-23.469-7.319-38.384-26.491-39.79-50.997c-1.119-19.468-1.191-38.993,0.029-58.456c1.819-29.037,21.692-50.762,50.479-55.636
		c18.284-3.097,36.423-2.756,53.791,4.531c21.906,9.191,33.025,26.463,35.952,49.549c1.153,9.093,0.665,18.233,0.607,27.35
		c-0.053,8.113-5.198,12.681-13.949,12.71C548.821,167.409,533.188,167.372,517.557,167.372 M507.528,142.244
		c10.116,0,20.233,0.073,30.351-0.04c3.565-0.04,8.38,1.647,10.377-0.794c2.063-2.525,0.532-7.205,0.262-10.926
		c-1.121-15.455-10.588-26.604-25.565-30.381c-7.612-1.919-15.339-2.112-23.053-1.349c-17.031,1.685-28.096,10.765-31.985,25.865
		c-1.195,4.637-1.223,9.368-1.354,14.117c-0.074,2.749,0.626,3.616,3.499,3.578C482.548,142.15,495.039,142.244,507.528,142.244"/>
	<path clip-path="url(#SVGID_2_)" fill="#FFFFFF" d="M35.195,164.283c0-20.762,0.059-41.523-0.028-62.284
		c-0.036-8.731,3.228-15.273,11.514-18.799c26.327-11.2,53.676-14.926,81.745-9.278c23.647,4.757,37.662,20.834,41.069,44.783
		c0.865,6.075,1.245,12.178,1.25,18.302c0.021,29.516,0.014,59.032-0.004,88.548c-0.001,1.616-0.071,3.254-0.331,4.846
		c-0.818,4.998-3.903,7.749-8.905,7.896c-3.499,0.104-7.004,0.063-10.506,0.019c-6.522-0.082-9.846-3.42-9.863-10.042
		c-0.041-15.384,0.001-30.767-0.017-46.15c-0.019-16.883,0.212-33.774-0.198-50.648c-0.294-12.12-4.293-22.601-16.231-28.235
		c-5.64-2.662-11.73-3.553-17.855-3.702c-12.695-0.308-25.147,1.372-37.331,5.1c-3.277,1.003-4.479,2.606-4.468,6.125
		c0.122,38.521,0.078,77.042,0.076,115.562c-0.001,8.886-3.084,11.995-11.872,11.999c-2.627,0.001-5.253,0.026-7.879-0.005
		c-6.652-0.08-10.115-3.512-10.149-10.253c-0.059-11.506-0.017-23.012-0.017-34.518C35.195,183.793,35.195,174.038,35.195,164.283"
		/>
	<path clip-path="url(#SVGID_2_)" fill="#FFFFFF" d="M360.792,147.846c0-13.507-0.062-27.014,0.054-40.52
		c0.023-2.611-0.725-3.464-3.373-3.397c-6.624,0.169-13.257,0.138-19.883,0.026c-7.131-0.121-10.413-3.59-10.449-10.773
		c-0.011-2.251-0.014-4.503,0.001-6.753c0.046-6.899,3.4-10.343,10.366-10.436c6.502-0.087,13.01-0.145,19.508,0.038
		c2.842,0.079,3.954-0.585,3.852-3.695c-0.238-7.246-0.113-14.505-0.064-21.758c0.044-6.65,3.501-10.2,10.119-10.384
		c3.374-0.095,6.761-0.164,10.127,0.025c6.106,0.343,9.067,3.492,9.12,9.607c0.064,7.754,0.102,15.51-0.035,23.261
		c-0.042,2.339,0.691,2.957,2.978,2.935c11.38-0.109,22.762-0.071,34.142-0.042c8.192,0.021,11.521,3.393,11.603,11.668
		c0.021,2.126,0.096,4.259-0.041,6.377c-0.421,6.494-3.761,9.84-10.293,9.914c-11.503,0.13-23.012,0.162-34.514-0.031
		c-3.159-0.054-3.91,0.869-3.894,3.944c0.129,23.386,0.032,46.772,0.097,70.159c0.017,6.249,0.68,12.438,2.065,18.573
		c1.885,8.338,6.952,13.265,15.14,15.28c6.473,1.592,13.071,2.02,19.687,2.172c7.54,0.174,10.975,3.509,11.004,11.039
		c0.012,2.876,0.125,5.759-0.032,8.627c-0.281,5.148-3.364,8.606-8.45,8.81c-12.923,0.52-25.743-0.344-38.104-4.551
		c-16.66-5.67-24.838-18.301-28.387-34.776c-2.338-10.85-2.424-21.822-2.352-32.828
		C360.833,162.853,360.792,155.349,360.792,147.846"/>
</g>
</svg>
