<?xml version="1.0" encoding="utf-8"?>
<!-- Generator: Adobe Illustrator 23.1.1, SVG Export Plug-In . SVG Version: 6.00 Build 0)  -->
<svg version="1.1" id="Layer_1" xmlns="http://www.w3.org/2000/svg" xmlns:xlink="http://www.w3.org/1999/xlink" x="0px" y="0px"
	 viewBox="0 0 128.52 43.87" style="enable-background:new 0 0 128.52 43.87;" xml:space="preserve">
<style type="text/css">
	.st0{fill:#FFFFFF;}
</style>
<g>
	<path class="st0" d="M12.98,8.69c3.03,0,5.46,1.02,7.28,3.07c1.82,2.05,2.73,4.68,2.73,7.9v15.51h-4.08V20.62
		c0-2.62-0.6-4.65-1.8-6.07s-2.93-2.13-5.18-2.13c-2.22,0-4.08,0.83-5.58,2.48c-1.5,1.66-2.25,3.7-2.25,6.14v14.13H0V9.26h2.91
		l0.8,4.05c0.98-1.45,2.28-2.59,3.89-3.4C9.2,9.1,11,8.69,12.98,8.69z"/>
	<path class="st0" d="M68.03,31.4h2.81v3.77h-3.35c-2.8,0-4.99-0.81-6.59-2.43c-1.6-1.62-2.4-3.83-2.4-6.64V12.94h-4.57v-0.73
		l8.01-8.44h0.63v5.48h8.13v3.68h-8.13v13.05c0,1.75,0.47,3.09,1.41,4.02C64.92,30.94,66.27,31.4,68.03,31.4z"/>
	<path class="st0" d="M97.78,22.33c0,0.47-0.02,0.95-0.07,1.45h-22.1c0.31,2.41,1.3,4.33,2.96,5.79c1.66,1.45,3.71,2.18,6.15,2.18
		c1.78,0,3.37-0.39,4.76-1.18c1.39-0.79,2.49-1.89,3.3-3.29h4.31c-1.11,2.67-2.75,4.75-4.91,6.23c-2.16,1.48-4.65,2.23-7.46,2.23
		c-2.47,0-4.72-0.59-6.74-1.76c-2.02-1.17-3.61-2.79-4.76-4.85c-1.15-2.06-1.72-4.37-1.72-6.91c0-2.53,0.58-4.83,1.72-6.9
		c1.15-2.07,2.73-3.69,4.76-4.86c2.02-1.17,4.27-1.76,6.74-1.76c2.56,0,4.84,0.61,6.84,1.83c2,1.22,3.54,2.86,4.61,4.93
		C97.25,17.53,97.78,19.82,97.78,22.33z M84.73,12.56c-2.34,0-4.33,0.68-5.95,2.03c-1.63,1.35-2.65,3.16-3.07,5.42h18
		c-0.44-2.3-1.46-4.11-3.08-5.45C89.01,13.23,87.04,12.56,84.73,12.56z"/>
	<path class="st0" d="M115.16,8.69c2.56,0,4.86,0.59,6.9,1.76c2.04,1.17,3.62,2.78,4.76,4.84c1.13,2.06,1.7,4.36,1.7,6.93
		c0,3.87-1.26,7.1-3.77,9.67c-2.52,2.57-5.71,3.85-9.58,3.85c-2,0-3.85-0.37-5.55-1.11c-1.7-0.74-3.17-1.78-4.41-3.13l-0.56,3.68
		h-3.16V0h4.1v12.54c1.22-1.22,2.65-2.16,4.29-2.84C111.5,9.03,113.27,8.69,115.16,8.69z M108.03,29.05
		c1.82,1.84,4.1,2.75,6.83,2.75c2.73,0,5-0.91,6.81-2.73c1.81-1.82,2.71-4.1,2.71-6.85s-0.9-5.03-2.71-6.85
		c-1.8-1.82-4.07-2.73-6.81-2.73c-2.73,0-5.01,0.91-6.83,2.74c-1.82,1.83-2.73,4.11-2.73,6.84
		C105.29,24.93,106.2,27.21,108.03,29.05z"/>
	<path class="st0" d="M52.05,15.29c-1.2-2.07-2.84-3.69-4.94-4.85c-2.1-1.16-4.44-1.75-7.02-1.75s-4.92,0.58-7.02,1.75
		s-3.75,2.78-4.93,4.84c-1.19,2.06-1.78,4.37-1.78,6.94c0,3.87,1.31,7.1,3.92,9.67c2.14,2.1,4.73,3.29,7.73,3.68v8.31h4.17v-8.28
		c1.76-0.23,3.41-0.76,4.92-1.6c2.1-1.16,3.75-2.78,4.94-4.85c1.19-2.07,1.79-4.38,1.79-6.93S53.24,17.36,52.05,15.29z M46.96,29.09
		c-1.8,1.8-4.1,2.71-6.88,2.71c-2.78,0-5.07-0.9-6.86-2.71c-1.8-1.8-2.7-4.1-2.7-6.88c0-2.78,0.9-5.07,2.7-6.88
		c1.8-1.8,4.09-2.71,6.86-2.71c2.78,0,5.07,0.9,6.88,2.71c1.81,1.8,2.71,4.1,2.71,6.88C49.67,25,48.77,27.29,46.96,29.09z"/>
	<g>
		<path class="st0" d="M40.1,16.57c-1.05,0-2.02,0.31-2.86,0.81c0.48,0.49,0.78,1.15,0.78,1.89c0,1.49-1.21,2.7-2.7,2.7
			c-0.29,0-0.56-0.08-0.82-0.17c-0.01,0.14-0.04,0.27-0.04,0.42c0,3.12,2.53,5.65,5.65,5.65c3.12,0,5.65-2.53,5.65-5.65
			C45.74,19.1,43.21,16.57,40.1,16.57z"/>
	</g>
</g>
</svg>
