<?xml version="1.0" encoding="iso-8859-1"?>
<!-- Generator: Adobe Illustrator 19.0.0, SVG Export Plug-In . SVG Version: 6.00 Build 0)  -->
<svg version="1.1" id="Capa_1" xmlns="http://www.w3.org/2000/svg" xmlns:xlink="http://www.w3.org/1999/xlink" x="0px" y="0px"
	 viewBox="0 0 512 512" style="enable-background:new 0 0 512 512;" xml:space="preserve">
<g>
	<circle style="fill:#A4C2F7;" cx="73.143" cy="64" r="54.857"/>
	<ellipse style="fill:#E3E7F2;" cx="59.429" cy="64" rx="41.143" ry="54.857"/>
	<path style="fill:#FFFFFF;" d="M73.143,118.857c2.624-0.02,5.243-0.228,7.837-0.623C61.049,114.422,45.714,91.63,45.714,64
		S61.049,13.578,80.98,9.766C60.657,6.82,40.392,15.477,28.471,32.197s-13.5,38.7-4.091,56.953S52.608,118.868,73.143,118.857
		L73.143,118.857z"/>
	<circle style="fill:#A4C2F7;" cx="256" cy="256" r="54.857"/>
	<ellipse style="fill:#E3E7F2;" cx="242.286" cy="256" rx="41.143" ry="54.857"/>
	<circle style="fill:#A4C2F7;" cx="438.857" cy="448" r="54.857"/>
	<ellipse style="fill:#E3E7F2;" cx="425.143" cy="448" rx="41.143" ry="54.857"/>
	<g>
		<path style="fill:#428DFF;" d="M73.143,128c-35.346,0-64-28.654-64-64s28.654-64,64-64s64,28.654,64,64
			C137.102,99.329,108.472,127.959,73.143,128L73.143,128z M73.143,18.286c-25.247,0-45.714,20.467-45.714,45.714
			s20.467,45.714,45.714,45.714S118.857,89.247,118.857,64C118.828,38.765,98.378,18.315,73.143,18.286z"/>
		<path style="fill:#428DFF;" d="M257.893,320c-26.651,0.002-50.68-16.051-60.88-40.674s-4.564-52.964,14.281-71.811
			s47.187-24.484,71.81-14.286c24.623,10.199,40.678,34.226,40.678,60.877C323.739,290.48,294.265,319.956,257.893,320L257.893,320z
			 M257.893,206.5c-19.256-0.002-36.616,11.596-43.986,29.386c-7.37,17.789-3.298,38.267,10.317,51.883
			c13.615,13.616,34.092,17.69,51.882,10.322c17.79-7.368,29.389-24.728,29.389-43.983
			C305.465,227.829,284.171,206.533,257.893,206.5z"/>
		<path style="fill:#428DFF;" d="M493.714,73.143H128c-5.049,0-9.143-4.093-9.143-9.143s4.093-9.143,9.143-9.143h365.714
			c5.049,0,9.143,4.093,9.143,9.143S498.764,73.143,493.714,73.143z"/>
		<path style="fill:#428DFF;" d="M438.857,512c-25.886,0-49.222-15.593-59.128-39.508c-9.906-23.915-4.43-51.443,13.873-69.747
			s45.831-23.779,69.747-13.873c23.915,9.906,39.508,33.243,39.508,59.128C502.816,483.329,474.186,511.959,438.857,512z
			 M438.857,402.286c-25.247,0-45.714,20.467-45.714,45.714s20.467,45.714,45.714,45.714c25.247,0,45.714-20.467,45.714-45.714
			C484.542,422.765,464.092,402.315,438.857,402.286L438.857,402.286z"/>
		<path style="fill:#428DFF;" d="M384,457.143H18.286c-5.049,0-9.143-4.093-9.143-9.143c0-5.049,4.093-9.143,9.143-9.143H384
			c5.049,0,9.143,4.093,9.143,9.143C393.143,453.049,389.049,457.143,384,457.143z"/>
		<path style="fill:#428DFF;" d="M493.714,265.143H320c-5.049,0-9.143-4.093-9.143-9.143c0-5.049,4.093-9.143,9.143-9.143h173.714
			c5.049,0,9.143,4.093,9.143,9.143C502.857,261.049,498.764,265.143,493.714,265.143z"/>
		<path style="fill:#428DFF;" d="M201.143,265.143H18.286c-5.049,0-9.143-4.093-9.143-9.143c0-5.049,4.093-9.143,9.143-9.143
			h182.857c5.049,0,9.143,4.093,9.143,9.143C210.286,261.049,206.192,265.143,201.143,265.143z"/>
	</g>
</g>
<g>
</g>
<g>
</g>
<g>
</g>
<g>
</g>
<g>
</g>
<g>
</g>
<g>
</g>
<g>
</g>
<g>
</g>
<g>
</g>
<g>
</g>
<g>
</g>
<g>
</g>
<g>
</g>
<g>
</g>
</svg>
