<?xml version="1.0" encoding="utf-8"?>
<!-- Generator: Adobe Illustrator 16.0.0, SVG Export Plug-In . SVG Version: 6.00 Build 0)  -->
<!DOCTYPE svg PUBLIC "-//W3C//DTD SVG 1.1//EN" "http://www.w3.org/Graphics/SVG/1.1/DTD/svg11.dtd">
<svg version="1.1" id="Layer_1" xmlns="http://www.w3.org/2000/svg" xmlns:xlink="http://www.w3.org/1999/xlink" x="0px" y="0px"
	 width="55px" height="55px" viewBox="0 0 55 55" enable-background="new 0 0 55 55" xml:space="preserve">
<path fill="#FFFFFF" d="M22.75,45.583L22,50.167L21.5,53H13H8l-4.333-2.291L1,47v-4l2.25-2.75l3.182-2.189l3.006-1.811l8.241-3.918
	l0.052-4.536c-0.309-0.2-0.646-0.435-0.947-0.712c-2.734-2.518-4.933-7.51-4.933-11.917c0-3.534,0.548-7.148,2.407-9.583
	c2.137-2.798,5.803-4.167,9.246-4.167c3.424,0,7.197,1.565,9.332,4.333c1.883,2.442,2.332,5.857,2.332,9.417
	c0,4.218-1.327,8.458-3.865,10.979c-0.598,0.595-1.272,0.867-1.999,1.256L29.217,32.5L32,33.583v0.708l-0.75,0.792l-3.354,2.584
	l-3.448,3.749L22.75,45.583z"/>
<polygon fill="#FFFFFF" points="40.167,31.5 47.667,39.083 36,50.917 26.25,53.083 27.5,43.917 "/>
<polygon fill="#FFFFFF" points="41.438,30.469 48.75,38.031 50.625,36.063 43.25,28.781 "/>
<polygon fill="#FFFFFF" points="51.75,34.875 53.25,31.833 47.667,26.178 44.563,27.656 "/>
</svg>
