<?xml version="1.0" encoding="utf-8"?>
<svg version="1.1" id="Layer_1" xmlns="http://www.w3.org/2000/svg" xmlns:xlink="http://www.w3.org/1999/xlink" x="0px" y="0px"
	 width="55px" height="55px" viewBox="0 0 55 55" enable-background="new 0 0 55 55" xml:space="preserve">
<g id="Layer_2">
	<path fill="#CCCCCC" stroke="#767676" stroke-miterlimit="10" d="M44.009,49.925c-8.771-0.019-22.514-0.152-33.552,0.025
		c-0.415,0.009-0.984-0.895-0.843-1.285c0.932-2.571,3.015-5.896,4.317-8.202c0.154-0.276,0.776-0.629,1.092-0.631
		c3.195-0.016,7.642-0.038,12.058-0.045c4.53-0.007,9.027,0.004,12.103,0.045c0.373,0.007,1.198,0.255,1.375,0.585
		c1.152,2.173,2.971,5.896,4.123,8.202C44.845,48.948,44.376,49.927,44.009,49.925z"/>
	<polygon fill="#767676" points="31.429,34.353 27.412,38.84 23.703,34.353 26.333,34.285 26.333,28.922 23.434,28.91 
		27.412,25.334 31.429,28.887 28.697,28.85 28.697,34.307 	"/>
	<path fill="#CCCCCC" stroke="#767676" stroke-miterlimit="10" d="M12.564,23c0.012-4.679,0-12.269,0-16.331
		c0-1.241,0.992-1.568,1.811-1.568c4.673,0,18.323-0.117,25.378,0c2.182,0.036,1.995,0.098,1.904,2.417
		c-0.154,3.982,0.098,10.445,0.067,13.848c-0.012,1.208,0.369,2.197-1.84,2.275c-5.604,0.2-19.797-0.047-25.379,0.141
		C12.561,23.849,12.564,23,12.564,23z"/>
	<path fill="none" stroke="#767676" stroke-width="0.25" stroke-miterlimit="10" d="M41.179,45.462
		c-7.76-0.009-18.707-0.083-28.239,0c-0.361,0.004-0.356-0.302-0.266-0.505c0.577-1.286,1.13-2.46,1.818-3.701
		c0.09-0.162,0.28-0.28,0.554-0.28c5.623-0.018,19.129-0.052,24.405-0.015c0.324,0.003,0.477,0.513,0.581,0.701
		c0.641,1.166,1.035,2.009,1.568,3.324C41.681,45.182,41.497,45.462,41.179,45.462z"/>
	<path fill="none" stroke="#767676" stroke-width="0.25" stroke-miterlimit="10" d="M32.435,48.731
		c-2.883-0.005-7.05-0.041-10.676,0c-0.136,0.001-0.123-0.142-0.101-0.242c0.157-0.687,0.157-1.259,0.417-1.852
		c0.034-0.076,0.105-0.133,0.209-0.133c2.126-0.01,7.809-0.02,9.803-0.001c0.123,0.001,0.199,0.238,0.221,0.336
		c0.15,0.678,0.207,1.018,0.286,1.667C32.606,48.601,32.555,48.731,32.435,48.731z"/>
</g>
<path fill="#FFFFFF" stroke="#FFFFFF" stroke-miterlimit="10" d="M14.681,21.384c0.01-3.798,0-9.959,0-13.257
	c0-1.007,0.849-1.273,1.549-1.273c3.998,0,15.671-0.095,21.708,0c1.866,0.029,1.707,0.08,1.628,1.962
	c-0.132,3.233,0.084,8.479,0.058,11.243c-0.011,0.98,0.313,1.782-1.575,1.846c-4.792,0.163-16.934-0.038-21.707,0.113
	C14.677,22.075,14.681,21.384,14.681,21.384z"/>
<text transform="matrix(1 0 0 1 14.9263 19.1128)" fill="#767676" font-family="'ArialMT'" font-size="14.1096">2in1</text>
</svg>
