<?xml version="1.0" encoding="utf-8"?>
<!-- Generator: Adobe Illustrator 16.0.0, SVG Export Plug-In . SVG Version: 6.00 Build 0)  -->
<!DOCTYPE svg PUBLIC "-//W3C//DTD SVG 1.1//EN" "http://www.w3.org/Graphics/SVG/1.1/DTD/svg11.dtd">
<svg version="1.1" id="Layer_1" xmlns="http://www.w3.org/2000/svg" xmlns:xlink="http://www.w3.org/1999/xlink" x="0px" y="0px"
	 width="55px" height="55px" viewBox="0 0 55 55" enable-background="new 0 0 55 55" xml:space="preserve">
<g>
	<path fill="none" stroke="#231F20" stroke-width="0.0283" stroke-miterlimit="22.9256" d="M24.798,13.224l9.833-9.428H12.724
		L8.618,13.17L24.798,13.224L24.798,13.224z M8.618,13.17l11.588,4.403l4.592-4.349 M24.777,19.355l-4.57-1.782L9.321,27.675
		l10.642,9.86l4.754-1.863l0.081-22.448 M24.798,13.224l21.665,14.182L34.631,3.796 M46.463,27.406l-21.686-8.051 M24.717,35.672
		l-0.054,6.24 M34.658,51.203L19.963,37.535L8.537,41.829l4.16,9.374H34.658L34.658,51.203z M34.658,51.203l11.805-23.797
		L24.664,41.912 M46.463,27.406l-21.746,8.266"/>
	
		<line fill="none" stroke="#231F20" stroke-width="0.216" stroke-miterlimit="22.9256" x1="24.664" y1="41.912" x2="8.537" y2="41.829"/>
	<polygon fill-rule="evenodd" clip-rule="evenodd" fill="#091311" points="24.777,19.355 46.463,27.406 24.798,13.224 
		24.777,19.355 	"/>
	<polygon fill-rule="evenodd" clip-rule="evenodd" points="46.463,27.406 24.717,35.672 24.664,41.907 24.666,41.91 46.463,27.406 	
		"/>
	<polygon fill-rule="evenodd" clip-rule="evenodd" fill="#919191" points="24.798,13.224 46.463,27.406 34.631,3.796 24.798,13.224 
			"/>
	<polygon fill-rule="evenodd" clip-rule="evenodd" fill="#919191" points="46.463,27.406 24.666,41.91 34.658,51.203 46.463,27.406 
			"/>
	<polygon fill-rule="evenodd" clip-rule="evenodd" fill="#919191" points="24.717,35.672 46.463,27.406 24.777,19.355 
		24.717,35.672 	"/>
	<polygon fill-rule="evenodd" clip-rule="evenodd" fill="#CCCCCC" points="24.717,35.672 24.777,19.355 20.207,17.573 9.321,27.675 
		19.963,37.535 24.717,35.672 	"/>
	<polygon fill-rule="evenodd" clip-rule="evenodd" points="20.207,17.573 24.777,19.355 24.798,13.224 20.207,17.573 	"/>
	<polygon fill-rule="evenodd" clip-rule="evenodd" points="24.717,35.672 19.963,37.535 24.664,41.907 24.717,35.672 	"/>
	<polygon fill-rule="evenodd" clip-rule="evenodd" fill="#CCCCCC" points="24.664,41.912 8.537,41.829 12.697,51.203 34.658,51.203 
		24.666,41.91 24.664,41.912 	"/>
	<polygon fill-rule="evenodd" clip-rule="evenodd" fill="#CCCCCC" points="8.618,13.17 24.798,13.224 34.631,3.796 12.724,3.796 
		8.618,13.17 	"/>
	<polygon fill-rule="evenodd" clip-rule="evenodd" fill="#767676" points="24.798,13.224 8.618,13.17 20.207,17.573 24.798,13.224 	
		"/>
	<polygon fill-rule="evenodd" clip-rule="evenodd" fill="#767676" points="19.963,37.535 8.537,41.829 24.664,41.912 24.664,41.907 
		19.963,37.535 	"/>
</g>
</svg>
