<?xml version="1.0" encoding="utf-8"?>
<svg version="1.1" id="Layer_1" xmlns="http://www.w3.org/2000/svg" xmlns:xlink="http://www.w3.org/1999/xlink" x="0px" y="0px"
	 width="55px" height="55px" viewBox="0 0 55 55" enable-background="new 0 0 55 55" xml:space="preserve">
<path fill="#CCCCCC" stroke="#767676" stroke-miterlimit="10" d="M49.449,42.492c0.001-0.367-0.512-0.912-1.137-0.912h-4.137
	c-0.798-0.533-1.387-1.155-1.387-1.844c0-1.436,0-6.682,0-9.965v-3.637h-1.82v3.637c0,3.262,0,8.471,0,9.938
	c0,0.704-0.555,1.337-1.309,1.876h-3.905c-0.632,0-1.144,0.544-1.144,0.907c0,0.354,0.479,0.857,1.078,0.896
	c-0.022,0.004-0.045,0.01-0.045,0.01h0.109h12.557h0.104c0,0-0.021-0.006-0.044-0.01C48.971,43.355,49.449,42.844,49.449,42.492z"/>
<path fill="#CCCCCC" stroke="#767676" stroke-miterlimit="10" d="M34.618,24.321c0,0.5,0.405,0.908,0.905,0.908l5.369-0.005
	c0.021,0,0.164,0.011,0.385,0.011c0.869,0,3.031-0.17,4.729-1.732c1.479-1.353,2.228-3.372,2.228-6c0-0.5-0.405-0.907-0.906-0.907
	S46.42,17,46.42,17.501c0,2.09-0.551,3.652-1.629,4.647c-1.534,1.431-3.717,1.271-3.816,1.266h-5.451
	C35.023,23.414,34.618,23.821,34.618,24.321z"/>
<path fill="#FFFFFF" stroke="#767676" stroke-miterlimit="10" d="M35.068,17.963c0.752,0,1.363-0.61,1.363-1.364
	s-0.611-1.364-1.363-1.364H9.63c-0.753,0-1.364,0.611-1.364,1.364s0.61,1.364,1.364,1.364h3.484
	c-0.139,2.24-0.01,24.609,0.16,24.605c6.492-0.121,13.16-0.07,18.168,0c0.269,0.004,0.256-22.324,0.037-24.605H35.068z"/>
<path fill="#CCCCCC" stroke="#767676" stroke-miterlimit="10" d="M9.583,10.769c0,1.963,1.54,3.635,4.839,3.635
	c3.306,0,4.421-1.672,4.421-3.635c0-0.05-0.011-0.099-0.011-0.154H9.595C9.595,10.67,9.583,10.719,9.583,10.769z"/>
<path fill="#767676" d="M36.046,16.544c0,0.555-0.455,1.005-1.015,1.005H9.515c-0.561,0-1.015-0.45-1.015-1.005l0,0
	c0-0.555,0.455-1.005,1.015-1.005h25.516C35.591,15.54,36.046,15.989,36.046,16.544L36.046,16.544z"/>
</svg>
