<?xml version="1.0" encoding="utf-8"?>
<svg version="1.1" id="Layer_3" xmlns="http://www.w3.org/2000/svg" xmlns:xlink="http://www.w3.org/1999/xlink" x="0px" y="0px"
	 width="45px" height="44.98px" viewBox="0 0 45 44.98" enable-background="new 0 0 45 44.98" xml:space="preserve">
<rect x="9.593" y="25.682" fill="#FFFFFF" width="9.25" height="14.297"/>
<line fill="#FFFFFF" x1="25.719" y1="39.979" x2="25.719" y2="25.682"/>
<rect x="17.593" y="25.682" fill="#FFFFFF" width="11.5" height="3.166"/>
<rect x="17.593" y="25.682" fill="#FFFFFF" width="11.5" height="3.166"/>
<polyline fill="#CCCCCC" stroke="#7D7D7D" stroke-width="2" stroke-miterlimit="10" points="22.219,25.411 21.926,5.849 
	3.887,25.143 "/>
<line fill="none" stroke="#7D7D7D" stroke-width="2" stroke-miterlimit="10" x1="22.195" y1="23.911" x2="22.219" y2="29.755"/>
<polyline fill="none" stroke="#7D7D7D" stroke-width="2" stroke-miterlimit="10" points="6.367,22.492 3.031,25.682 9.218,26.098 
	8.843,40.835 19.562,40.848 19.75,29.848 23.031,29.723 "/>
<polygon fill="none" stroke="#7D7D7D" stroke-width="2" stroke-miterlimit="10" points="22.47,4.154 33.938,4.131 34.031,14.966 
	41.969,15.071 41.969,40.848 22.47,40.848 "/>
<rect x="23.472" y="5.186" fill="#FFFFFF" width="9.446" height="34.794"/>
<rect x="32.219" y="15.946" fill="#FFFFFF" width="8.584" height="24.035"/>
<rect x="26.008" y="10.086" fill="#9B9994" width="5.924" height="6.046"/>
<rect x="26.008" y="18.669" fill="#9B9994" width="5.924" height="6.045"/>
<rect x="26.008" y="27.335" fill="#9B9994" width="5.924" height="6.047"/>
<rect x="33.807" y="18.485" fill="#9B9994" width="5.924" height="4.19"/>
<rect x="33.807" y="24.532" fill="#9B9994" width="5.924" height="3.965"/>
<rect x="33.807" y="31.214" fill="#9B9994" width="5.924" height="3.967"/>
</svg>
