<?xml version="1.0" encoding="utf-8"?>
<svg version="1.1" id="Layer_2" xmlns="http://www.w3.org/2000/svg" xmlns:xlink="http://www.w3.org/1999/xlink" x="0px" y="0px"
	 width="45px" height="45px" viewBox="0 0 45 45" enable-background="new 0 0 45 45" xml:space="preserve">
<polygon fill="none" stroke="#7D7D7D" stroke-width="2" stroke-miterlimit="10" points="7,3.25 29.334,3.25 29.334,14.25 
	42.167,14.167 42.167,43.25 7,43.25 "/>
<rect x="8" y="4" fill="#FFFFFF" width="20.334" height="37.917"/>
<rect x="20.667" y="15.042" fill="#FFFFFF" width="20.334" height="26.875"/>
<rect x="10.538" y="9.182" fill="#9B9994" width="5.924" height="6.046"/>
<rect x="18.955" y="9.182" fill="#9B9994" width="5.924" height="6.046"/>
<rect x="10.538" y="17.765" fill="#9B9994" width="5.924" height="6.046"/>
<rect x="18.955" y="17.765" fill="#9B9994" width="5.924" height="6.046"/>
<rect x="10.538" y="26.432" fill="#9B9994" width="5.924" height="6.047"/>
<rect x="18.955" y="26.432" fill="#9B9994" width="5.924" height="6.047"/>
<rect x="31.691" y="17.765" fill="#9B9994" width="5.924" height="4.19"/>
<rect x="31.691" y="23.812" fill="#9B9994" width="5.924" height="3.966"/>
<rect x="31.691" y="30.495" fill="#9B9994" width="5.924" height="3.966"/>
</svg>
