<?xml version="1.0" encoding="utf-8"?>
<svg version="1.1" id="Layer_1" xmlns="http://www.w3.org/2000/svg" xmlns:xlink="http://www.w3.org/1999/xlink" x="0px" y="0px"
	 width="55px" height="55px" viewBox="0 0 55 55" enable-background="new 0 0 55 55" xml:space="preserve">
<g>
	<defs>
		<polygon id="SVGID_1_" points="48.602,43.603 27.434,3.741 6.398,43.513 10.963,50.39 16.548,51.26 18.41,43.633 18.41,43.633 
			34.308,43.633 35.677,51.26 42.59,50.472 48.602,43.603 48.602,43.603 		"/>
	</defs>
	<clipPath id="SVGID_2_">
		<use xlink:href="#SVGID_1_"  overflow="visible"/>
	</clipPath>
	<polygon clip-path="url(#SVGID_2_)" fill="#CCCBCB" points="34.308,43.633 35.677,51.26 42.59,50.472 48.576,43.633 	"/>
	<polygon clip-path="url(#SVGID_2_)" fill="#929090" points="49.009,43.633 41.621,43.633 42.611,51.62 45.315,51.62 	"/>
	<polygon clip-path="url(#SVGID_2_)" fill="#CCCBCB" points="18.402,40.721 7.875,40.721 6.398,43.513 10.963,50.39 16.548,51.26 
		18.402,43.662 	"/>
	<polygon clip-path="url(#SVGID_2_)" fill="#777677" points="10.392,43.662 4.867,43.662 10.783,50.84 10.993,50.45 	"/>
	<polygon clip-path="url(#SVGID_2_)" fill="#777677" points="10.392,43.662 9.731,36.396 5.768,40.54 5.197,43.662 	"/>
	<polygon clip-path="url(#SVGID_2_)" fill="#929090" points="41.555,30.27 27.434,3.741 9.781,37.116 	"/>
	<polygon clip-path="url(#SVGID_2_)" fill="#777677" points="9.795,37.091 39.025,25.521 41.621,43.633 10.392,43.633 	"/>
	<polygon clip-path="url(#SVGID_2_)" fill="#777677" points="38.961,25.401 41.621,43.633 49.188,43.633 45.614,27.928 	"/>
	<polygon clip-path="url(#SVGID_2_)" fill="#CCCBCB" points="20.676,32.784 31.809,28.377 27.434,3.741 	"/>
	<polygon clip-path="url(#SVGID_2_)" fill="#929090" points="31.809,28.377 34.308,43.633 18.402,43.633 20.676,32.784 	"/>
</g>
</svg>
