<?xml version="1.0" encoding="utf-8"?>
<!-- Generator: Adobe Illustrator 16.0.0, SVG Export Plug-In . SVG Version: 6.00 Build 0)  -->
<!DOCTYPE svg PUBLIC "-//W3C//DTD SVG 1.1//EN" "http://www.w3.org/Graphics/SVG/1.1/DTD/svg11.dtd">
<svg version="1.1" id="Layer_1" xmlns="http://www.w3.org/2000/svg" xmlns:xlink="http://www.w3.org/1999/xlink" x="0px" y="0px"
	 width="55px" height="55px" viewBox="0 0 55 55" enable-background="new 0 0 55 55" xml:space="preserve">
<g>
	<g>
		<g>
			<g>
				<path fill="#CCCCCC" stroke="#767676" stroke-width="2" stroke-miterlimit="10" d="M23.521,42.569
					c-0.902,0-1.801-0.785-1.972-0.943C20.932,41.21,4.622,30.956,2.83,29.318c-0.65-0.599-0.766-1.197-0.746-1.597
					c0.042-0.954,0.849-1.606,0.939-1.678l18.141-12.742c0.199-0.198,1.121-1.024,1.997-1.024c0.4,0,1.328,0.168,1.328,1.708v6.084
					H50.1c0.071-0.011,0.167-0.021,0.279-0.021c0.299,0,1.788,0.104,1.788,2.151v10.887c0,1.507-1.165,1.905-1.781,1.905H25.028
					v5.493C25.028,42.3,24.084,42.569,23.521,42.569z"/>
			</g>
		</g>
	</g>
</g>
</svg>
