<?xml version="1.0" encoding="utf-8"?>
<svg version="1.1" id="Layer_1" xmlns="http://www.w3.org/2000/svg" xmlns:xlink="http://www.w3.org/1999/xlink" x="0px" y="0px"
	 width="55px" height="55px" viewBox="0 0 55 55" enable-background="new 0 0 55 55" xml:space="preserve">
<polygon fill="#CCCCCC" points="42.375,48.375 37.74,48.375 35.688,9.795 40.508,11.752 42.438,19.25 43.543,29.794 "/>
<path fill="#CCCCCC" stroke="#767676" stroke-width="2" d="M38.105,49.752l-0.373-22.188c-0.113-5.487,0.186-10.79-0.131-12.83
	c-0.074-0.476-0.213-0.877-0.225-0.899c-0.906-1.872-4.684-6.928-7.355-7.595c-3.664-0.915-14.534,4.018-14.534,4.018
	s-2.75,1.905-3.226,2.874c-1.066,2.175-0.667,9.665-0.667,9.665l-0.298,0.698c0,0-1.382,0.16-1.399,0.633l-0.018,0.52l1.466,23.375
	c1.357,4.203,17.484,4.215,22.173,2.742L38.105,49.752L38.105,49.752l5.305-2.313"/>
<path fill="none" stroke="#767676" d="M33.568,7.628c0,0,4.041-3.068,5.5-2.451c1.305,0.551,1.96,5.96,1.911,7.375"/>
<path fill="none" stroke="#767676" d="M33.52,50.764c0.072-0.021,2.811-18.588-0.025-25.154c-0.072-0.169-0.369-0.43-0.537-0.505
	c-4.828-2.14-21.66-1.188-21.66-1.188"/>
<path fill="none" stroke="#767676" d="M13.235,31.674c0,0,13.503-1.313,18.683,0.645"/>
<line fill="#FFFFFF" stroke="#767676" x1="32.957" y1="25.105" x2="37.74" y2="27.356"/>
<path fill="none" stroke="#767676" d="M30.021,6.24c3.691-2.812,4.814-2.277,6.168-1.997c1.012,0.21,2.879,0.935,2.879,0.935"/>
<path fill="none" stroke="#767676" stroke-width="2" d="M43.543,29.794c1.145,9.331,0.972,12.325,0.889,12.691
	c-0.341,1.471-1.55,5.456-1.55,5.456l0.704-13.434c0,0-0.102-9.286-0.055-12.381c0.002-0.14-0.228-1.701-0.248-1.841
	c-0.381-2.579-1.519-6.707-2.775-8.533c-0.278-0.405-1.028-1.048-1.43-1.317C36.993,9.04,30.021,6.24,30.021,6.24"/>
<path fill="none" stroke="#767676" d="M36.354,5.849c0,0,1.102,2.098,1.053,3.493"/>
<path fill="none" stroke="#767676" d="M22.234,7.611c3.205-3.087,2.427-4.494,8.215-1.69"/>
<path fill="none" stroke="#767676" d="M16.545,9.795c2.03-2.266,7.469-5.68,9.789-5.337"/>
<path fill="none" stroke="#767676" d="M24.501,5.457c0,0,0.913,0.08,2.168,0.928"/>
<polygon fill="#767676" points="37.275,8.264 34.292,7.849 31.4,6.24 31.4,5.125 34.972,4.021 37.257,4.791 36.354,6.385 "/>
<polygon fill="#767676" points="22.375,6.772 19.356,7.374 24.227,5.105 "/>
</svg>
