<?xml version="1.0" encoding="utf-8"?>
<svg version="1.1" id="Layer_2" xmlns="http://www.w3.org/2000/svg" xmlns:xlink="http://www.w3.org/1999/xlink" x="0px" y="0px"
	 width="55px" height="55px" viewBox="0 0 55 55" enable-background="new 0 0 55 55" xml:space="preserve">
<path fill="#FFFFFF" stroke="#7D7D7D" stroke-miterlimit="10" d="M48.334,36.354H7.165c-1.326,0-2.192,0.072-2.665-1.021
	c-0.865-2.001-0.583-5.75-0.583-5.75c0-2.344,0.009-4.983,0.875-6.167c0.521-0.711,1.301-0.5,2.708-0.5h40
	c1.686,0,2.661-0.164,3.209,0.708c0.672,1.069,0.583,3.101,0.583,5.167c0,0,0.312,4.691-0.792,6.833
	C50.032,36.532,49.45,36.354,48.334,36.354z"/>
<polyline fill="#FFFFFF" stroke="#7D7D7D" stroke-miterlimit="10" points="13.958,35.625 13.958,39.793 11.396,40.417 8.887,39.833 
	8.887,35.625 "/>
<polyline fill="#FFFFFF" stroke="#7D7D7D" stroke-miterlimit="10" points="46.242,35.625 46.242,39.793 43.68,40.417 41.17,39.833 
	41.17,35.625 "/>
<g id="Rectangle_5_copy_6_1_">
	<g>
		<rect x="4.5" y="25.125" fill="#999999" width="46.209" height="8.51"/>
	</g>
</g>
<polygon fill="#FFFFFF" stroke="#7D7D7D" stroke-width="1.5" stroke-miterlimit="10" points="46.242,22.417 8.709,22.417 
	8.709,13.75 9.626,12.875 45.25,12.875 46.242,13.667 "/>
<line fill="none" stroke="#7D7D7D" stroke-width="2" stroke-miterlimit="10" x1="12.854" y1="20.958" x2="24.708" y2="20.958"/>
<line fill="none" stroke="#7D7D7D" stroke-width="2" stroke-miterlimit="10" x1="30.146" y1="20.958" x2="42.001" y2="20.958"/>
<rect x="2.917" y="26.873" fill="#EEEEEE" width="0.458" height="0.125"/>
</svg>
