<?xml version="1.0" encoding="utf-8"?>
<!DOCTYPE svg PUBLIC "-//W3C//DTD SVG 1.1//EN" "http://www.w3.org/Graphics/SVG/1.1/DTD/svg11.dtd">
<svg version="1.1" xmlns="http://www.w3.org/2000/svg" xmlns:xlink="http://www.w3.org/1999/xlink" x="0px" y="0px" width="55px"
	 height="55px" viewBox="0 0 55 55" enable-background="new 0 0 55 55" xml:space="preserve">
<g id="Layer_3">
	<polygon fill="none" stroke="#7D7D7D" stroke-width="2" stroke-miterlimit="10" points="9.307,4.244 34.181,4.244 34.181,16.496 
		48.474,16.403 48.474,48.795 9.307,48.795 	"/>
	<rect x="10.421" y="5.08" fill="#FFFFFF" width="22.646" height="42.231"/>
	<rect x="24.529" y="17.377" fill="#FFFFFF" width="22.646" height="29.933"/>
	<rect x="13.248" y="10.851" fill="#9B9994" width="6.598" height="6.733"/>
	<rect x="22.622" y="10.851" fill="#9B9994" width="6.598" height="6.733"/>
	<rect x="13.248" y="20.41" fill="#9B9994" width="6.598" height="6.734"/>
	<rect x="22.622" y="20.41" fill="#9B9994" width="6.598" height="6.734"/>
	<rect x="13.248" y="30.063" fill="#9B9994" width="6.598" height="6.734"/>
	<rect x="22.622" y="30.063" fill="#9B9994" width="6.598" height="6.734"/>
	<rect x="36.808" y="20.41" fill="#9B9994" width="6.598" height="4.667"/>
	<rect x="36.808" y="27.146" fill="#9B9994" width="6.598" height="4.417"/>
	<rect x="36.808" y="34.588" fill="#9B9994" width="6.598" height="4.418"/>
</g>
<g id="Layer_2">
	<polygon fill="#AAAAAA" stroke="#7D7D7D" stroke-miterlimit="10" points="10.57,28.301 10.571,29.72 26.191,29.72 26.185,28.301 
		28.615,28.301 28.615,29.72 31.42,29.717 31.42,50.181 4.784,50.181 4.784,29.72 8.143,29.717 8.146,28.301 	"/>
	<path fill="#AAAAAA" stroke="#AAAAAA" stroke-miterlimit="10" d="M5.426,24.226"/>
	<rect x="5.79" y="36.971" fill="#FFFFFF" stroke="#FFFFFF" stroke-miterlimit="10" width="24.604" height="3.238"/>
	<path fill="none" stroke="#7D7D7D" stroke-width="2" stroke-miterlimit="10" d="M14.107,29.59c0.094-4.973,7.923-5.061,7.991,0"/>
</g>
</svg>
