<?xml version="1.0" encoding="utf-8"?>
<svg version="1.1" id="Layer_1" xmlns="http://www.w3.org/2000/svg" xmlns:xlink="http://www.w3.org/1999/xlink" x="0px" y="0px"
	 width="55px" height="55px" viewBox="0 0 55 55" enable-background="new 0 0 55 55" xml:space="preserve">
<g>
	<path fill="#767676" stroke="#767676" stroke-miterlimit="10" d="M36.18,33.426l-0.793-0.004l-21.906,3.91
		c0,0,0.101-3.875,0.188-5.682c-4.526,1.858-8.687,4.053-8.687,4.053s8.527,1.715,11.258,2.67c2.201,0.77,8.442,3.969,8.442,3.969
		l9.31-7.457L36.18,33.426z"/>
</g>
<path fill="#767676" stroke="#767676" stroke-miterlimit="10" d="M4.233,37.006c0,0,11.117,3.039,12.945,3.648
	c2.085,0.697,7.5,4,7.5,4s6.8-5.963,9-7.5c2.021-1.414,6.727-4.038,6.727-4.038h0.481c0,0-4.274,2.616-7.04,4.411
	c-2.867,1.854-9.053,7.555-9.053,7.555s-5.502-3.514-8.156-4.305c-2.489-0.742-12.333-3.375-12.333-3.375L4.233,37.006z"/>
<path fill="#FFFFFF" d="M25.34,34.66c1.889,0.23,0.964,0.311,3.23,0.111c3.441-0.304,2.33-0.91,2.248-1.097
	C27.688,34.25,29.533,33.746,25.34,34.66z"/>
<path fill="#767676" stroke="#767676" stroke-miterlimit="10" d="M50.768,25.459c0,0-3.432-5.892-4.563-8.453
	c-0.888-2.001-3.146-7.931-3.146-7.931s-8.416-0.602-11.207-0.781C27.336,8.005,15.23,5.011,15.23,5.011s3.602,8.609,4.302,11.891
	c0.562,2.646,1.015,11.469,1.015,11.469s11.775-2.756,15.535-3.027C40.154,25.052,50.768,25.459,50.768,25.459z"/>
<path fill="#767676" stroke="#767676" stroke-miterlimit="10" d="M13.21,5.176c0,0,4.003,9.827,4.503,11.986
	c0.568,2.466,1.108,13.035,1.108,13.035s15.181-2.959,18.332-3.307c2.899-0.318,13.402,0.037,13.402,0.037l-0.189,0.456
	c0,0-9.018-0.397-12.826-0.141c-3.943,0.26-19.266,3.367-19.266,3.367s0.271-10.434-0.561-13.447
	C16.934,14.335,13.21,5.176,13.21,5.176L13.21,5.176z"/>
<path fill="#FFFFFF" d="M38.777,21.814c-1.644,1.896-5.742,1.635-7.982-0.951c-2.238-2.585-2.975-7.145-1.333-9.041
	c1.644-1.896,5.589-1.045,7.829,1.541C39.531,15.949,40.42,19.916,38.777,21.814z"/>
<polyline fill="none" stroke="#767676" stroke-miterlimit="10" points="36.355,14.897 37.539,19.826 31.193,14.563 32.445,19.927 
	"/>
<path fill="#767676" stroke="#767676" stroke-miterlimit="10" d="M11.993,6.417c0,0,3.79,9.893,4.29,12.051
	c0.567,2.466,0.292,14.224,0.292,14.224s16.584-3.067,19.735-3.414c2.898-0.319,13.334-0.264,13.334-0.264l-0.385,0.396
	c0,0-8.58-0.107-12.389,0.149c-3.943,0.258-20.379,3.558-20.379,3.558s0.582-11.585-0.084-14.669
	C15.627,15.62,11.993,6.417,11.993,6.417L11.993,6.417z"/>
<path fill="#767676" stroke="#767676" stroke-miterlimit="10" d="M4.617,39.076c0,0,11.117,3.17,12.945,3.805
	c2.085,0.728,7.418,4.31,7.418,4.31s6.883-6.357,9.083-7.961c2.021-1.475,9.359-6.026,9.359-6.026h0.531
	c0,0-6.959,4.543-9.725,6.416c-2.867,1.935-9.07,8.157-9.07,8.157s-5.483-3.941-8.138-4.767c-2.489-0.774-12.333-3.521-12.333-3.521
	L4.617,39.076z"/>
<path fill="#767676" stroke="#767676" stroke-miterlimit="10" d="M5.08,40.953c0,0,9.979,2.846,11.807,3.457
	c2.085,0.695,8.438,4.859,8.438,4.859s6.646-6.119,8.844-7.656c2.021-1.414,12.15-8.273,12.15-8.273h0.535
	c0,0-9.589,7.135-12.354,8.928c-2.867,1.857-8.988,7.722-8.988,7.722S19,45.451,16.345,44.66c-2.489-0.742-11.13-3.191-11.13-3.191
	L5.08,40.953z"/>
<path fill="#767676" stroke="#767676" stroke-miterlimit="10" d="M10.595,7.271c0,0,3.632,9.112,4.132,11.27
	c0.567,2.466,0.166,16.525,0.166,16.525s16.708-3.092,19.86-3.438c2.897-0.32,13.334-0.264,13.334-0.264l-0.385,0.395
	c0,0-8.58-0.107-12.39,0.15c-3.942,0.258-20.491,3.578-20.491,3.578s0.604-14.582-0.228-17.595
	C13.815,15.067,10.595,7.271,10.595,7.271L10.595,7.271z"/>
</svg>
