<?xml version="1.0" encoding="utf-8"?>
<svg version="1.1" id="Layer_1" xmlns="http://www.w3.org/2000/svg" xmlns:xlink="http://www.w3.org/1999/xlink" x="0px" y="0px"
	 width="55px" height="55px" viewBox="0 0 55 55" enable-background="new 0 0 55 55" xml:space="preserve">
<g>
	<path fill="#767676" stroke="#767676" stroke-miterlimit="10" d="M11.671,29.573c-4.526,1.859-6.691,3.766-6.691,3.766
		s3.377,0.713,6.629,1.477C11.609,34.815,11.746,31.354,11.671,29.573z"/>
	<path fill="#767676" stroke="#767676" stroke-miterlimit="10" d="M24.378,40.176l5.475-4.438l3.145-2.407h-0.584
		c0,0-5.933,1.106-8.036,1.484c-2.311,0.416-8.566,1.486-8.566,1.486s3.035,0.94,4.021,1.374
		C21.014,38.194,24.378,40.176,24.378,40.176z"/>
</g>
<path fill="#767676" stroke="#767676" stroke-miterlimit="10" d="M4.232,34.642c0,0,11.117,3.039,12.945,3.648
	c2.085,0.697,7.5,4,7.5,4s6.801-5.963,9-7.5c2.021-1.414,2.363-1.701,2.363-1.701h0.271c0,0-1.75,1.313-3.053,2.472
	c-2.867,1.855-8.467,7.157-8.467,7.157s-5.502-3.514-8.156-4.305c-2.489-0.742-12.333-3.375-12.333-3.375L4.232,34.642z"/>
<path fill="#767676" stroke="#767676" stroke-miterlimit="10" d="M50.768,23.095c0,0-3.432-5.892-4.564-8.453
	c-0.887-2.001-3.145-7.931-3.145-7.931S34.643,6.11,31.852,5.93C27.335,5.641,15.23,2.647,15.23,2.647s3.602,8.609,4.302,11.891
	c0.562,2.646,1.015,11.469,1.015,11.469s11.776-2.756,15.536-3.027C40.154,22.688,50.768,23.095,50.768,23.095z"/>
<path fill="#767676" stroke="#767676" stroke-miterlimit="10" d="M13.209,2.812c0,0,4.003,9.827,4.503,11.986
	c0.568,2.466,1.108,13.035,1.108,13.035s15.181-2.959,18.332-3.307c2.9-0.318,13.402,0.037,13.402,0.037l-0.189,0.456
	c0,0-9.018-0.397-12.826-0.141c-3.943,0.26-19.266,3.367-19.266,3.367s0.271-10.433-0.561-13.447
	C16.933,11.971,13.209,2.812,13.209,2.812L13.209,2.812z"/>
<path fill="#FFFFFF" d="M38.777,19.45c-1.643,1.896-5.742,1.635-7.982-0.951c-2.24-2.585-2.975-7.145-1.334-9.041
	c1.645-1.896,5.59-1.045,7.83,1.541S40.42,17.551,38.777,19.45z"/>
<polyline fill="none" stroke="#767676" stroke-miterlimit="10" points="36.355,12.533 37.539,17.461 31.193,12.199 32.445,17.563 
	"/>
<path fill="#767676" stroke="#767676" stroke-miterlimit="10" d="M11.993,4.052c0,0,3.79,9.893,4.29,12.051
	c0.567,2.466,0.292,14.224,0.292,14.224s16.584-3.068,19.737-3.414c2.898-0.32,13.334-0.264,13.334-0.264l-0.385,0.395
	c0,0-8.58-0.107-12.389,0.15c-3.943,0.258-20.379,3.557-20.379,3.557s0.582-11.585-0.084-14.669
	C15.627,13.256,11.993,4.052,11.993,4.052L11.993,4.052z"/>
<path fill="#767676" stroke="#767676" stroke-miterlimit="10" d="M4.616,36.782c0,0,11.117,3.039,12.945,3.648
	c2.085,0.697,7.418,4.131,7.418,4.131s6.883-6.094,9.083-7.631c2.021-1.414,5.234-3.842,5.234-3.842l0.707,0.035
	c0,0-3.01,2.385-5.775,4.18c-2.867,1.855-9.071,7.82-9.071,7.82s-5.483-3.779-8.138-4.57c-2.489-0.742-12.333-3.375-12.333-3.375
	L4.616,36.782z"/>
<path fill="#767676" stroke="#767676" stroke-miterlimit="10" d="M10.595,4.906c0,0,3.632,9.112,4.132,11.27
	c0.567,2.466,0.166,16.526,0.166,16.526s16.708-3.092,19.861-3.438c2.898-0.32,13.334-0.264,13.334-0.264l-0.385,0.395
	c0,0-8.58-0.107-12.389,0.15c-3.943,0.258-20.492,3.578-20.492,3.578s0.604-14.582-0.228-17.595
	C13.814,12.703,10.595,4.906,10.595,4.906L10.595,4.906z"/>
<path fill="#767676" stroke="#767676" stroke-miterlimit="10" d="M9.562,6.189c0,0,3,7.913,3.5,10.071
	c0.567,2.465-0.011,18.696-0.011,18.696s16.708-3.092,19.861-3.438c2.898-0.32,13.334-0.264,13.334-0.264l-0.385,0.395
	c0,0-8.58-0.107-12.389,0.15c-3.943,0.258-20.492,3.578-20.492,3.578s0.694-16.105-0.138-19.118
	c-0.78-2.826-3.395-10.02-3.395-10.02L9.562,6.189z"/>
<path fill="#767676" stroke="#767676" stroke-miterlimit="10" d="M4.96,38.567c0,0,9.979,2.846,11.807,3.457
	c2.086,0.695,8.438,4.859,8.438,4.859s6.646-6.119,8.843-7.656c2.021-1.414,8.722-6.104,8.722-6.104h0.75
	c0,0-6.374,4.966-9.14,6.759c-2.867,1.857-8.987,7.722-8.987,7.722s-6.514-4.538-9.168-5.329c-2.49-0.742-11.131-3.191-11.131-3.191
	L4.96,38.567z"/>
<path fill="#767676" stroke="#767676" stroke-miterlimit="10" d="M5.381,40.52c0,0,8.001,2.404,9.829,3.016
	c2.085,0.695,10.416,5.779,10.416,5.779s6.645-6.119,8.844-7.656c2.021-1.414,11.612-8.327,11.612-8.327l0.921-0.208
	c0,0-9.436,7.396-12.201,9.189c-2.867,1.857-8.989,7.721-8.989,7.721s-9.432-5.518-12.086-6.309
	c-2.489-0.742-8.266-2.613-8.266-2.613L5.381,40.52z"/>
</svg>
