<?xml version="1.0" encoding="utf-8"?>
<!-- Generator: Adobe Illustrator 16.0.0, SVG Export Plug-In . SVG Version: 6.00 Build 0)  -->
<!DOCTYPE svg PUBLIC "-//W3C//DTD SVG 1.1//EN" "http://www.w3.org/Graphics/SVG/1.1/DTD/svg11.dtd">
<svg version="1.1" id="Layer_1" xmlns="http://www.w3.org/2000/svg" xmlns:xlink="http://www.w3.org/1999/xlink" x="0px" y="0px"
	 width="55px" height="55px" viewBox="0 0 55 55" enable-background="new 0 0 55 55" xml:space="preserve">
<path fill="#767676" stroke="#767676" stroke-miterlimit="10" d="M51.438,21.022c0,0-7.599-0.859-10.584-1.417
	c-2.334-0.436-8.916-1.917-8.916-1.917s-7.959,4.061-10.584,5.417c-4.243,2.192-17.333,7.084-17.333,7.084s9.847,1.98,13,3.082
	c2.542,0.889,9.75,4.584,9.75,4.584s8.361-7.281,11.5-9.334C41.676,26.297,51.438,21.022,51.438,21.022z"/>
<path fill="#767676" stroke="#767676" stroke-miterlimit="10" d="M9.649,34.498c0,0,5.907,1.236,8.018,1.941
	c2.408,0.805,9.188,5,9.188,5s8.585-7.164,11.125-8.938c2.335-1.633,9.75-5.875,9.75-5.875l2.96,0.752c0,0-8.891,5.303-12.085,7.374
	c-3.311,2.145-11.813,9.188-11.813,9.188s-7.311-4.211-10.375-5.125c-2.876-0.859-10.938-2.813-10.938-2.813L9.649,34.498z"/>
<path fill="#FFFFFF" d="M37.948,25.564c0,1.689-3.851,3.68-7.84,3.68c-3.989,0-8.16-1.651-8.16-3.34s4.171-3.34,8.16-3.34
	C34.098,22.563,37.948,23.874,37.948,25.564z"/>
<polyline fill="none" stroke="#767676" stroke-miterlimit="10" points="30.458,23.728 35.313,25.313 25.604,26.234 30.854,27.98 "/>
</svg>
