<?xml version="1.0" encoding="utf-8"?>
<svg version="1.1" id="Layer_1" xmlns="http://www.w3.org/2000/svg" xmlns:xlink="http://www.w3.org/1999/xlink" x="0px" y="0px"
	 width="55px" height="55px" viewBox="0 0 55 55" enable-background="new 0 0 55 55" xml:space="preserve">
<path fill="#767676" stroke="#767676" stroke-miterlimit="10" d="M51.209,11.223c0,0-7.6-0.859-10.584-1.417
	C38.291,9.37,31.709,7.89,31.709,7.89s-7.96,4.061-10.585,5.417c-4.243,2.192-17.333,7.084-17.333,7.084s9.847,1.98,13,3.082
	c2.542,0.889,9.75,4.584,9.75,4.584s8.361-7.281,11.5-9.334C41.445,16.499,51.209,11.223,51.209,11.223z"/>
<path fill="#767676" stroke="#767676" stroke-miterlimit="10" d="M9.419,24.699c0,0,5.907,1.236,8.018,1.941
	c2.408,0.805,9.188,5,9.188,5s8.585-7.164,11.126-8.938c2.334-1.633,9.75-5.875,9.75-5.875l2.959,0.752
	c0,0-8.891,5.303-12.084,7.374c-3.311,2.145-11.813,9.188-11.813,9.188s-7.311-4.211-10.375-5.125
	c-2.876-0.859-10.938-2.813-10.938-2.813L9.419,24.699z"/>
<path fill="#FFFFFF" d="M37.719,15.765c0,1.689-3.852,3.68-7.841,3.68c-3.989,0-8.16-1.651-8.16-3.34s4.171-3.34,8.16-3.34
	C33.867,12.765,37.719,14.075,37.719,15.765z"/>
<polyline fill="none" stroke="#767676" stroke-miterlimit="10" points="30.229,13.929 35.084,15.515 25.373,16.435 30.625,18.181 
	"/>
<path fill="#767676" stroke="#767676" stroke-miterlimit="10" d="M9.419,31.012c0,0,5.907,1.236,8.018,1.941
	c2.408,0.805,9.188,5,9.188,5s8.585-7.164,11.126-8.938c2.334-1.633,9.75-5.875,9.75-5.875l2.959,0.752
	c0,0-8.891,5.303-12.084,7.373c-3.311,2.145-11.813,9.188-11.813,9.188s-7.311-4.211-10.375-5.125
	c-2.876-0.859-10.938-2.813-10.938-2.813L9.419,31.012z"/>
<path fill="#767676" stroke="#767676" stroke-miterlimit="10" d="M9.938,37.668c0,0,5.907,1.236,8.018,1.941
	c2.408,0.805,9.188,5,9.188,5s8.586-7.164,11.125-8.938c2.336-1.633,9.75-5.875,9.75-5.875l2.961,0.752
	c0,0-8.891,5.303-12.086,7.373c-3.311,2.145-11.813,9.188-11.813,9.188s-7.311-4.211-10.375-5.125
	c-2.876-0.859-10.938-2.813-10.938-2.813L9.938,37.668z"/>
</svg>
