<?xml version="1.0" encoding="utf-8"?>
<svg version="1.1" id="Layer_1" xmlns="http://www.w3.org/2000/svg" xmlns:xlink="http://www.w3.org/1999/xlink" x="0px" y="0px"
	 width="55px" height="55px" viewBox="0 0 55 55" enable-background="new 0 0 55 55" xml:space="preserve">
<g>
	<path fill="#767676" stroke="#767676" stroke-miterlimit="10" d="M34.963,32.585c-4.619,0.615-20.326,3.592-20.326,3.592
		s0.079-1.252,0.166-3.061c-4.526,1.859-9.822,3.838-9.822,3.838s8.527,1.717,11.258,2.67c2.201,0.77,8.442,3.971,8.442,3.971
		s7.241-6.307,9.959-8.084c1.229-0.803,3.414-2.064,5.547-3.266C38.23,32.3,36.33,32.401,34.963,32.585z"/>
</g>
<path fill="#767676" stroke="#767676" stroke-miterlimit="10" d="M4.233,38.259c0,0,11.117,3.037,12.945,3.646
	c2.085,0.697,7.5,4,7.5,4s6.8-5.963,9-7.5c2.021-1.414,9.48-6,9.48-6h0.521c0,0-7.07,4.578-9.836,6.373
	c-2.867,1.855-9.052,7.555-9.052,7.555s-5.502-3.514-8.156-4.305c-2.489-0.742-12.333-3.375-12.333-3.375L4.233,38.259z"/>
<path fill="#FFFFFF" d="M21.621,34.403c1.334,0.994,3.673,1.732,5.95,1.732c3.455,0,6.791-2.039,6.791-3.77
	c0-0.197-0.049-0.393-0.131-0.58C31.1,32.362,25.814,33.487,21.621,34.403z"/>
<path fill="none" stroke="#767676" stroke-miterlimit="10" d="M25.158,34.024l3.061,1.018l-0.145-1.539"/>
<path fill="#767676" stroke="#767676" stroke-miterlimit="10" d="M50.768,26.711c0,0-3.432-5.892-4.564-8.453
	c-0.887-2.001-3.145-7.931-3.145-7.931s-8.416-0.602-11.207-0.781c-4.515-0.289-16.621-3.283-16.621-3.283s3.602,8.609,4.302,11.891
	c0.562,2.646,1.015,11.468,1.015,11.468s11.774-2.756,15.534-3.025C40.154,26.303,50.768,26.711,50.768,26.711z"/>
<path fill="#767676" stroke="#767676" stroke-miterlimit="10" d="M13.21,6.427c0,0,4.003,9.827,4.503,11.986
	c0.568,2.466,1.108,13.036,1.108,13.036s15.181-2.961,18.331-3.309c2.9-0.318,13.402,0.037,13.402,0.037l-0.189,0.455
	c0,0-9.018-0.396-12.826-0.141c-3.943,0.26-19.266,3.367-19.266,3.367s0.271-10.434-0.561-13.447
	C16.934,15.587,13.21,6.427,13.21,6.427L13.21,6.427z"/>
<path fill="#FFFFFF" d="M38.777,23.065c-1.643,1.896-5.742,1.635-7.98-0.951c-2.24-2.585-2.976-7.145-1.334-9.041
	c1.645-1.896,5.59-1.045,7.828,1.541C39.531,17.2,40.42,21.167,38.777,23.065z"/>
<polyline fill="none" stroke="#767676" stroke-miterlimit="10" points="36.355,16.148 37.539,21.077 31.193,15.814 32.445,21.178 
	"/>
<path fill="#767676" stroke="#767676" stroke-miterlimit="10" d="M11.993,7.668c0,0,4.003,9.827,4.503,11.985
	c0.567,2.466-0.047,14.313-0.047,14.313s16.709-3.092,19.861-3.438c2.896-0.32,13.334-0.265,13.334-0.265l-0.385,0.396
	c0,0-8.58-0.107-12.391,0.15c-3.941,0.258-20.491,3.578-20.491,3.578s0.949-11.723,0.117-14.736
	C15.716,16.827,11.993,7.668,11.993,7.668L11.993,7.668z"/>
<path fill="#767676" stroke="#767676" stroke-miterlimit="10" d="M4.617,40.397c0,0,11.117,3.039,12.945,3.648
	c2.085,0.695,7.418,4.131,7.418,4.131s6.883-6.094,9.083-7.631c2.02-1.414,12.387-8.141,12.387-8.141v0.479
	c0,0-9.455,6.24-12.221,8.035c-2.867,1.855-9.07,7.818-9.07,7.818s-5.483-3.777-8.138-4.568c-2.488-0.742-12.333-3.375-12.333-3.375
	L4.617,40.397z"/>
</svg>
