<?xml version="1.0" encoding="utf-8"?>
<svg version="1.1" id="Layer_1" xmlns="http://www.w3.org/2000/svg" xmlns:xlink="http://www.w3.org/1999/xlink" x="0px" y="0px"
	 width="55px" height="55px" viewBox="0 0 55 55" enable-background="new 0 0 55 55" xml:space="preserve">
<g>
	<path fill="none" stroke="#CCCCCC" stroke-miterlimit="10" d="M2.083,52.667"/>
	<path fill="none" stroke="#CCCCCC" stroke-miterlimit="10" d="M52.334,3.167"/>
	<line fill="none" stroke="#CCCCCC" stroke-miterlimit="10" x1="2.083" y1="44.425" x2="52.334" y2="44.425"/>
	<line fill="none" stroke="#CCCCCC" stroke-miterlimit="10" x1="2.083" y1="36.159" x2="52.334" y2="36.159"/>
	<line fill="none" stroke="#CCCCCC" stroke-miterlimit="10" x1="2.083" y1="27.917" x2="52.334" y2="27.917"/>
	<line fill="none" stroke="#CCCCCC" stroke-miterlimit="10" x1="2.083" y1="19.675" x2="52.334" y2="19.675"/>
	<line fill="none" stroke="#CCCCCC" stroke-miterlimit="10" x1="2.083" y1="11.409" x2="52.334" y2="11.409"/>
	<line fill="none" stroke="#CCCCCC" stroke-miterlimit="10" x1="43.955" y1="3.167" x2="43.955" y2="52.667"/>
	<line fill="none" stroke="#CCCCCC" stroke-miterlimit="10" x1="35.588" y1="3.167" x2="35.588" y2="52.667"/>
	<line fill="none" stroke="#CCCCCC" stroke-miterlimit="10" x1="27.209" y1="3.167" x2="27.209" y2="52.667"/>
	<line fill="none" stroke="#CCCCCC" stroke-miterlimit="10" x1="18.83" y1="3.167" x2="18.83" y2="52.667"/>
	<line fill="none" stroke="#CCCCCC" stroke-miterlimit="10" x1="10.463" y1="3.167" x2="10.463" y2="52.667"/>
</g>
<path fill="none" stroke="#767676" stroke-width="3" stroke-miterlimit="10" d="M50.608,25.551"/>
<path fill="none" stroke="#767676" stroke-width="3" stroke-miterlimit="10" d="M35.168,43.688"/>
<path fill="none" stroke="#767676" stroke-width="3" stroke-miterlimit="10" d="M7.917,9.335"/>
<g>
	<g>
		<path fill="none" stroke="#767676" stroke-width="3" stroke-miterlimit="10" d="M44.666,6.583"/>
		<path fill="none" stroke="#767676" stroke-width="3" stroke-miterlimit="10" d="M35.168,16.875"/>
	</g>
</g>
<g>
	<line fill="none" stroke="#767676" stroke-linecap="round" stroke-miterlimit="10" x1="3.615" y1="6.398" x2="5.413" y2="37.805"/>
		<line fill="none" stroke="#767676" stroke-linecap="round" stroke-miterlimit="10" x1="3.615" y1="6.398" x2="18.167" y2="12.634"/>
		<line fill="none" stroke="#767676" stroke-linecap="round" stroke-miterlimit="10" x1="18.167" y1="12.634" x2="18.841" y2="51.684"/>
		<line fill="none" stroke="#767676" stroke-linecap="round" stroke-miterlimit="10" x1="18.841" y1="51.684" x2="5.413" y2="37.805"/>
	<line fill="none" stroke="#767676" stroke-linecap="round" stroke-miterlimit="10" x1="3.615" y1="6.398" x2="32.774" y2="4.15"/>
	<line fill="none" stroke="#767676" stroke-linecap="round" stroke-miterlimit="10" x1="32.774" y1="4.15" x2="52.327" y2="8.87"/>
		<line fill="none" stroke="#767676" stroke-linecap="round" stroke-miterlimit="10" x1="18.167" y1="12.634" x2="52.327" y2="8.87"/>
		<line fill="none" stroke="#767676" stroke-linecap="round" stroke-miterlimit="10" x1="52.327" y1="8.87" x2="50.305" y2="43.199"/>
		<line fill="none" stroke="#767676" stroke-linecap="round" stroke-miterlimit="10" x1="18.841" y1="51.684" x2="50.305" y2="43.199"/>
		<line fill="none" stroke="#767676" stroke-linecap="round" stroke-miterlimit="10" x1="15.245" y1="15.668" x2="15.639" y2="31.514"/>
		<line fill="none" stroke="#767676" stroke-linecap="round" stroke-miterlimit="10" x1="15.639" y1="31.514" x2="23.167" y2="37.243"/>
		<line fill="none" stroke="#767676" stroke-linecap="round" stroke-miterlimit="10" x1="23.167" y1="37.243" x2="23.167" y2="19.422"/>
		<line fill="none" stroke="#767676" stroke-linecap="round" stroke-miterlimit="10" x1="23.167" y1="19.422" x2="15.245" y2="15.668"/>
		<line fill="none" stroke="#767676" stroke-linecap="round" stroke-miterlimit="10" x1="15.245" y1="15.668" x2="30.021" y2="13.814"/>
		<line fill="none" stroke="#767676" stroke-linecap="round" stroke-miterlimit="10" x1="30.021" y1="13.814" x2="30.021" y2="28.928"/>
		<line fill="none" stroke="#767676" stroke-linecap="round" stroke-miterlimit="10" x1="15.639" y1="31.514" x2="30.021" y2="28.928"/>
		<line fill="none" stroke="#767676" stroke-linecap="round" stroke-miterlimit="10" x1="30.021" y1="13.814" x2="38.955" y2="17.073"/>
		<line fill="none" stroke="#767676" stroke-linecap="round" stroke-miterlimit="10" x1="38.955" y1="17.073" x2="23.167" y2="19.422"/>
		<line fill="none" stroke="#767676" stroke-linecap="round" stroke-miterlimit="10" x1="38.955" y1="17.073" x2="38.563" y2="33.872"/>
		<line fill="none" stroke="#767676" stroke-linecap="round" stroke-miterlimit="10" x1="30.021" y1="28.928" x2="38.563" y2="33.872"/>
		<line fill="none" stroke="#767676" stroke-linecap="round" stroke-miterlimit="10" x1="23.167" y1="37.243" x2="38.563" y2="33.872"/>
		<line fill="none" stroke="#767676" stroke-linecap="round" stroke-miterlimit="10" x1="23.167" y1="37.243" x2="18.841" y2="51.684"/>
		<line fill="none" stroke="#767676" stroke-linecap="round" stroke-miterlimit="10" x1="38.563" y1="33.872" x2="50.305" y2="43.199"/>
		<line fill="none" stroke="#767676" stroke-linecap="round" stroke-miterlimit="10" x1="38.955" y1="17.073" x2="52.327" y2="8.87"/>
		<line fill="none" stroke="#767676" stroke-linecap="round" stroke-miterlimit="10" x1="30.021" y1="13.814" x2="32.774" y2="4.15"/>
		<line fill="none" stroke="#767676" stroke-linecap="round" stroke-miterlimit="10" x1="3.615" y1="6.398" x2="15.245" y2="15.668"/>
		<line fill="none" stroke="#767676" stroke-linecap="round" stroke-miterlimit="10" x1="18.167" y1="12.634" x2="23.167" y2="19.422"/>
		<line fill="none" stroke="#767676" stroke-linecap="round" stroke-miterlimit="10" x1="15.639" y1="31.514" x2="5.413" y2="37.805"/>
		<line fill="none" stroke="#767676" stroke-linecap="round" stroke-miterlimit="10" x1="5.413" y1="37.805" x2="32.438" y2="32.581"/>
		<line fill="none" stroke="#767676" stroke-linecap="round" stroke-miterlimit="10" x1="32.438" y1="32.581" x2="50.305" y2="43.199"/>
		<line fill="none" stroke="#767676" stroke-linecap="round" stroke-miterlimit="10" x1="32.438" y1="32.581" x2="32.774" y2="4.15"/>
		<line fill="none" stroke="#767676" stroke-linecap="round" stroke-miterlimit="10" x1="30.021" y1="28.928" x2="32.438" y2="32.581"/>
</g>
</svg>
