<?xml version="1.0" encoding="utf-8"?>
<!-- Generator: Adobe Illustrator 16.0.0, SVG Export Plug-In . SVG Version: 6.00 Build 0)  -->
<!DOCTYPE svg PUBLIC "-//W3C//DTD SVG 1.1//EN" "http://www.w3.org/Graphics/SVG/1.1/DTD/svg11.dtd">
<svg version="1.1" id="Layer_1" xmlns="http://www.w3.org/2000/svg" xmlns:xlink="http://www.w3.org/1999/xlink" x="0px" y="0px"
	 width="55px" height="55px" viewBox="0 0 55 55" enable-background="new 0 0 55 55" xml:space="preserve">
<g id="Layer_1_1_" display="none">
	
		<image display="inline" overflow="visible" enable-background="new    " width="362" height="315" xlink:href="../../Downloads/icon-2in1.png"  transform="matrix(0.1423 0 0 0.1423 -57.3701 -0.8945)">
	</image>
</g>
<g>
	<path fill="none" stroke="#CCCCCC" stroke-miterlimit="10" d="M2.083,52.667"/>
	<path fill="none" stroke="#CCCCCC" stroke-miterlimit="10" d="M52.334,3.167"/>
	<line fill="none" stroke="#CCCCCC" stroke-miterlimit="10" x1="2.083" y1="44.425" x2="52.334" y2="44.425"/>
	<line fill="none" stroke="#CCCCCC" stroke-miterlimit="10" x1="2.083" y1="36.159" x2="52.334" y2="36.159"/>
	<line fill="none" stroke="#CCCCCC" stroke-miterlimit="10" x1="2.083" y1="27.917" x2="52.334" y2="27.917"/>
	<line fill="none" stroke="#CCCCCC" stroke-miterlimit="10" x1="2.083" y1="19.675" x2="52.334" y2="19.675"/>
	<line fill="none" stroke="#CCCCCC" stroke-miterlimit="10" x1="2.083" y1="11.409" x2="52.334" y2="11.409"/>
	<line fill="none" stroke="#CCCCCC" stroke-miterlimit="10" x1="43.955" y1="3.167" x2="43.955" y2="52.667"/>
	<line fill="none" stroke="#CCCCCC" stroke-miterlimit="10" x1="35.588" y1="3.167" x2="35.588" y2="52.667"/>
	<line fill="none" stroke="#CCCCCC" stroke-miterlimit="10" x1="27.209" y1="3.167" x2="27.209" y2="52.667"/>
	<line fill="none" stroke="#CCCCCC" stroke-miterlimit="10" x1="18.83" y1="3.167" x2="18.83" y2="52.667"/>
	<line fill="none" stroke="#CCCCCC" stroke-miterlimit="10" x1="10.463" y1="3.167" x2="10.463" y2="52.667"/>
</g>
<path fill="none" stroke="#767676" stroke-width="3" stroke-miterlimit="10" d="M50.608,25.551"/>
<path fill="none" stroke="#767676" stroke-width="3" stroke-miterlimit="10" d="M35.168,43.688"/>
<path fill="none" stroke="#767676" stroke-width="3" stroke-miterlimit="10" d="M7.917,9.335"/>
<g>
	<polygon fill="none" stroke="#767676" stroke-width="3" stroke-miterlimit="10" points="35.5,46.834 8.25,46.834 8.313,16.563 
		35.563,16.563 	"/>
	<g>
		<line fill="none" stroke="#767676" stroke-width="3" stroke-miterlimit="10" x1="35.168" y1="16.875" x2="44.666" y2="6.583"/>
		<polyline fill="none" stroke="#767676" stroke-width="3" stroke-miterlimit="10" points="35.916,47.25 44.232,38.938 44.25,6.583 
			21.906,6.583 8.25,16.25 		"/>
	</g>
</g>
</svg>
