<?xml version="1.0" encoding="utf-8"?>
<!-- Generator: Adobe Illustrator 16.0.0, SVG Export Plug-In . SVG Version: 6.00 Build 0)  -->
<!DOCTYPE svg PUBLIC "-//W3C//DTD SVG 1.1//EN" "http://www.w3.org/Graphics/SVG/1.1/DTD/svg11.dtd">
<svg version="1.1" id="Layer_1" xmlns="http://www.w3.org/2000/svg" xmlns:xlink="http://www.w3.org/1999/xlink" x="0px" y="0px"
	 width="55px" height="55px" viewBox="0 0 55 55" enable-background="new 0 0 55 55" xml:space="preserve">
<g>
	<path fill="none" stroke="#CCCCCC" stroke-miterlimit="10" d="M2.083,52.667"/>
	<path fill="none" stroke="#CCCCCC" stroke-miterlimit="10" d="M52.334,3.167"/>
	<line fill="none" stroke="#CCCCCC" stroke-miterlimit="10" x1="2.083" y1="44.425" x2="52.334" y2="44.425"/>
	<line fill="none" stroke="#CCCCCC" stroke-miterlimit="10" x1="2.083" y1="36.159" x2="52.334" y2="36.159"/>
	<line fill="none" stroke="#CCCCCC" stroke-miterlimit="10" x1="2.083" y1="27.917" x2="52.334" y2="27.917"/>
	<line fill="none" stroke="#CCCCCC" stroke-miterlimit="10" x1="2.083" y1="19.675" x2="52.334" y2="19.675"/>
	<line fill="none" stroke="#CCCCCC" stroke-miterlimit="10" x1="2.083" y1="11.409" x2="52.334" y2="11.409"/>
	<line fill="none" stroke="#CCCCCC" stroke-miterlimit="10" x1="43.955" y1="3.167" x2="43.955" y2="52.667"/>
	<line fill="none" stroke="#CCCCCC" stroke-miterlimit="10" x1="35.588" y1="3.167" x2="35.588" y2="52.667"/>
	<line fill="none" stroke="#CCCCCC" stroke-miterlimit="10" x1="27.209" y1="3.167" x2="27.209" y2="52.667"/>
	<line fill="none" stroke="#CCCCCC" stroke-miterlimit="10" x1="18.83" y1="3.167" x2="18.83" y2="52.667"/>
	<line fill="none" stroke="#CCCCCC" stroke-miterlimit="10" x1="10.463" y1="3.167" x2="10.463" y2="52.667"/>
</g>
<polygon fill="#767676" stroke="#767676" stroke-miterlimit="10" points="7.388,13.61 11.034,18.684 9.878,21.54 3.5,22.836 
	3.5,31.254 9.803,32.512 11.095,35.593 7.377,39.994 13.797,46.907 18.89,43.299 21.801,44.465 22.946,50.871 31.766,51.152 
	32.682,44.426 35.574,43.26 40.686,46.904 46.997,40.592 43.352,35.521 44.813,32.663 51.5,31.366 51.5,22.949 44.84,21.689 
	43.457,18.608 46.938,13.61 40.712,7.296 35.512,10.905 32.688,9.74 31.538,3.332 22.686,3.05 21.707,9.74 18.813,10.942 
	13.702,7.296 7.492,12.858 "/>
<circle fill="#CCCCCC" stroke="#767676" stroke-miterlimit="10" cx="27.333" cy="26.789" r="15.292"/>
<circle fill="#999999" stroke="#767676" stroke-miterlimit="10" cx="32.094" cy="37.094" r="2.781"/>
<path fill="#999999" stroke="#767676" stroke-miterlimit="10" d="M22,31c0,1.934-1.567,3.5-3.5,3.5S15,32.934,15,31
	s1.567-3.5,3.5-3.5c1.839,0,3.346,1.418,3.488,3.219C21.996,30.813,22,30.904,22,31z"/>
<line fill="none" stroke="#767676" stroke-miterlimit="10" x1="33.266" y1="34.57" x2="19.393" y2="27.616"/>
<line fill="none" stroke="#767676" stroke-miterlimit="10" x1="30.846" y1="39.578" x2="16.705" y2="34.004"/>
<circle fill="#FFFFFF" stroke="#767676" stroke-miterlimit="10" cx="18.493" cy="31.274" r="0.9"/>
<circle fill="#999999" cx="28.736" cy="19.823" r="6.013"/>
<polygon fill="#999999" stroke="#767676" stroke-miterlimit="10" points="18.839,31.43 18.003,30.49 27.893,19.133 28.854,19.973 
	"/>
<rect x="26.917" y="17.339" transform="matrix(-0.669 0.7433 -0.7433 -0.669 62.6356 10.7833)" fill="#999999" stroke="#767676" stroke-miterlimit="10" width="4" height="4"/>
</svg>
