<?xml version="1.0" encoding="utf-8"?>
<svg version="1.1" id="Layer_1" xmlns="http://www.w3.org/2000/svg" xmlns:xlink="http://www.w3.org/1999/xlink" x="0px" y="0px"
	 width="55px" height="55px" viewBox="0 0 55 55" enable-background="new 0 0 55 55" xml:space="preserve">
<path fill="#919191" d="M13.067,8.812c-0.181-0.586,2.729-1.35,5.921-1.492c3.214-0.14,7.016,0.5,7.729,2.62
	c1.161,3.476-4.726,8.543-9.855,11.035c-1.26,0.608-2.021,0.776-2.34,0.733c-0.302-0.041-0.35-0.322-0.25-0.516
	c0.181-0.367,1.011-1.11,2.117-1.919c5.774-4.219,7.651-7.313,6.56-8.567c-0.699-0.804-3.625-1.363-6.665-1.363
	C15.458,9.344,13.29,9.525,13.067,8.812"/>
<path fill="#767676" d="M19.544,24.694c-1.821-1.25-5.067-1.666-7.738-1.528c-2.381,0.126-6.47,0.883-6.319,1.635
	c0.146,0.814,2.735,0.561,3.923,0.561c2.608,0,6.75,0.159,7.402,1.841c1.408,3.625-8.132,10.129-10.167,9.502
	c-0.92-0.279,1.869-5.008,2.88-6.71c0.603-1.013,1.518-2.609,0.737-2.716c-0.873-0.122-1.837,1.379-2.461,2.245
	c-1.697,2.353-3.436,4.917-4.831,7.556c-0.431,0.816-1.861,3.266-1.37,3.586c0.459,0.295,2.641-0.125,5.417-1.225
	c8.721-3.453,12.649-7.957,13.701-11.674C21.088,26.459,20.451,25.316,19.544,24.694"/>
<path fill="#919191" d="M32.631,18.775c-2.838-0.468-7.915-0.646-9.651,2.013c-1.341,2.054,1.194,4.872,3.501,7.599
	c1.849,2.184,3.861,4.268,3.039,5.488c-0.67,0.998-4.97,0.998-6.453,1.074c-1.797,0.096-4.39,0.1-4.841,0.348
	c-0.405,0.219-0.632,0.895,0.889,1.166c1.225,0.223,4.137,0.666,7.209,0.666c3.206,0,6.575-0.527,7.305-3.01
	c0.588-1.994-1.445-4.133-3.24-6.299c-1.957-2.376-3.941-4.065-3.774-5.747c0.127-1.307,2.692-1.382,6.946-1.458
	c0.885-0.016,2.648-0.058,2.307-0.756C35.564,19.244,34.246,19.04,32.631,18.775"/>
<path fill-rule="evenodd" clip-rule="evenodd" fill="#767676" d="M19.325,41.529c-0.271-0.42-0.785-0.658-1.547-0.658
	c-1.549,0-3.045,1.092-3.53,2.594s0.305,2.596,1.79,2.596c0.828,0,1.601-0.318,2.197-0.865l1.351,1.104
	c-1.083,0.957-2.54,1.4-3.814,1.4c-2.903,0-4.486-1.65-3.652-4.234c0.833-2.582,3.48-4.234,6.384-4.234
	c1.038,0,2.252,0.309,2.758,1.184L19.325,41.529L19.325,41.529z"/>
<path fill-rule="evenodd" clip-rule="evenodd" fill="#767676" d="M27.365,39.436h1.695l1.447,8.059h-2.313l-0.25-1.707h-3.613
	l-1.325,1.707h-2.26L27.365,39.436L27.365,39.436z M27.397,41.781l-1.937,2.504h2.272L27.397,41.781L27.397,41.781z"/>
<polygon fill-rule="evenodd" clip-rule="evenodd" fill="#767676" points="34.826,41.006 32.172,41.006 32.68,39.436 40.037,39.436 
	39.529,41.006 36.877,41.006 34.783,47.494 32.732,47.494 34.826,41.006 "/>
<polygon fill-rule="evenodd" clip-rule="evenodd" fill="#767676" points="42.381,39.436 44.43,39.436 41.832,47.494 39.779,47.494 
	42.381,39.436 "/>
<path fill-rule="evenodd" clip-rule="evenodd" fill="#767676" d="M50.359,39.436h1.695l1.445,8.059h-2.313l-0.25-1.707h-3.611
	L46,47.494h-2.26L50.359,39.436L50.359,39.436z M50.393,41.781l-1.938,2.504h2.273L50.393,41.781L50.393,41.781z"/>
</svg>
