<?xml version="1.0" encoding="utf-8"?>
<svg version="1.1" id="Layer_1" xmlns="http://www.w3.org/2000/svg" xmlns:xlink="http://www.w3.org/1999/xlink" x="0px" y="0px"
	 width="45px" height="45px" viewBox="0 0 45 45" enable-background="new 0 0 45 45" xml:space="preserve">
<circle fill="#FFFFFF" stroke="#7D7D7D" stroke-width="2" stroke-miterlimit="10" cx="22.5" cy="22.501" r="18.708"/>
<path fill="#CCCCCC" stroke="#CCCCCC" stroke-miterlimit="10" d="M22.231,22.262l-16.99-0.137
	c-0.235-3.938,2.335-9.438,5.543-12.303c3.392-3.029,5.962-3.659,7.421-3.976L22.231,22.262z"/>
<path fill="#CCCCCC" stroke="#CCCCCC" stroke-miterlimit="10" d="M24.5,22.124V5.35c3.458,0.258,8.579,2.371,11.625,6.055
	c3.124,3.78,3.626,8.841,3.625,10.719H24.5z"/>
<rect x="22" y="7.624" fill="#767676" width="2" height="14"/>
<path fill="#CCCCCC" stroke="#CCCCCC" stroke-miterlimit="10" d="M23.576,22.742h16.169c0.104,3.811-1.622,8.772-5.198,12.17
	c-3.667,3.488-9.151,4.975-10.971,4.85V22.742z"/>
<path fill="#CCCCCC" stroke="#CCCCCC" stroke-miterlimit="10" d="M22.875,22.125v17.655c-3.906,0.314-10.133-2.025-13.343-5.654
	c-3.376-3.814-4.594-9.854-4.291-12H22.875z"/>
<circle fill="#767676" cx="23" cy="22.125" r="2.5"/>
<rect x="19.5" y="8.479" transform="matrix(-0.9659 0.2588 -0.2588 -0.9659 44.3071 25.1234)" fill="#767676" width="2" height="13.999"/>
</svg>
