<?xml version="1.0" encoding="utf-8"?>
<svg version="1.1" id="Layer_1" xmlns="http://www.w3.org/2000/svg" xmlns:xlink="http://www.w3.org/1999/xlink" x="0px" y="0px"
	 width="45px" height="45px" viewBox="0 0 45 45" enable-background="new 0 0 45 45" xml:space="preserve">
<circle fill="#FFFFFF" stroke="#7D7D7D" stroke-width="2" stroke-miterlimit="10" cx="22.5" cy="23.107" r="18.708"/>
<path fill="#CCCCCC" stroke="#CCCCCC" stroke-miterlimit="10" d="M24.5,22.73V5.956c3.458,0.258,8.579,2.371,11.625,6.055
	c3.124,3.78,3.626,8.841,3.625,10.719H24.5z"/>
<rect x="22" y="8.23" fill="#767676" width="2" height="14"/>
<path fill="#CCCCCC" stroke="#CCCCCC" stroke-miterlimit="10" d="M23.576,23.348h16.169c0.104,3.811-1.622,8.771-5.198,12.17
	c-3.667,3.488-9.151,4.975-10.971,4.85V23.348z"/>
<path fill="#CCCCCC" stroke="#CCCCCC" stroke-miterlimit="10" d="M23,22.73v17.639C19.063,40.688,13.305,38.576,9.906,35
	c-3.488-3.667-5.281-10.344-4.688-12.27H23z"/>
<circle fill="#767676" cx="23" cy="22.73" r="2.5"/>
<rect x="8" y="21.5" fill="#767676" width="14" height="2"/>
</svg>
