<?xml version="1.0" encoding="utf-8"?>
<svg version="1.1" xmlns="http://www.w3.org/2000/svg" xmlns:xlink="http://www.w3.org/1999/xlink" x="0px" y="0px" width="55px"
	 height="55px" viewBox="0 0 55 55" enable-background="new 0 0 55 55" xml:space="preserve">
<g id="Layer_1" display="none">
	<g id="Rectangle_6_copy_5" display="inline">
		<g>
			<rect x="32" y="13" fill="#CCCCCC" width="12" height="8"/>
		</g>
	</g>
</g>
<g id="Layer_2">
	<polygon fill="#FFFFFF" stroke="#7D7D7D" stroke-width="1.5" stroke-miterlimit="10" points="11.702,23.163 12.156,22.234 
		12.438,21.359 10.063,17.641 12.969,14.016 13.792,10.672 16.792,9.213 19.167,11.255 22.667,13.047 18.361,18.139 16.219,15.234 
		15.625,15.297 13.844,18.078 16.083,21.338 18.625,21.338 18.667,23.172 26.958,23.164 26.969,21.375 30.46,21.359 30.459,12.497 
		44.542,12.497 44.542,21.413 48.334,21.413 48.334,23.255 49.959,23.255 49.959,25.63 48.813,27.172 48.813,45.484 47.563,46.484 
		44.938,46.484 43.625,45.484 43.625,32.672 12.813,32.672 12.813,44.984 11.625,46.484 8.833,46.484 7.625,44.984 7.625,27.547 
		6.167,27.547 5.583,25.422 7.208,23.247 	"/>
	<rect x="30.938" y="12.906" fill="#CCCCCC" width="13.125" height="8.938"/>
	<rect x="27.422" y="21.844" fill="#CCCCCC" width="20.469" height="1.844"/>
	<rect x="18.156" y="23.563" fill="#CCCCCC" width="31.297" height="1.406"/>
	<line fill="none" stroke="#AAAAAA" stroke-miterlimit="10" x1="30.938" y1="21.345" x2="44.063" y2="21.415"/>
	<line fill="none" stroke="#BBBBBB" stroke-miterlimit="10" x1="27.333" y1="23" x2="47.891" y2="23"/>
</g>
</svg>
