<?xml version="1.0" encoding="utf-8"?>
<svg version="1.1" xmlns="http://www.w3.org/2000/svg" xmlns:xlink="http://www.w3.org/1999/xlink" x="0px" y="0px" width="55px"
	 height="55px" viewBox="0 0 55 55" enable-background="new 0 0 55 55" xml:space="preserve">
<g id="Layer_1">
	<rect x="4.407" y="41.193" fill="#CCCCCC" stroke="#CCCCCC" stroke-miterlimit="10" width="46.188" height="2.307"/>
	<g id="Layer_3">
		<rect x="5.188" y="12.847" fill="#FFFFFF" stroke="#7D7D7D" stroke-miterlimit="10" width="44.451" height="26.115"/>
		
			<rect x="4.319" y="11.806" fill="#FFFFFF" stroke="#7D7D7D" stroke-width="2" stroke-miterlimit="10" width="46.188" height="27.783"/>
	</g>
	<rect x="3.875" y="44.235" fill="#999999" width="47.188" height="1.204"/>
</g>
<g id="Layer_2">
	<rect x="13.248" y="17.401" fill="#AAAAAA" width="5.666" height="5.67"/>
	<rect x="24.58" y="17.399" fill="#AAAAAA" width="5.666" height="5.67"/>
	<rect x="13.248" y="23.07" fill="#AAAAAA" width="5.666" height="5.668"/>
	<rect x="13.248" y="28.738" fill="#AAAAAA" width="5.666" height="5.672"/>
	<rect x="18.914" y="28.738" fill="#AAAAAA" width="5.667" height="5.672"/>
	<rect x="24.58" y="28.738" fill="#AAAAAA" width="5.666" height="5.672"/>
	<rect x="30.246" y="28.738" fill="#AAAAAA" width="5.666" height="5.672"/>
	<rect x="35.912" y="28.738" fill="#AAAAAA" width="5.666" height="5.672"/>
	<rect x="18.914" y="23.07" fill="#AAAAAA" width="5.667" height="5.668"/>
	<rect x="35.911" y="17.401" fill="#AAAAAA" width="5.666" height="5.67"/>
	<rect x="30.246" y="23.07" fill="#AAAAAA" width="5.666" height="5.668"/>
</g>
</svg>
