<?xml version="1.0" encoding="utf-8"?>
<!-- Generator: Adobe Illustrator 16.0.0, SVG Export Plug-In . SVG Version: 6.00 Build 0)  -->
<!DOCTYPE svg PUBLIC "-//W3C//DTD SVG 1.1//EN" "http://www.w3.org/Graphics/SVG/1.1/DTD/svg11.dtd">
<svg version="1.1" xmlns="http://www.w3.org/2000/svg" xmlns:xlink="http://www.w3.org/1999/xlink" x="0px" y="0px" width="55px"
	 height="55px" viewBox="0 0 55 55" enable-background="new 0 0 55 55" xml:space="preserve">
<g id="Layer_3">
	<rect x="4.747" y="5.043" fill="#CCCCCC" stroke="#767676" stroke-miterlimit="10" width="34.711" height="34.225"/>
	<line fill="none" stroke="#767676" stroke-miterlimit="10" x1="4.706" y1="21.853" x2="39.862" y2="21.853"/>
	<line fill="none" stroke="#767676" stroke-miterlimit="10" x1="22.102" y1="39.269" x2="22.089" y2="5.043"/>
	<ellipse fill="#CCCCCC" stroke="#767676" stroke-miterlimit="10" cx="13.471" cy="18.282" rx="3.722" ry="3.743"/>
	<rect x="11.683" y="20.011" fill="#CCCCCC" width="3.412" height="4.1"/>
	<ellipse fill="#CCCCCC" stroke="#767676" stroke-miterlimit="10" cx="18.817" cy="32.472" rx="3.722" ry="3.743"/>
	<ellipse fill="#CCCCCC" stroke="#767676" stroke-miterlimit="10" cx="25.487" cy="14.539" rx="3.724" ry="3.742"/>
	<ellipse fill="#CCCCCC" stroke="#767676" stroke-miterlimit="10" cx="29.533" cy="25.048" rx="3.722" ry="3.743"/>
	<rect x="27.537" y="20.011" fill="#CCCCCC" width="3.926" height="3.392"/>
	<rect x="20.308" y="12.999" fill="#CCCCCC" width="3.13" height="3.331"/>
	<rect x="21.172" y="30.692" fill="#CCCCCC" width="2.914" height="3.506"/>
</g>
<g id="Layer_2">
	<path fill="#FFFFFF" stroke="#7D7D7D" stroke-width="2" stroke-miterlimit="10" d="M36.17,32.456
		c2.313,2.938,13.658,7.577,12.328,9.995c-2.927,5.317-7.798,7.505-14.359,7.505c-9.544,0-17.281-7.641-17.281-17.063
		c0-9.423,7.737-17.063,17.281-17.063c5.789,0,10.357,1.857,13.094,6.438C48.649,24.641,35.846,32.044,36.17,32.456z"/>
	<ellipse fill="#CCCCCC" cx="34.877" cy="24.612" rx="2.145" ry="1.906"/>
	<ellipse fill="#CCCCCC" stroke="#7D7D7D" stroke-width="1.5" stroke-miterlimit="10" cx="47.264" cy="32.331" rx="3.031" ry="3"/>
</g>
</svg>
