<?xml version="1.0" encoding="utf-8"?>
<svg version="1.1" xmlns="http://www.w3.org/2000/svg" xmlns:xlink="http://www.w3.org/1999/xlink" x="0px" y="0px" width="55px"
	 height="55px" viewBox="0 0 55 55" enable-background="new 0 0 55 55" xml:space="preserve">
<g id="Layer_1">
	<path fill="#CCCCCC" stroke="#767676" stroke-miterlimit="10" d="M1.813,40.073c0.021-8.313,0-21.798,0-29.015
		c0-2.205,1.763-2.785,3.217-2.785c8.303,0,31.688-0.223,44.219-0.014c3.88,0.063,4.403,0.282,4.252,4.307
		c-0.274,7.075,0.174,18.557,0.12,24.604c-0.023,2.146,0.652,3.903-3.271,4.041c-9.957,0.354-35.168-0.084-45.089,0.252
		C1.808,41.58,1.813,40.073,1.813,40.073z"/>
	<path fill="none" stroke="#767676" stroke-miterlimit="10" d="M45,12.75"/>
	<path fill="none" stroke="#767676" stroke-miterlimit="10" d="M48.25,12.75"/>
	<path fill="none" stroke="#767676" stroke-miterlimit="10" d="M48.25,14.375"/>
	<path fill="#FFFFFF" stroke="#FFFFFF" stroke-miterlimit="10" d="M5.139,36.34c0.018-6.252,0-16.396,0-21.824
		c0-1.658,1.542-2.096,2.815-2.096c7.265,0,28.478-0.157,39.448,0c3.392,0.047,3.103,0.131,2.959,3.23
		c-0.241,5.321,0.152,13.956,0.104,18.508c-0.018,1.611,0.572,2.933-2.859,3.039c-8.711,0.268-30.771-0.063-39.446,0.186
		C5.131,37.477,5.139,36.34,5.139,36.34z"/>
</g>
<g id="Layer_5">
	
		<rect x="17.386" y="13.388" fill="#FFFFFF" stroke="#7D7D7D" stroke-width="1.5" stroke-miterlimit="10" width="21.749" height="16.014"/>
	<rect x="17.697" y="13.788" fill="#999999" width="21.061" height="2.129"/>
</g>
<g id="Layer_4">
	
		<rect x="21.948" y="20.339" fill="#FFFFFF" stroke="#7D7D7D" stroke-width="1.5" stroke-miterlimit="10" width="21.75" height="16.013"/>
	<rect x="22.259" y="20.739" fill="#999999" width="21.06" height="2.149"/>
</g>
<g id="Layer_6">
	<circle fill="#7D7D7D" stroke="#7D7D7D" stroke-width="0.5" stroke-miterlimit="10" cx="32.788" cy="30.006" r="4.943"/>
	<path fill="none" stroke="#FFFFFF" stroke-width="0.5" stroke-miterlimit="10" d="M37.115,30.002c0,2.389-1.938,4.426-4.328,4.426
		c-2.389,0-4.326-2.037-4.326-4.426c0-2.387,1.938-4.419,4.327-4.419C35.178,25.585,37.115,27.615,37.115,30.002z"/>
	<path fill="none" stroke="#FFFFFF" stroke-width="0.5" stroke-miterlimit="10" d="M35.227,30.127c0,2.16-1.719,4.145-2.424,4.145
		s-2.476-2.084-2.476-4.244c0-2.161,1.771-4.222,2.476-4.222S35.227,27.966,35.227,30.127z"/>
	<line fill="none" stroke="#FFFFFF" stroke-width="0.5" stroke-miterlimit="10" x1="32.787" y1="25.474" x2="32.788" y2="34.271"/>
	<line fill="none" stroke="#FFFFFF" stroke-width="0.5" stroke-miterlimit="10" x1="28.461" y1="30.002" x2="37.31" y2="29.994"/>
	<line fill="none" stroke="#FFFFFF" stroke-width="0.5" stroke-miterlimit="10" x1="28.977" y1="27.935" x2="36.6" y2="27.933"/>
	<line fill="none" stroke="#FFFFFF" stroke-width="0.5" stroke-miterlimit="10" x1="28.954" y1="32.279" x2="36.577" y2="32.277"/>
</g>
<g id="Layer_2_1_">
	
		<rect x="12.724" y="17.845" fill="#FFFFFF" stroke="#7D7D7D" stroke-width="1.5" stroke-miterlimit="10" width="21.749" height="16.014"/>
	<rect x="13.035" y="18.245" fill="#999999" width="21.059" height="2.094"/>
</g>
<g id="Layer_3">
	<circle fill="#7D7D7D" stroke="#7D7D7D" stroke-width="0.5" stroke-miterlimit="10" cx="23.564" cy="27.09" r="4.943"/>
	<path fill="none" stroke="#FFFFFF" stroke-width="0.5" stroke-miterlimit="10" d="M27.892,27.086c0,2.389-1.938,4.426-4.328,4.426
		c-2.389,0-4.326-2.037-4.326-4.426c0-2.388,1.938-4.419,4.327-4.419C25.954,22.668,27.892,24.698,27.892,27.086z"/>
	<path fill="none" stroke="#FFFFFF" stroke-width="0.5" stroke-miterlimit="10" d="M26.003,27.211c0,2.16-1.719,4.145-2.424,4.145
		s-2.476-2.084-2.476-4.244c0-2.161,1.771-4.222,2.476-4.222S26.003,25.05,26.003,27.211z"/>
	<line fill="none" stroke="#FFFFFF" stroke-width="0.5" stroke-miterlimit="10" x1="23.563" y1="22.557" x2="23.564" y2="31.355"/>
	<line fill="none" stroke="#FFFFFF" stroke-width="0.5" stroke-miterlimit="10" x1="19.237" y1="27.086" x2="28.086" y2="27.078"/>
	<line fill="none" stroke="#FFFFFF" stroke-width="0.5" stroke-miterlimit="10" x1="19.753" y1="25.019" x2="27.376" y2="25.017"/>
	<line fill="none" stroke="#FFFFFF" stroke-width="0.5" stroke-miterlimit="10" x1="19.73" y1="29.363" x2="27.354" y2="29.361"/>
</g>
</svg>
