<?xml version="1.0" encoding="utf-8"?>
<svg version="1.1" id="Layer_1" xmlns="http://www.w3.org/2000/svg" xmlns:xlink="http://www.w3.org/1999/xlink" x="0px" y="0px"
	 width="55px" height="55px" viewBox="0 0 55 55" enable-background="new 0 0 55 55" xml:space="preserve">
<path fill="#929292" d="M29.949,52.994c-1.051-2.111-6.304-22.251-24.75-22.251C6.544,37.104,2.85,52.994,29.949,52.994z"/>
<path fill="none" stroke="#999999" stroke-width="0.5" stroke-miterlimit="10" d="M9.267,34.626
	c1.506-0.229,10.432,16.331,16.24,15.722"/>
<rect x="24.824" y="29.313" fill="#767676" stroke="#767676" stroke-miterlimit="10" width="4.868" height="23.382"/>
<path fill="#AAAAAA" d="M25.417,52.744c1.199-2.104,7.196-22.167,28.25-22.167C52.133,36.914,56.35,52.744,25.417,52.744z"/>
<path fill="none" stroke="#767676" stroke-miterlimit="10" d="M19.25,14.5"/>
<path fill="#888888" d="M25.849,21.606c0-10.641,5.09-13.965,8.59-17.5c4.104,3.821,8.667,9.119,8.667,17.44L25.849,21.606z"/>
<path fill="#888888" d="M12.09,21.606c0-10.641,5.09-13.965,8.59-17.5c4.104,3.821,8.667,9.119,8.667,17.44L12.09,21.606z"/>
<path fill="#AAAAAA" d="M28.307,31.887c1.043,0,10.142-22.012,10.414-27.387C57.447,20.608,34.407,31.887,28.307,31.887z"/>
<path fill="#AAAAAA" d="M26.876,31.887c-1.043,0-10.142-22.012-10.414-27.387C-2.265,20.608,20.775,31.887,26.876,31.887z"/>
<path fill="#CCCCCC" d="M27.462,32.21c-8.769-6.48-8.552-11.504-8.552-12.958c0-10.641,5.09-13.965,8.59-17.5
	c4.104,3.821,8.667,9.179,8.667,17.5C35.844,21.74,36.524,26.034,27.462,32.21z"/>
<path fill="none" stroke="#999999" stroke-width="0.5" stroke-miterlimit="10" d="M49.88,35.46
	c-1.507-0.229-12.614,14.662-18.422,14.053"/>
<path fill="none" stroke="#DDDDDD" stroke-width="0.5" stroke-miterlimit="10" d="M26.876,26.833"/>
<path fill="none" stroke="#DDDDDD" stroke-width="0.5" stroke-miterlimit="10" d="M24.438,10.917"/>
<path fill="none" stroke="#999999" stroke-width="1.5" stroke-miterlimit="10" d="M40.25,8.917
	c2.483,6.932-1.029,19.583-7.083,19.583"/>
<path fill="none" stroke="#999999" stroke-width="0.5" stroke-miterlimit="10" d="M19.783,27.334"/>
<path fill="none" stroke="#999999" stroke-width="0.5" stroke-miterlimit="10" d="M13.533,12.167"/>
<path fill="none" stroke="#DDDDDD" stroke-width="2" stroke-miterlimit="10" d="M29.691,7.25c4.527,9.333,1.921,21.25-0.774,21.25"
	/>
<path fill="none" stroke="#999999" stroke-width="1.5" stroke-miterlimit="10" d="M14.338,9.083
	c-2.483,6.932,1.029,19.583,7.083,19.583"/>
<path fill="none" stroke="#DDDDDD" stroke-width="2" stroke-miterlimit="10" d="M25.281,7.568c-4.527,9.334-1.921,21.25,0.774,21.25
	"/>
</svg>
