<?xml version="1.0" encoding="utf-8"?>
<svg version="1.1" id="Layer_1" xmlns="http://www.w3.org/2000/svg" xmlns:xlink="http://www.w3.org/1999/xlink" x="0px" y="0px"
	 width="55px" height="55px" viewBox="0 0 55 55" enable-background="new 0 0 55 55" xml:space="preserve">
<g id="Layer_1_1_">
</g>
<g id="Layer_2" display="none">
</g>
<g id="Layer_3">
	<path fill="none" stroke="#767676" stroke-miterlimit="10" d="M29.25,33.709"/>
	<line fill="none" stroke="#767676" stroke-miterlimit="10" x1="25.209" y1="18.958" x2="23.209" y2="13.208"/>
	<line fill="none" stroke="#767676" stroke-miterlimit="10" x1="14.75" y1="23.333" x2="11" y2="22.417"/>
	<polyline fill="none" stroke="#767676" stroke-miterlimit="10" points="21.083,14.917 22.583,24.208 27.639,24.852 	"/>
	<line fill="none" stroke="#767676" stroke-miterlimit="10" x1="35.248" y1="28.063" x2="42.333" y2="25.875"/>
	<line fill="none" stroke="#767676" stroke-miterlimit="10" x1="19.167" y1="26.583" x2="16.792" y2="14.333"/>
	<polygon fill="#767676" stroke="#767676" stroke-miterlimit="10" points="27.894,23.224 25.499,30.125 21.333,27.583 
		15.333,23.583 21.333,29.125 24.333,30.959 24.666,33.541 24.499,38.541 24.083,39.532 24.083,46.74 22.333,49.782 22.333,52.782 
		32.667,52.782 30.5,49.782 30.5,48.615 29,44.865 28.25,41.75 28.166,37.959 28.916,35.709 29.666,36.209 31,35.209 32.583,32.209 
		35,29.125 35.75,25.917 31.791,30.959 30,27.292 26.138,19.833 28.916,27.875 30.333,31.709 29.25,33.709 28.166,34.541 
		26.833,31.709 27.499,27.875 30.146,18.146 	"/>
	<polyline fill="none" stroke="#767676" stroke-miterlimit="10" points="35.75,25.917 36.416,24.875 33.584,13.75 	"/>
	<line fill="none" stroke="#767676" stroke-miterlimit="10" x1="30.146" y1="18.146" x2="29.834" y2="11.75"/>
	<polygon fill="#CCCCCC" stroke="#767676" stroke-miterlimit="10" points="3.333,25.021 2.083,22.875 2.083,21.5 7.333,20.167 
		4.75,18.958 3.833,17.386 6.833,14.917 9,13.208 13.917,14.333 13.917,20.167 12.875,22.083 14.75,21.5 16.792,23.846 
		15.333,27.833 12.875,27.333 11,28.417 9,28.5 6.917,29.5 5.75,28.083 5.667,25.021 	"/>
	<polyline fill="#CCCCCC" stroke="#767676" stroke-miterlimit="10" points="32.292,16.768 32.709,12.375 31.126,11.208 	"/>
	<polygon fill="#CCCCCC" stroke="#767676" stroke-miterlimit="10" points="35.75,34.541 36.833,32.541 35.75,30.75 31.666,32.959 
		31.988,35.543 34.666,37.146 36.416,36.291 	"/>
	<polyline fill="#CCCCCC" stroke="#767676" stroke-miterlimit="10" points="26.688,22.094 30.667,26.969 33.584,25.074 
		39.166,25.875 38.834,18.958 43.417,18.363 45.084,13.75 41.167,11.75 41.667,7.667 39.167,4.583 34.667,5.5 31.491,7.408 
		30.325,10.408 	"/>
	<polyline fill="#CCCCCC" stroke="#767676" stroke-miterlimit="10" points="31.126,11.208 27.25,7.791 23.292,7.625 20.625,7.539 
		18.375,8.747 15.694,7.208 13.417,7.083 14.458,9.497 16.042,11.75 15.333,13.208 13.709,14.916 13.709,20.071 17.697,22.875 
		20.958,25.917 24.209,26.583 28.875,24.031 	"/>
	<polygon fill="#CCCCCC" stroke="#767676" stroke-miterlimit="10" points="49.334,25.021 49.25,29.063 43.667,32.083 41.75,29.917 
		38.167,31.667 36.833,28.667 36.416,20.531 40.875,17.688 45.5,16.768 47.938,18.958 47.813,20.813 49.813,22.875 	"/>
</g>
</svg>
