<?xml version="1.0" encoding="utf-8"?>
<svg version="1.1" id="Layer_1" xmlns="http://www.w3.org/2000/svg" xmlns:xlink="http://www.w3.org/1999/xlink" x="0px" y="0px"
	 width="55px" height="55px" viewBox="0 0 55 55" enable-background="new 0 0 55 55" xml:space="preserve">
<rect x="21.481" y="43.911" fill="#CCCCCC" stroke="#CCCCCC" stroke-miterlimit="10" width="12.038" height="6.158"/>
<g id="Layer_3">
	<rect x="2.611" y="13.109" fill="none" width="49.778" height="29.246"/>
	
		<rect x="1.638" y="11.943" fill="#FFFFFF" stroke="#767676" stroke-width="2" stroke-miterlimit="10" width="51.724" height="31.113"/>
</g>
<g>
	<g enable-background="new    ">
		<path fill="#767676" d="M3.7,26.889c0.147-0.726,0.223-1.088,0.372-1.818c1.699-0.792,3.01-1.732,3.94-2.797
			c0.481-0.015,0.72-0.021,1.199-0.034c-0.848,4.337-1.272,6.482-2.12,10.725c-0.795-0.024-1.189-0.033-1.983-0.059
			c0.584-2.891,0.876-4.344,1.463-7.28c-0.412,0.283-0.886,0.54-1.424,0.772C4.607,26.626,4.125,26.792,3.7,26.889z"/>
		<path fill="#767676" d="M13.563,25.592c-0.773-0.116-1.158-0.174-1.929-0.287c0.157-1.01,0.519-1.79,1.089-2.343
			c0.569-0.553,1.281-0.848,2.137-0.872c0.939-0.029,1.679,0.228,2.211,0.778c0.535,0.55,0.801,1.268,0.801,2.141
			c0,0.444-0.081,0.887-0.248,1.337c-0.165,0.449-0.435,0.918-0.81,1.405c-0.268,0.348-0.713,0.836-1.326,1.458
			c-0.613,0.621-1.017,1.04-1.215,1.265c-0.2,0.226-0.394,0.468-0.577,0.716c1.395,0.026,2.094,0.041,3.489,0.068
			c-0.149,0.798-0.224,1.19-0.371,1.986c-2.446-0.073-3.67-0.108-6.115-0.184c0.063-0.522,0.209-1.023,0.435-1.498
			c0.228-0.478,0.509-0.92,0.848-1.332c0.339-0.413,0.962-1.078,1.858-2.009c0.677-0.703,1.108-1.176,1.283-1.391
			c0.32-0.395,0.541-0.739,0.66-1.028c0.12-0.288,0.18-0.55,0.18-0.784c0-0.373-0.098-0.673-0.298-0.903
			c-0.199-0.227-0.453-0.337-0.759-0.332c-0.312,0.007-0.585,0.143-0.818,0.407C13.856,24.45,13.682,24.918,13.563,25.592z"/>
		<path fill="#767676" d="M18.575,29.623c0-1.13,0.168-2.28,0.514-3.447c0.419-1.424,0.961-2.501,1.619-3.216
			s1.389-1.09,2.197-1.113c0.813-0.025,1.485,0.296,2.007,0.965c0.523,0.669,0.786,1.662,0.786,2.971
			c0,1.194-0.191,2.461-0.573,3.784c-0.382,1.33-0.899,2.33-1.549,3.014c-0.648,0.69-1.381,1.016-2.196,0.992
			c-0.813-0.024-1.485-0.379-2.015-1.057C18.839,31.837,18.575,30.876,18.575,29.623z M20.51,30.093c0,0.612,0.086,1.044,0.26,1.299
			c0.173,0.25,0.396,0.379,0.671,0.383c0.366,0.009,0.693-0.175,0.977-0.557c0.378-0.511,0.715-1.531,1.008-3.06
			c0.234-1.21,0.351-2.179,0.351-2.888c0-0.581-0.088-0.996-0.264-1.247c-0.176-0.251-0.401-0.373-0.676-0.366
			c-0.348,0.006-0.656,0.206-0.926,0.588c-0.396,0.561-0.746,1.539-1.03,2.924C20.631,28.362,20.51,29.334,20.51,30.093z"/>
		<path fill="#767676" d="M33.001,28.298c-1.559-0.006-2.337-0.006-3.893-0.01c-0.377,2.123-0.56,3.178-0.938,5.279
			c-0.828-0.025-1.245-0.029-2.075-0.052c0.844-4.663,1.265-7.023,2.109-11.782c0.826-0.023,1.24-0.036,2.065-0.061
			c-0.322,1.858-0.489,2.78-0.811,4.621c1.56-0.01,2.338-0.015,3.895-0.026c0.324-1.878,0.486-2.818,0.816-4.71
			c0.827-0.023,1.24-0.041,2.065-0.062c-0.838,4.946-1.261,7.396-2.102,12.253c-0.826-0.029-1.243-0.042-2.073-0.064
			C32.439,31.537,32.624,30.466,33.001,28.298z"/>
		<path fill="#767676" d="M35.869,33.793c0.113-0.646,0.172-0.972,0.283-1.62c1.598-2.128,2.4-3.21,3.995-5.422
			c-1.302,0.006-1.953,0.011-3.262,0.02c0.13-0.757,0.193-1.135,0.319-1.895c2.291-0.031,3.435-0.047,5.718-0.079
			c-0.092,0.593-0.14,0.888-0.236,1.484c-1.61,2.292-2.417,3.419-4.027,5.631c1.402,0.025,2.1,0.033,3.501,0.064
			c-0.134,0.801-0.199,1.194-0.332,1.993C39.445,33.895,38.255,33.861,35.869,33.793z"/>
	</g>
</g>
<path fill="none" stroke="#AAAAAA" stroke-miterlimit="10" d="M41.219,21.844h8.185c0.662,0,2.896,0,1.379,0l0,0
	c1.244,0-0.717,0-1.379,0h-8.642"/>
<path fill="none" stroke="#AAAAAA" stroke-miterlimit="10" d="M44.489,24.798h5.527c0.451,0,1.962,0,0.936,0l0,0
	c0.842,0-0.484,0-0.936,0h-5.84"/>
<path fill="none" stroke="#AAAAAA" stroke-miterlimit="10" d="M44.7,27.663h4.822c0.39,0,1.706,0,0.813,0l0,0
	c0.731,0-0.423,0-0.813,0h-5.094"/>
<path fill="none" stroke="#AAAAAA" stroke-miterlimit="10" d="M43.153,33.573h4.034c0.324,0,1.431,0,0.681,0l0,0
	c0.612,0-0.356,0-0.681,0h-4.265"/>
<path fill="none" stroke="#AAAAAA" stroke-miterlimit="10" d="M44.031,30.512h4.484c0.364,0,1.589,0,0.757,0l0,0
	c0.682,0-0.396,0-0.757,0h-4.733"/>
</svg>
