<?xml version="1.0" encoding="utf-8"?>
<!-- Generator: Adobe Illustrator 16.0.0, SVG Export Plug-In . SVG Version: 6.00 Build 0)  -->
<!DOCTYPE svg PUBLIC "-//W3C//DTD SVG 1.1//EN" "http://www.w3.org/Graphics/SVG/1.1/DTD/svg11.dtd">
<svg version="1.1" id="Layer_2" xmlns="http://www.w3.org/2000/svg" xmlns:xlink="http://www.w3.org/1999/xlink" x="0px" y="0px"
	 width="55px" height="55px" viewBox="0 0 55 55" enable-background="new 0 0 55 55" xml:space="preserve">
<rect x="4.704" y="10.928" fill="#FFFFFF" width="5.367" height="4.25"/>
<polygon fill="#929191" stroke="#7D7D7D" stroke-width="2" stroke-miterlimit="10" points="31.479,25.162 30.107,26.894 
	3.845,26.831 2.395,25.018 2.395,8.9 3.918,6.94 30.029,6.94 31.479,8.9 "/>
<rect x="4.704" y="15.065" fill="#FFFFFF" width="5.367" height="3.56"/>
<rect x="4.704" y="20.253" fill="#FFFFFF" width="5.367" height="3.56"/>
<rect x="4.704" y="9.818" fill="#FFFFFF" width="5.367" height="3.56"/>
<rect x="24.176" y="15.065" fill="#FFFFFF" width="5.367" height="3.56"/>
<rect x="24.176" y="20.253" fill="#FFFFFF" width="5.367" height="3.56"/>
<rect x="24.176" y="9.818" fill="#FFFFFF" width="5.367" height="3.56"/>
<g>
	
		<ellipse transform="matrix(0.9063 0.4227 -0.4227 0.9063 18.7887 -17.0015)" fill="none" stroke="#7D7D7D" stroke-width="1.5" stroke-miterlimit="10" cx="47.731" cy="33.866" rx="4.154" ry="4.187"/>
	
		<ellipse transform="matrix(0.9063 0.4227 -0.4227 0.9063 14.6166 -18.2428)" fill="none" stroke="#7D7D7D" stroke-width="1.5" stroke-miterlimit="10" cx="48.444" cy="23.838" rx="4.154" ry="4.187"/>
	
		<ellipse transform="matrix(0.9063 0.4226 -0.4226 0.9063 14.613 -18.2402)" fill="none" stroke="#7D7D7D" stroke-width="1.5" stroke-miterlimit="10" cx="48.445" cy="23.838" rx="1.95" ry="1.861"/>
	
		<ellipse transform="matrix(0.9064 0.4224 -0.4224 0.9064 18.7734 -16.9928)" fill="none" stroke="#7D7D7D" stroke-width="1.5" stroke-miterlimit="10" cx="47.731" cy="33.866" rx="1.951" ry="1.859"/>
	
		<ellipse transform="matrix(0.9063 0.4226 -0.4226 0.9063 14.5721 -18.2371)" fill="none" stroke="#CCCCCC" stroke-width="2" stroke-miterlimit="10" cx="48.415" cy="23.745" rx="3.025" ry="2.866"/>
	
		<ellipse transform="matrix(0.9063 0.4226 -0.4226 0.9063 18.7846 -16.9992)" fill="none" stroke="#CCCCCC" stroke-width="2" stroke-miterlimit="10" cx="47.731" cy="33.866" rx="3.022" ry="2.866"/>
	<polyline fill="none" stroke="#7D7D7D" stroke-width="1.5" stroke-miterlimit="10" points="44.301,23.525 37.986,26.159 
		23.836,19.561 20.635,21.07 21.363,23.205 31.59,27.938 21.119,31.048 19.723,32.157 19.525,32.579 20.69,33.856 20.879,34.237 
		24.184,34.933 36.348,30.618 43.574,33.979 	"/>
	<polyline fill="none" stroke="#7D7D7D" stroke-width="1.5" stroke-miterlimit="10" points="44.406,31.169 38.664,28.491 
		39.518,27.528 44.652,25.573 	"/>
	<line fill="none" stroke="#CCCCCC" stroke-width="2.3" stroke-miterlimit="10" x1="44.307" y1="32.714" x2="35.104" y2="28.423"/>
	<line fill="none" stroke="#CCCCCC" stroke-width="1.3" stroke-miterlimit="10" x1="45.578" y1="24.121" x2="34.914" y2="28.663"/>
	<line fill="none" stroke="#CCCCCC" stroke-width="1.3" stroke-miterlimit="10" x1="37.352" y1="29.026" x2="37.189" y2="27.249"/>
	<polygon fill="#CCCCCC" stroke="#CCCCCC" stroke-width="1.3" stroke-miterlimit="10" points="37.688,27.128 38.268,27.495 
		35.963,29.685 34.996,30.036 24.027,33.956 21.808,33.524 20.879,32.567 21.799,31.952 22.142,31.864 34.262,28.165 22.094,22.355 
		21.931,21.675 23.769,20.639 	"/>
</g>
<polygon fill="#929191" stroke="#7D7D7D" stroke-width="2" stroke-miterlimit="10" points="31.479,46.329 30.107,48.061 
	3.845,47.998 2.395,46.185 2.395,30.067 3.918,28.107 30.029,28.107 31.479,30.067 "/>
<rect x="4.704" y="36.232" fill="#FFFFFF" width="5.367" height="3.56"/>
<rect x="4.704" y="41.42" fill="#FFFFFF" width="5.367" height="3.56"/>
<rect x="4.704" y="30.985" fill="#FFFFFF" width="5.367" height="3.56"/>
<rect x="24.176" y="36.232" fill="#FFFFFF" width="5.367" height="3.56"/>
<rect x="24.176" y="41.42" fill="#FFFFFF" width="5.367" height="3.56"/>
<rect x="24.176" y="30.985" fill="#FFFFFF" width="5.367" height="3.56"/>
</svg>
