<?xml version="1.0" encoding="utf-8"?>
<!-- Generator: Adobe Illustrator 16.0.0, SVG Export Plug-In . SVG Version: 6.00 Build 0)  -->
<!DOCTYPE svg PUBLIC "-//W3C//DTD SVG 1.1//EN" "http://www.w3.org/Graphics/SVG/1.1/DTD/svg11.dtd">
<svg version="1.1" id="Layer_2" xmlns="http://www.w3.org/2000/svg" xmlns:xlink="http://www.w3.org/1999/xlink" x="0px" y="0px"
	 width="55px" height="55px" viewBox="0 0 55 55" enable-background="new 0 0 55 55" xml:space="preserve">
<polygon fill="#FFFFFF" stroke="#7D7D7D" stroke-width="2" stroke-miterlimit="10" points="11,47.667 49.667,43 46.084,13.5 
	6.167,19.5 "/>
<polyline fill="#CCCCCC" stroke="#7D7D7D" stroke-width="2" stroke-miterlimit="10" points="32.5,0.917 36.75,30.501 18.583,31.75 
	13.167,1.333 "/>
<polygon fill="#E2E2E2" stroke="#AFAFAF" stroke-miterlimit="10" points="24.979,44.125 24.667,47.563 23.097,47.42 22.594,43.938 
	22.208,43.212 21.542,36.135 22.958,32.468 32.708,31.545 36.792,36.212 37.208,45.167 35.542,45.458 34.313,43.188 33.918,51.479 
	32.906,51.75 31.804,51.376 31.973,44.131 30.813,44.203 30.563,48.608 28.965,48.495 28.71,44.511 28.021,44.563 27.559,48.356 
	25.875,48.313 25.875,44.333 "/>
</svg>
