<?xml version="1.0" encoding="utf-8"?>
<svg version="1.1" id="Layer_2" xmlns="http://www.w3.org/2000/svg" xmlns:xlink="http://www.w3.org/1999/xlink" x="0px" y="0px"
	 width="55px" height="55px" viewBox="0 0 55 55" enable-background="new 0 0 55 55" xml:space="preserve">
<circle fill="#7D7D7D" stroke="#7D7D7D" stroke-width="2" stroke-miterlimit="10" cx="27.501" cy="27.542" r="18.584"/>
<path fill="none" stroke="#FFFFFF" stroke-width="2" stroke-miterlimit="10" d="M43.766,27.53c0,8.982-7.283,16.637-16.266,16.637
	S11.236,36.513,11.236,27.53s7.282-16.614,16.265-16.614C36.482,10.917,43.766,18.548,43.766,27.53z"/>
<path fill="none" stroke="#FFFFFF" stroke-width="2" stroke-miterlimit="10" d="M36.667,28c0,8.123-6.461,15.583-9.11,15.583
	c-2.65,0-9.307-7.835-9.307-15.958c0-8.124,6.656-15.875,9.307-15.875C30.206,11.75,36.667,19.876,36.667,28z"/>
<line fill="none" stroke="#FFFFFF" stroke-width="2" stroke-miterlimit="10" x1="27.5" y1="10.5" x2="27.501" y2="43.583"/>
<line fill="none" stroke="#FFFFFF" stroke-width="2" stroke-miterlimit="10" x1="11.236" y1="27.53" x2="44.5" y2="27.5"/>
<line fill="none" stroke="#FFFFFF" stroke-width="2" stroke-miterlimit="10" x1="13.172" y1="19.756" x2="41.829" y2="19.749"/>
<line fill="none" stroke="#FFFFFF" stroke-width="2" stroke-miterlimit="10" x1="13.088" y1="36.092" x2="41.745" y2="36.085"/>
</svg>
