<?xml version="1.0" encoding="utf-8"?>
<!-- Generator: Adobe Illustrator 16.0.0, SVG Export Plug-In . SVG Version: 6.00 Build 0)  -->
<!DOCTYPE svg PUBLIC "-//W3C//DTD SVG 1.1//EN" "http://www.w3.org/Graphics/SVG/1.1/DTD/svg11.dtd">
<svg version="1.1" xmlns="http://www.w3.org/2000/svg" xmlns:xlink="http://www.w3.org/1999/xlink" x="0px" y="0px" width="55px"
	 height="55px" viewBox="0 0 55 55" enable-background="new 0 0 55 55" xml:space="preserve">
<g id="Layer_3">
	
		<rect x="16.395" y="4.389" fill="#FFFFFF" stroke="#7D7D7D" stroke-width="1.7" stroke-miterlimit="10" width="34.048" height="46.22"/>
	<path fill="none" stroke="#CCCCCC" stroke-width="2" stroke-miterlimit="10" d="M31.707,13.9"/>
	<path fill="none" stroke="#CCCCCC" stroke-width="2" stroke-miterlimit="10" d="M21.721,13.9"/>
	<g id="Rectangle_6_1_">
		<g>
			<rect x="20.865" y="8.383" fill="#CCCCCC" width="14.836" height="2.283"/>
		</g>
	</g>
	<g id="Rectangle_6_copy_1_">
		<g>
			<rect x="20.865" y="12.759" fill="#CCCCCC" width="25.107" height="2.282"/>
		</g>
	</g>
	<g id="Rectangle_6_copy_2_1_">
		<g>
			<rect x="20.865" y="18.051" fill="#CCCCCC" width="25.107" height="2.282"/>
		</g>
	</g>
	<g id="Rectangle_6_copy_3_1_">
		<g>
			<rect x="20.865" y="23.055" fill="#CCCCCC" width="25.107" height="2.282"/>
		</g>
	</g>
	<g id="Rectangle_6_copy_2_">
		<g>
			<rect x="20.865" y="27.5" fill="#CCCCCC" width="25.107" height="2.282"/>
		</g>
	</g>
	<g id="Rectangle_6_copy_2_2_">
		<g>
			<rect x="20.865" y="32.791" fill="#CCCCCC" width="25.107" height="2.283"/>
		</g>
	</g>
	<g id="Rectangle_6_copy_3_2_">
		<g>
			<rect x="20.865" y="37.795" fill="#CCCCCC" width="25.107" height="2.283"/>
		</g>
	</g>
	<g id="Rectangle_6_copy_2_3_">
		<g>
			<rect x="20.865" y="43.1" fill="#CCCCCC" width="25.107" height="2.283"/>
		</g>
	</g>
</g>
<g id="Layer_2">
	<circle fill="#7D7D7D" stroke="#7D7D7D" stroke-width="2" stroke-miterlimit="10" cx="23.895" cy="29.017" r="19.338"/>
	<path fill="none" stroke="#FFFFFF" stroke-width="2" stroke-miterlimit="10" d="M40.82,29.004c0,9.348-7.579,17.313-16.926,17.313
		c-9.348,0-16.924-7.963-16.924-17.313c0-9.347,7.578-17.288,16.925-17.288C33.241,11.717,40.82,19.658,40.82,29.004z"/>
	<path fill="none" stroke="#FFFFFF" stroke-width="2" stroke-miterlimit="10" d="M33.434,29.494c0,8.453-6.724,16.215-9.48,16.215
		c-2.757,0-9.685-8.152-9.685-16.605c0-8.454,6.927-16.52,9.685-16.52C26.71,12.584,33.434,21.04,33.434,29.494z"/>
	<line fill="none" stroke="#FFFFFF" stroke-width="2" stroke-miterlimit="10" x1="23.894" y1="11.283" x2="23.895" y2="45.709"/>
	<line fill="none" stroke="#FFFFFF" stroke-width="2" stroke-miterlimit="10" x1="6.97" y1="29.004" x2="41.585" y2="28.975"/>
	<line fill="none" stroke="#FFFFFF" stroke-width="2" stroke-miterlimit="10" x1="8.984" y1="20.915" x2="38.806" y2="20.908"/>
	<line fill="none" stroke="#FFFFFF" stroke-width="2" stroke-miterlimit="10" x1="8.897" y1="37.914" x2="38.718" y2="37.906"/>
</g>
</svg>
