<?xml version="1.0" encoding="utf-8"?>
<!-- Generator: Adobe Illustrator 16.0.0, SVG Export Plug-In . SVG Version: 6.00 Build 0)  -->
<!DOCTYPE svg PUBLIC "-//W3C//DTD SVG 1.1//EN" "http://www.w3.org/Graphics/SVG/1.1/DTD/svg11.dtd">
<svg version="1.1" id="Layer_1" xmlns="http://www.w3.org/2000/svg" xmlns:xlink="http://www.w3.org/1999/xlink" x="0px" y="0px"
	 width="55px" height="55px" viewBox="0 0 55 55" enable-background="new 0 0 55 55" xml:space="preserve">
<path fill="#CCCCCC" stroke="#767676" stroke-miterlimit="10" d="M1.082,44.695c0.022-9.371,0-24.573,0-32.708
	c0-2.485,1.797-3.138,3.279-3.138c8.463,0,32.298-0.251,45.07-0.016c3.953,0.072,4.487,0.317,4.332,4.855
	c-0.281,7.974,0.179,20.917,0.124,27.733c-0.022,2.416,0.664,4.4-3.337,4.557c-10.148,0.393-35.846-0.098-45.954,0.281
	C1.076,46.391,1.082,44.695,1.082,44.695z"/>
<path fill="none" stroke="#767676" stroke-miterlimit="10" d="M45.098,13.895"/>
<path fill="none" stroke="#767676" stroke-miterlimit="10" d="M48.41,13.895"/>
<path fill="none" stroke="#767676" stroke-miterlimit="10" d="M48.41,15.727"/>
<path fill="none" stroke="#767676" stroke-miterlimit="10" d="M48.41,13.895"/>
<g>
	<path fill="#FFFFFF" stroke="#FFFFFF" stroke-miterlimit="10" d="M4.465,42.119c0.018-7.938,0-20.819,0-27.711
		c0-2.105,1.572-2.661,2.871-2.661c7.408,0,29.039-0.199,40.225,0c3.457,0.06,3.163,0.166,3.017,4.101
		c-0.245,6.757,0.156,17.721,0.107,23.502c-0.021,2.046,0.582,3.723-2.917,3.859c-8.883,0.34-31.38-0.082-40.226,0.235
		C4.457,43.563,4.465,42.119,4.465,42.119z"/>
	<line fill="none" stroke="#767676" stroke-width="1.5" stroke-miterlimit="10" x1="5.786" y1="41.754" x2="48.977" y2="13.351"/>
	<polyline fill="none" stroke="#767676" stroke-width="1.5" stroke-miterlimit="10" points="14.265,41.754 5.786,41.754 
		10.017,32.8 	"/>
	<polyline fill="none" stroke="#767676" stroke-width="1.5" stroke-miterlimit="10" points="40.495,13.158 48.977,13.158 
		44.743,22.112 	"/>
</g>
</svg>
