<?xml version="1.0" encoding="utf-8"?>
<svg version="1.1" id="Layer_2" xmlns="http://www.w3.org/2000/svg" xmlns:xlink="http://www.w3.org/1999/xlink" x="0px" y="0px"
	 width="55px" height="55px" viewBox="0 0 55 55" enable-background="new 0 0 55 55" xml:space="preserve">
<g>
	<polygon fill="#929191" stroke="#7D7D7D" stroke-width="2" stroke-miterlimit="10" points="45.535,44.286 43.703,47.138 
		8.636,47.034 6.7,44.046 6.7,17.506 8.734,14.278 43.6,14.278 45.535,17.506 	"/>
	<rect x="9.283" y="18.451" fill="#FFFFFF" width="7.167" height="5.74"/>
	<rect x="9.284" y="27.836" fill="#FFFFFF" width="7.166" height="5.739"/>
	<rect x="9.284" y="36.446" fill="#FFFFFF" width="7.166" height="5.74"/>
	<rect x="35.783" y="18.451" fill="#FFFFFF" width="7.167" height="5.74"/>
	<rect x="35.783" y="27.836" fill="#FFFFFF" width="7.166" height="5.739"/>
	<rect x="35.783" y="36.446" fill="#FFFFFF" width="7.166" height="5.74"/>
</g>
<g>
	<polygon fill="#CCCCCC" stroke="#767676" stroke-miterlimit="10" points="42.395,17.414 47.115,22.578 34.59,35.681 28.518,38.352 
		28.203,38.089 29.797,31.393 	"/>
	<polygon fill="#CCCCCC" stroke="#767676" stroke-miterlimit="10" points="43.358,16.147 48.266,21.454 50.035,19.466 
		45.221,14.278 	"/>
	<polygon fill="#CCCCCC" stroke="#767676" stroke-miterlimit="10" points="50.963,18.284 52.467,15.613 49.102,12.136 
		46.363,13.426 	"/>
	<polygon fill="#767676" points="34.264,35.538 28.678,38.036 30.049,31.888 	"/>
</g>
</svg>
