<?xml version="1.0" encoding="utf-8"?>
<!-- Generator: Adobe Illustrator 16.0.0, SVG Export Plug-In . SVG Version: 6.00 Build 0)  -->
<!DOCTYPE svg PUBLIC "-//W3C//DTD SVG 1.1//EN" "http://www.w3.org/Graphics/SVG/1.1/DTD/svg11.dtd">
<svg version="1.1" id="Layer_1" xmlns="http://www.w3.org/2000/svg" xmlns:xlink="http://www.w3.org/1999/xlink" x="0px" y="0px"
	 width="55px" height="55px" viewBox="0 0 55 55" enable-background="new 0 0 55 55" xml:space="preserve">
<g id="Layer_1_1_">
	<polygon fill="#CCCCCC" stroke="#767676" stroke-miterlimit="10" points="14.417,12.042 12.792,11.79 9.961,15.042 9.961,18.417 
		12.375,19.257 11.208,21.499 9.75,23.375 10.375,25.313 10.905,27.938 12.739,28.896 16.5,29.188 14.438,30.875 13.995,32.973 
		15.129,35.084 17.921,34.625 20.208,32.915 21.088,35.25 22.671,35.417 23.879,34.75 25.002,33.417 29.253,33.417 30.117,33.417 
		30.711,33.959 32.378,35.167 33.875,35.96 35.229,35.73 36.292,34.669 35.836,31.875 37.586,33.125 39.686,33.889 40.628,33.417 
		42.211,32.542 44.294,30.25 43.523,26.875 40.617,25.625 43.461,24.188 45.117,22.594 45.773,21.039 45.669,19.042 45.773,18.188 
		43.055,16.188 40.525,16.466 42.898,13.688 42.898,10.75 41.982,9.996 41.086,8.188 39.878,7.912 37.295,6.829 35.961,6.996 
		35.292,8.374 33.958,5.874 33.016,4.493 31.458,3.415 29.961,2.701 27.439,3.201 26.5,4.06 25.458,6.874 23.333,5.374 
		19.625,4.249 17.466,5.398 15.958,7.415 15.75,8.79 14.461,10.249 15.669,11.458 	"/>
</g>
<g id="Layer_2">
	<polygon fill="#767676" stroke="#767676" stroke-miterlimit="10" points="25.063,49.125 25.75,46.281 25.688,33.417 29.417,33.417 
		29.417,46.333 30.063,48.75 32.125,51.917 23.083,51.917 	"/>
</g>
</svg>
