<?xml version="1.0" encoding="utf-8"?>
<!-- Generator: Adobe Illustrator 16.0.0, SVG Export Plug-In . SVG Version: 6.00 Build 0)  -->
<!DOCTYPE svg PUBLIC "-//W3C//DTD SVG 1.1//EN" "http://www.w3.org/Graphics/SVG/1.1/DTD/svg11.dtd">
<svg version="1.1" id="Layer_1" xmlns="http://www.w3.org/2000/svg" xmlns:xlink="http://www.w3.org/1999/xlink" x="0px" y="0px"
	 width="55px" height="55px" viewBox="0 0 55 55" enable-background="new 0 0 55 55" xml:space="preserve">
<path d="M7.541,18.617h9.687v0.791H7.541V18.617L7.541,18.617z"/>
<path fill="#767676" d="M2.195,20.604l2.072-2.446h16.708l1.87,2.498L2.195,20.604z"/>
<path fill="#767676" d="M23.271,13.112h8.948v1.663h-8.948V13.112L23.271,13.112z"/>
<path d="M37.83,18.565h9.688v0.79H37.83V18.565L37.83,18.565z"/>
<path fill="#767676" d="M32.484,20.553l2.072-2.445h16.707l1.867,2.498L32.484,20.553z"/>
<rect x="34.549" y="7.282" fill="#CCCCCC" stroke="#767676" stroke-miterlimit="10" width="16.602" height="10.019"/>
<path d="M22.768,47.287h9.688v0.791h-9.688V47.287L22.768,47.287z"/>
<path fill="#767676" d="M17.42,49.275l2.072-2.447H36.2l1.868,2.5L17.42,49.275z"/>
<path fill="#767676" d="M35.076,32.428l4.373-8.277l1.338,0.831l-4.375,8.278L35.076,32.428L35.076,32.428z"/>
<path fill="#767676" d="M15.661,24.18l4.471,8.218l-1.337,0.832l-4.47-8.223L15.661,24.18L15.661,24.18z"/>
<rect x="4.219" y="7.282" fill="#CCCCCC" stroke="#767676" stroke-miterlimit="10" width="16.601" height="10.019"/>
<rect x="19.446" y="35.906" fill="#CCCCCC" stroke="#767676" stroke-miterlimit="10" width="16.601" height="10.021"/>
<rect x="5.083" y="8.167" fill="#FFFFFF" width="14.75" height="8.25"/>
<rect x="35.475" y="8.167" fill="#FFFFFF" width="14.75" height="8.25"/>
<rect x="20.369" y="36.793" fill="#FFFFFF" width="14.75" height="8.248"/>
</svg>
