<?xml version="1.0" encoding="utf-8"?>
<!-- Generator: Adobe Illustrator 16.0.0, SVG Export Plug-In . SVG Version: 6.00 Build 0)  -->
<!DOCTYPE svg PUBLIC "-//W3C//DTD SVG 1.1//EN" "http://www.w3.org/Graphics/SVG/1.1/DTD/svg11.dtd">
<svg version="1.1" id="Layer_1" xmlns="http://www.w3.org/2000/svg" xmlns:xlink="http://www.w3.org/1999/xlink" x="0px" y="0px"
	 width="55px" height="55px" viewBox="0 0 55 55" enable-background="new 0 0 55 55" xml:space="preserve">
<polygon fill="#999999" stroke="#7D7D7D" stroke-width="2" stroke-miterlimit="10" points="7.625,24.375 9.688,25.938 9.688,48 
	12.563,49.438 43.75,49.438 45.875,46.938 45.875,26.813 43.5,24.375 19.125,24.375 40.375,11.688 40.375,8.438 38.125,4.25 
	34.688,4.25 7.625,20.313 "/>
<polygon fill="#FFFFFF" points="18.082,21.5 12.75,24.833 12.594,20.5 18.082,17.094 "/>
<polygon fill="#FFFFFF" points="27,16.041 21.958,19.166 21.958,15 27,11.844 "/>
<polygon fill="#FFFFFF" points="35.958,10.625 30.917,13.75 30.917,9.656 35.958,6.563 "/>
<polygon fill="#FFFFFF" points="20.5,31.875 14.063,31.875 16.081,27.338 22.496,27.338 "/>
<polygon fill="#FFFFFF" points="30.188,31.875 23.75,31.875 25.768,27.338 32.184,27.338 "/>
<polygon fill="#FFFFFF" points="40.125,31.875 33.688,31.875 35.705,27.338 42.188,27.344 "/>
</svg>
