<?xml version="1.0" encoding="utf-8"?>
<!-- Generator: Adobe Illustrator 16.0.0, SVG Export Plug-In . SVG Version: 6.00 Build 0)  -->
<!DOCTYPE svg PUBLIC "-//W3C//DTD SVG 1.1//EN" "http://www.w3.org/Graphics/SVG/1.1/DTD/svg11.dtd">
<svg version="1.1" id="Layer_1" xmlns="http://www.w3.org/2000/svg" xmlns:xlink="http://www.w3.org/1999/xlink" x="0px" y="0px"
	 width="55px" height="55px" viewBox="0 0 55 55" enable-background="new 0 0 55 55" xml:space="preserve">
<path fill="#999999" d="M30.445,53.328c-1.051-2.111-6.304-22.251-24.75-22.251C7.041,37.438,3.346,53.328,30.445,53.328z"/>
<rect x="24.824" y="29.313" fill="#767676" stroke="#767676" stroke-miterlimit="10" width="4.867" height="23.383"/>
<path fill="none" stroke="#767676" stroke-miterlimit="10" d="M19.25,14.5"/>
<path fill="#727272" d="M25.849,21.606c0-10.641,5.09-13.965,8.59-17.5c4.104,3.821,8.666,9.119,8.666,17.44L25.849,21.606z"/>
<path fill="#727272" d="M12.09,21.606c0-10.641,5.09-13.965,8.59-17.5c4.104,3.821,8.667,9.119,8.667,17.44L12.09,21.606z"/>
<path fill="#BBBBBB" d="M28.066,31.887c1.043,0,10.142-22.012,10.414-27.387C57.207,20.608,34.167,31.887,28.066,31.887z"/>
<path fill="#BBBBBB" d="M26.876,31.887c-1.043,0-10.142-22.012-10.414-27.387C-2.265,20.608,20.775,31.887,26.876,31.887z"/>
<path fill="#BBBBBB" d="M27.462,32.21c-8.769-6.48-8.552-11.504-8.552-12.958c0-10.641,5.09-13.965,8.59-17.5
	c4.104,3.821,8.667,9.179,8.667,17.5C35.844,21.74,36.523,26.034,27.462,32.21z"/>
<path fill="#999999" d="M24.084,53.471c1.199-2.048,7.195-21.584,28.25-21.584C50.8,38.057,55.018,53.471,24.084,53.471z"/>
</svg>
