<?xml version="1.0" encoding="utf-8"?>
<!-- Generator: Adobe Illustrator 16.0.0, SVG Export Plug-In . SVG Version: 6.00 Build 0)  -->
<!DOCTYPE svg PUBLIC "-//W3C//DTD SVG 1.1//EN" "http://www.w3.org/Graphics/SVG/1.1/DTD/svg11.dtd">
<svg version="1.1" id="Layer_1" xmlns="http://www.w3.org/2000/svg" xmlns:xlink="http://www.w3.org/1999/xlink" x="0px" y="0px"
	 width="55px" height="55px" viewBox="0 0 55 55" enable-background="new 0 0 55 55" xml:space="preserve">
<path fill="#CCCCCC" stroke="#767676" stroke-miterlimit="10" d="M3.855,42.891c0.02-8.388,0-21.994,0-29.272
	c0-2.225,1.608-2.809,2.935-2.809c7.574,0,28.907-0.225,40.338-0.014c3.537,0.064,4.017,0.284,3.877,4.345
	c-0.252,7.137,0.16,18.719,0.111,24.821c-0.021,2.162,0.594,3.938-2.988,4.077C39.046,44.393,16.047,43.952,7,44.291
	C3.851,44.407,3.855,42.891,3.855,42.891z"/>
<path fill="none" stroke="#767676" stroke-miterlimit="10" d="M43.25,15.324"/>
<path fill="none" stroke="#767676" stroke-miterlimit="10" d="M46.215,15.324"/>
<path fill="none" stroke="#767676" stroke-miterlimit="10" d="M46.215,16.963"/>
<path fill="none" stroke="#767676" stroke-miterlimit="10" d="M46.215,15.324"/>
<g>
	<path fill="#FFFFFF" stroke="#FFFFFF" stroke-miterlimit="10" d="M6.884,40.008c0.016-6.952,0-18.235,0-24.272
		c0-1.844,1.407-2.331,2.568-2.331c6.627,0,25.976-0.174,35.983,0c3.092,0.052,2.827,0.145,2.697,3.592
		c-0.22,5.919,0.139,15.523,0.096,20.586c-0.019,1.791,0.521,3.261-2.609,3.38c-7.945,0.298-28.069-0.071-35.983,0.207
		C6.877,41.273,6.884,40.008,6.884,40.008z"/>
	<line fill="none" stroke="#767676" stroke-width="1.5" stroke-miterlimit="10" x1="8.066" y1="39.688" x2="46.701" y2="14.81"/>
	<polyline fill="none" stroke="#767676" stroke-width="1.5" stroke-miterlimit="10" points="15.651,39.688 8.066,39.688 
		11.85,31.846 	"/>
	<polyline fill="none" stroke="#767676" stroke-width="1.5" stroke-miterlimit="10" points="39.114,14.64 46.701,14.64 
		42.914,22.484 	"/>
</g>
</svg>
