<?xml version="1.0" encoding="utf-8"?>
<svg version="1.1" id="Layer_1" xmlns="http://www.w3.org/2000/svg" xmlns:xlink="http://www.w3.org/1999/xlink" x="0px" y="0px"
	 width="55px" height="55px" viewBox="0 0 55 55" enable-background="new 0 0 55 55" xml:space="preserve">
<g id="Layer_1_1_">
	<rect x="2.844" y="5.88" fill="#CCCCCC" stroke="#767676" stroke-miterlimit="10" width="45.782" height="25.813"/>
	<g id="Layer_2">
		<path fill="#CCCCCC" stroke="#767676" stroke-miterlimit="10" d="M5.423,32.813C4.505,25.44,2.939,13.085,2.548,6.488
			c-0.118-1.997,1.6-2.527,2.919-2.527c10.686,0,30.751-0.223,38.973-0.086c3.518,0.058,4.271,0.274,5.008,3.983
			c0.992,6.336,2.594,16.651,2.984,22.324c-0.021,1.946,0.594,3.541-2.968,3.668c-9.032,0.321-31.915-0.076-40.912,0.229
			C5.417,34.182,5.423,32.813,5.423,32.813z"/>
	</g>
	<path fill="#FFFFFF" stroke="#FFFFFF" stroke-miterlimit="10" d="M8.829,30.188C7.873,24.169,6.514,14.231,5.954,8.817
		C5.787,7.202,7.322,6.765,8.451,6.765c6.445,0,25.263-0.154,34.99,0c3.011,0.047,1.738,0.131,2.627,3.164
		c1.06,5.367,2.498,13.543,2.97,18.122c-0.019,1.58,0.508,2.875-2.539,2.979c-7.726,0.265-27.298-0.063-34.992,0.185
		C8.822,31.3,8.829,30.188,8.829,30.188z"/>
</g>
<g id="Layer_2_1_">
	<circle fill="#AAAAAA" stroke="#AAAAAA" stroke-miterlimit="10" cx="27.585" cy="20.68" r="2.676"/>
	<path fill="none" stroke="#AAAAAA" stroke-miterlimit="10" d="M23.275,23.168c-1.374-2.38-0.559-5.425,1.821-6.799
		s5.426-0.559,6.8,1.821"/>
	<path fill="none" stroke="#AAAAAA" stroke-miterlimit="10" d="M20.286,24.894c-2.327-4.032-0.947-9.185,3.085-11.513
		c4.03-2.327,9.187-0.947,11.515,3.084"/>
</g>
<g id="Layer_3">
	<polygon fill="#999999" stroke="#999999" stroke-miterlimit="10" points="29.327,41.499 28.005,40.348 27.679,38.884 
		28.874,37.516 31.716,36.389 34.633,36.453 26.53,22.723 26.388,21.26 27.405,20.145 28.67,19.958 29.413,20.289 33.728,27.762 
		36.805,26.715 38.407,28.93 39.413,26.113 40.532,25.854 42.193,28.9 43.013,25.631 44.308,25.267 45.755,26.111 49.761,33.038 
		49.834,37.426 50.089,39.572 52.316,44.537 43.866,49.416 39.426,44.308 36.085,43.063 33.442,41.42 32.003,40.828 	"/>
</g>
</svg>
