<?xml version="1.0" encoding="utf-8"?>
<svg version="1.1" id="Layer_2" xmlns="http://www.w3.org/2000/svg" xmlns:xlink="http://www.w3.org/1999/xlink" x="0px" y="0px"
	 width="55px" height="55px" viewBox="0 0 55 55" enable-background="new 0 0 55 55" xml:space="preserve">
<line fill="none" stroke="#767676" stroke-miterlimit="10" x1="25.953" y1="37.791" x2="50.977" y2="23.231"/>
<g>
	<g>
		<polygon fill="#CCCCCC" stroke="#767676" stroke-miterlimit="10" points="23.018,45.422 23.018,36.273 52.021,19.346 
			27.776,9.578 2.566,23.015 2.403,32.246 		"/>
		<line fill="none" stroke="#767676" stroke-miterlimit="10" x1="2.566" y1="23.015" x2="23.018" y2="36.273"/>
	</g>
	<polygon fill="#CCCCCC" stroke="#767676" stroke-miterlimit="10" points="52.597,20.091 23.799,36.273 23.799,45.422 
		52.597,27.852 	"/>
	<path fill="#FFFFFF" stroke="#767676" stroke-miterlimit="10" d="M52.137,30.783c-0.349,1.939-3.107,4.003-6.081,5.364
		c-3.148,1.439-8.456,2.642-11.991,2.642c-6.731,0-7.222-1.109-7.222-1.109l23.482-13.85C50.324,23.83,52.711,27.597,52.137,30.783z
		"/>
</g>
<line fill="none" stroke="#767676" stroke-miterlimit="10" x1="25.476" y1="38.398" x2="51.564" y2="23.015"/>
</svg>
