<?xml version="1.0" encoding="utf-8"?>
<!-- Generator: Adobe Illustrator 16.0.0, SVG Export Plug-In . SVG Version: 6.00 Build 0)  -->
<!DOCTYPE svg PUBLIC "-//W3C//DTD SVG 1.1//EN" "http://www.w3.org/Graphics/SVG/1.1/DTD/svg11.dtd">
<svg version="1.1" id="Layer_1" xmlns="http://www.w3.org/2000/svg" xmlns:xlink="http://www.w3.org/1999/xlink" x="0px" y="0px"
	 width="55px" height="55px" viewBox="0 0 55 55" enable-background="new 0 0 55 55" xml:space="preserve">
<path fill="#CCCCCC" stroke="#767676" stroke-width="2" stroke-miterlimit="10" d="M42.527,43.664H12.474
	c-0.482,0-0.872-0.38-0.872-0.848l0,0V12.184c0-0.467,0.39-0.848,0.872-0.848l0,0h30.053c0.481,0,0.871,0.381,0.871,0.848v30.632
	C43.398,43.284,43.009,43.664,42.527,43.664"/>
<path fill="#FFFFFF" stroke="#767676" stroke-width="2" stroke-miterlimit="10" d="M37.771,43.557H17.073
	c-0.332,0-0.6-0.192-0.6-0.432l0,0V27.48c0-0.239,0.268-0.433,0.6-0.433l0,0h20.698c0.33,0,0.6,0.194,0.6,0.433l0,0v15.645
	C38.371,43.363,38.104,43.557,37.771,43.557"/>
<path fill="none" stroke="#767676" stroke-width="2" stroke-miterlimit="10" d="M34.795,20.584H21.11
	c-0.293,0-0.531-0.164-0.531-0.367v-8.426c0-0.201,0.238-0.367,0.531-0.367l0,0h13.685c0.295,0,0.533,0.166,0.533,0.367l0,0v8.426
	C35.328,20.42,35.09,20.584,34.795,20.584"/>
<path fill="none" stroke="#767676" stroke-width="2" stroke-miterlimit="10" d="M34.928,20.584H24.831
	c-0.294,0-0.532-0.164-0.532-0.367v-8.426c0-0.201,0.238-0.367,0.532-0.367l0,0h10.097c0.295,0,0.533,0.166,0.533,0.367l0,0v8.426
	C35.461,20.42,35.223,20.584,34.928,20.584"/>
<path fill="#767676" stroke="#767676" stroke-width="2" stroke-miterlimit="10" d="M33.924,19.166h-2.922v-6.037h2.922V19.166z"/>
<line fill="none" stroke="#767676" stroke-width="0.5" stroke-miterlimit="10" x1="35.328" y1="32.085" x2="18.833" y2="32.085"/>
<line fill="none" stroke="#767676" stroke-width="0.5" stroke-miterlimit="10" x1="35.328" y1="36.084" x2="18.833" y2="36.084"/>
<line fill="none" stroke="#767676" stroke-width="0.5" stroke-miterlimit="10" x1="35.327" y1="39.157" x2="18.832" y2="39.157"/>
</svg>
