<?xml version="1.0" encoding="utf-8"?>
<!-- Generator: Adobe Illustrator 16.0.0, SVG Export Plug-In . SVG Version: 6.00 Build 0)  -->
<!DOCTYPE svg PUBLIC "-//W3C//DTD SVG 1.1//EN" "http://www.w3.org/Graphics/SVG/1.1/DTD/svg11.dtd">
<svg version="1.1" id="Layer_1" xmlns="http://www.w3.org/2000/svg" xmlns:xlink="http://www.w3.org/1999/xlink" x="0px" y="0px"
	 width="55px" height="55px" viewBox="0 0 55 55" enable-background="new 0 0 55 55" xml:space="preserve">
<path fill="#FFFFFF" stroke="#767676" stroke-miterlimit="10" d="M23.222,7.827c-1.104,3.036-2.28,5.515-5.368,4.391
	c-3.087-1.123-4.167-4.159-3.062-7.193c1.318-3.622,4.295-3.966,6.548-2.682C23.662,3.664,24.327,4.793,23.222,7.827z"/>
<path fill="#FFFFFF" stroke="#767676" stroke-miterlimit="10" d="M17.888,13.107c-1.972,0.351-3.459,0.882-4.58,2.795
	c-1.006,1.72-1.004,3.476-1.024,5.454c-0.023,2.32-0.064,4.903-0.034,7.277c0.027,2.123-0.043,4.961,0.994,6.601
	c0.497,0.786,0.526,0.78,1.116,1.324c1.039,0.958,1.59,1.288,2.724,1.556c3.239,0.764,6.125,0.717,9.365,0.714
	c1.133-0.001,1.044,0.135,1.284,1.245c0.249,1.159,1.569,9.406,1.868,10.935c0.398,2.038,3.055,2.154,4.883,1.537
	c1.129-1.464,0.623-2.66,0.525-4.105c-0.07-1.033-1.218-6.311-1.54-9.233c-0.141-1.289-0.322-2.84-0.813-4.034
	c-0.413-1.002-0.875-1.239-2.044-1.285c-1.236-0.051-2.347-0.063-3.58-0.155c-0.452-0.035-1.582,0.058-2.023-0.156
	c-0.578-0.28-1.596,0.096-1.673-0.583c-0.104-0.904-1.408-2.773-1.381-3.678c1.119-0.309,4.085,1.013,5.155,1.382
	c-0.031,1.33,0.31,2.737,2.226,2.413c0.813-0.138,1.973-1.176,2.425-1.808c0.806-1.127,1.571-3.928-0.097-4.342
	c-0.8-0.197-2.008,0.102-2.831-0.094c-0.938-0.225-2.439-0.238-3.226-0.839c-0.669-0.512-1.143-1.67-1.579-2.41
	c-0.342-0.578-0.292-0.635-0.376-1.309c-0.136-1.088-0.156-2.126-0.234-3.216c-0.102-1.412-0.435-3.626-1.51-4.576
	c-1.086-0.959-2.74-1.451-4.175-1.409"/>
<path fill="#CCCCCC" stroke="#767676" stroke-miterlimit="10" d="M44.441,22.186c0.146-0.312-0.074-0.721-0.491-0.916l0,0
	c-0.419-0.194-0.873-0.1-1.02,0.211l-4.209,9.029c-0.146,0.312,0.073,0.722,0.491,0.915l0,0c0.418,0.195,0.874,0.103,1.019-0.21
	L44.441,22.186z"/>
<path fill="none" stroke="#767676" stroke-miterlimit="10" d="M38.5,32c0,0.276-0.224,0.5-0.5,0.5H26c-0.276,0-0.5-0.224-0.5-0.5
	l0,0c0-0.276,0.224-0.5,0.5-0.5h12C38.276,31.5,38.5,31.724,38.5,32L38.5,32z"/>
</svg>
