<?xml version="1.0" encoding="utf-8"?>
<!-- Generator: Adobe Illustrator 16.0.0, SVG Export Plug-In . SVG Version: 6.00 Build 0)  -->
<!DOCTYPE svg PUBLIC "-//W3C//DTD SVG 1.1//EN" "http://www.w3.org/Graphics/SVG/1.1/DTD/svg11.dtd">
<svg version="1.1" id="Layer_1" xmlns="http://www.w3.org/2000/svg" xmlns:xlink="http://www.w3.org/1999/xlink" x="0px" y="0px"
	 width="55px" height="55px" viewBox="0 0 55 55" enable-background="new 0 0 55 55" xml:space="preserve">
<polygon fill="#CCCCCC" stroke="#767676" stroke-miterlimit="10" points="7.115,20.152 9.567,23.565 8.79,25.486 4.5,26.357 
	4.5,32.02 8.739,32.865 9.608,34.938 7.108,37.897 11.426,42.547 14.851,40.12 16.809,40.904 17.579,45.213 23.51,45.402 
	24.126,40.878 26.072,40.094 29.51,42.546 33.755,38.3 31.303,34.889 32.145,32.967 36.5,32.095 36.5,26.434 32.162,25.587 
	31.303,23.514 33.68,20.152 29.51,15.906 26.021,18.333 24.126,17.549 23.355,13.24 17.403,13.05 16.745,17.549 14.799,18.358 
	11.361,15.906 7.185,19.647 "/>
<polygon fill="#CCCCCC" stroke="#767676" stroke-miterlimit="10" points="36.978,38.159 37.523,39.477 35.9,42.545 38.668,44.807 
	41.339,42.375 42.746,42.588 44.696,45.603 47.957,44.162 47.185,40.75 48.052,39.62 51.585,39.648 52.144,35.864 48.682,34.861 
	48.029,33.467 49.767,30.449 46.892,28.07 44.267,30.656 42.844,30.292 41.384,27.246 37.774,28.575 38.466,32.346 37.607,33.399 
	34.047,33.484 33.566,37.24 "/>
<circle fill="#FFFFFF" stroke="#767676" stroke-miterlimit="10" cx="20.5" cy="29.227" r="5.958"/>
<circle fill="#FFFFFF" stroke="#767676" stroke-miterlimit="10" cx="42.854" cy="36.425" r="2.833"/>
</svg>
