<?xml version="1.0" encoding="utf-8"?>
<svg version="1.1" id="Camada_1" xmlns="http://www.w3.org/2000/svg" xmlns:xlink="http://www.w3.org/1999/xlink" x="0px" y="0px"
	 width="55px" height="55px" viewBox="0 0 55 55" enable-background="new 0 0 55 55" xml:space="preserve">
<g id="_x23_000000ff">
	<path fill="#767676" d="M16.054,11.862c0.643-0.041,1.291-0.064,1.935,0.006c0.584,0.076,1.157,0.287,1.646,0.613
		c0.579,0.381,1.035,0.906,1.462,1.444c0.163,0.192,0.31,0.403,0.502,0.573c0.059,0.063,0.158,0.058,0.24,0.063
		c0.45-0.012,0.895-0.116,1.332-0.21c0.953-0.217,1.9-0.491,2.835-0.783c0.217-0.059,0.438-0.176,0.667-0.105
		c1.186,0.392,0.318,0.399,0.552,0.43c0.273,0.497-0.693-0.527,0.159,0.152c1.536,1.181,2.971,2.507,4.577,3.606
		c0.771,0.52,1.515,1.087,2.238,1.666c1.045,0.841,2.092,1.7,3.268,2.361c1.875,1.034,3.898,1.771,5.902,2.507
		c1.047,0.386,2.092,0.789,3.098,1.286c1.666,0.848,3.257,1.864,4.63,3.138c0.321,0.328,0.719,0.638,0.807,1.117
		c0.035,0.461-0.279,0.863-0.643,1.115c-0.474,0.311-1.029,0.45-1.578,0.531c-0.767,0.111-1.543,0.105-2.314,0.117
		c-0.906,0.018-1.795,0.205-2.678,0.363c-0.537,0.115-1.109,0.215-1.566,0.549c-0.326,0.274-0.648,0.561-1.01,0.801
		c-1.537,1.029-3.332,1.602-5.139,1.936c-1.146,0.203-2.314,0.297-3.478,0.269c-1.028,0.022-2.028-0.292-2.972-0.666
		c-0.782-0.304-0.329-0.134-0.903-0.164c-0.077,0.141-0.203,0.016-0.203,0.016c0.531,0.406-0.094,0.813-0.171,0.864
		c-1.018,1.865-2.514,3.473-4.325,4.588c-1.958,1.223-4.272,1.859-6.575,1.813c-2.269-0.022-4.524-0.719-6.424-1.963
		c-2.075-1.352-3.717-3.345-4.641-5.642c-0.491-1.216-0.771-2.507-0.859-3.815c-0.018-0.485-0.018-0.977,0-1.463
		c0.018-0.438,0.111-0.863,0.123-1.296c-0.205,0.152-0.356,0.386-0.62,0.443c-0.245,0.082-0.49-0.04-0.678-0.192
		c-0.474-0.368-0.959-0.719-1.432-1.081c-0.327-0.27-0.673-0.584-0.714-1.029c-0.034-0.543-0.028-1.127,0.246-1.613
		c0.263-0.461,0.619-0.864,1.04-1.186c-0.613-0.9-1.163-1.889-1.291-2.986c-0.012-0.393,0.157-0.767,0.368-1.088
		c0.28-0.415,0.625-0.777,0.987-1.116c1.21-1.11,2.561-2.058,3.916-2.976c0.994-0.666,1.999-1.309,3.016-1.939
		c0.275-0.164,0.585-0.252,0.883-0.346C13.5,12.225,14.774,11.985,16.054,11.862L16.054,11.862z M15.23,13.364
		c-0.234,0.041-0.468,0.082-0.708,0.117c-0.695,0.135-1.391,0.28-2.068,0.49c-0.17,0.047-0.333,0.117-0.479,0.211
		c-1.87,1.169-3.735,2.361-5.471,3.723c-0.638,0.516-1.274,1.035-1.789,1.678c-0.116,0.164-0.286,0.346-0.204,0.562
		c0.229,0.97,0.789,1.829,1.42,2.589c0.117,0.146,0.152,0.34,0.146,0.526c-0.1,0.421-0.526,0.573-0.813,0.836
		c-0.298,0.263-0.613,0.538-0.76,0.917c0.018,0.229-0.152,0.55,0.1,0.696c0.362,0.274,0.719,0.556,1.093,0.813
		c1.022-1.046,2.11-2.034,3.268-2.935c0.888-0.678,1.812-1.332,2.852-1.754c0.655-0.256,1.403-0.426,2.087-0.181
		c0.468,0.158,0.836,0.521,1.058,0.953c0.012,0.028,0.041,0.087,0.059,0.116c0.1,0.229,0.17,0.468,0.223,0.713
		c0.035,0.328,0.116,0.679,0.386,0.895c0.484,0.375,1.128,0.404,1.718,0.363c1.204-0.105,2.344-0.538,3.478-0.93
		c0.468-0.152,0.936-0.328,1.433-0.328c0.871,0.064,1.806,0.053,2.589,0.504c0.854,0.502,1.345,1.414,1.748,2.291
		c0.25,0.923-0.059,1.858-0.287,2.751c-0.304,1.146-0.59,2.373-0.216,3.537c0.462,0.135,0.923,0.258,1.378,0.426
		c0.1,0.041,0.193,0.076,0.293,0.117c0.135,0.06,0.269,0.117,0.403,0.176c0.233,0.111,0.47,0.229,0.694,0.356
		c0.772,0.433-3.775-2.071-3.004-1.646c0.656,0.361,1.387,0.591,2.129,0.679c0.524,0.047,1.043,0.14,1.548,0.292
		c1.079,0.311,2.086,0.87,3.202,1.053c0.894,0.122,1.8,0.059,2.688-0.019c1.386-0.136,2.748-0.449,4.052-0.937
		c0-0.018-0.006-0.047-0.006-0.063c-0.515-0.146-1-0.361-1.484-0.591c-0.316-0.141-0.443-0.508-0.381-0.829
		c0.1-0.21,0.264-0.414,0.498-0.474c0.479-0.076,0.971-0.094,1.448-0.164c0.355-0.018,0.707-0.076,1.064-0.1
		c0.202-0.047,0.42-0.029,0.631-0.076c0.192-0.018,0.392-0.018,0.584-0.059c0.157-0.018,0.321-0.023,0.479-0.041
		c0.205-0.047,0.422-0.029,0.633-0.075c0.565-0.047,1.133-0.104,1.693-0.176c0.176-0.017,0.356-0.022,0.538-0.04
		c0.273-0.041,0.543-0.082,0.818-0.123c0.672-0.117,1.354-0.076,2.032-0.135c0.531-0.012,1.064-0.012,1.591-0.1
		c0.229-0.054,0.457-0.111,0.678-0.188c-1.108-1.074-2.401-1.951-3.758-2.699c-1.923-1.076-4.058-1.689-6.097-2.508
		c-0.088-0.029-0.17-0.064-0.252-0.094c-0.233-0.1-0.467-0.193-0.701-0.292c-0.11-0.047-0.223-0.1-0.334-0.146
		c-0.161-0.064-0.319-0.141-0.483-0.211c-0.293-0.135-0.584-0.275-0.877-0.415c-0.028-0.012-0.088-0.041-0.117-0.059
		c-0.075-0.041-0.155-0.081-0.231-0.116c-0.029-0.018-0.088-0.041-0.117-0.059c-0.053-0.029-0.105-0.059-0.164-0.088
		c-2.139-1.094-3.834-2.841-5.811-4.174c-1.441-1.254,0.381-0.223-1.484-1.585c-0.463-0.339-0.5-0.687-0.955-1.032
		c-0.475-0.346-0.102-0.29-0.604-0.595c-0.516-0.315-1.07-0.561-1.63-0.777c-0.094-0.035-0.194-0.094-0.293-0.047
		c-1.269,0.393-2.542,0.766-3.852,0.988c-0.433,0.059-0.877,0.129-1.304-0.006c-0.415-0.129-0.713-0.456-0.993-0.771
		c-0.462-0.555-0.889-1.181-1.531-1.549c-0.298-0.176-0.632-0.27-0.977-0.322C16.913,13.172,16.066,13.253,15.23,13.364
		L15.23,13.364z M11.015,23.821c-0.987,0.643-1.899,1.402-2.782,2.186c-0.128,0.123-0.298,0.223-0.345,0.409
		c-0.572,1.848-0.66,3.841-0.233,5.729c0.544,2.489,1.981,4.764,3.986,6.336c1.729,1.367,3.875,2.203,6.072,2.354
		c2.245,0.176,4.536-0.36,6.471-1.508c1.771-1.046,3.25-2.589,4.203-4.412c-0.907-0.532-1.9-0.89-2.922-1.101
		c-0.223-0.041-0.415-0.192-0.503-0.396c-0.31-0.654-0.438-1.379-0.444-2.1c0.006-0.935,0.222-1.852,0.456-2.752
		c0.135-0.537,0.304-1.075,0.327-1.63c0.006-0.299-0.182-0.55-0.315-0.801c-0.252-0.427-0.544-0.883-1.018-1.076
		c-0.496-0.175-1.034-0.169-1.555-0.222c-0.304-0.047-0.596,0.082-0.882,0.163c-1.07,0.357-2.122,0.766-3.238,0.971
		c-0.947,0.182-1.958,0.229-2.864-0.158c-0.619-0.251-1.146-0.748-1.379-1.379c-0.182-0.427-0.117-0.936-0.409-1.32
		c-0.17-0.229-0.485-0.199-0.736-0.152C12.213,23.091,11.6,23.452,11.015,23.821z"/>
	<path fill="#767676" d="M9.771,26.907c0.134-0.041,0.28-0.012,0.397,0.064c1.116,0.66,2.232,1.32,3.349,1.98
		c0.245,0.135,0.315,0.463,0.204,0.708c-0.321,0.684-0.952,1.233-1.7,1.38c-0.567,0.115-1.175-0.023-1.654-0.346
		c-1.134-0.754-1.473-2.402-0.842-3.583C9.578,27.019,9.666,26.948,9.771,26.907z"/>
	<path fill="#767676" d="M18.876,29.415c0.129-0.082,0.293-0.069,0.427-0.019c1.187,0.396,2.373,0.795,3.56,1.197
		c0.252,0.07,0.45,0.346,0.362,0.608c-0.292,0.94-1.058,1.771-2.034,2.011c-0.561,0.146-1.181,0.035-1.665-0.287
		c-0.433-0.279-0.742-0.719-0.912-1.197c-0.222-0.644-0.21-1.355,0-1.994C18.667,29.596,18.754,29.475,18.876,29.415z"/>
</g>
<g id="_x23_ffffffff">
	<path fill="#FFFFFF" d="M15.23,13.364c0.836-0.111,1.683-0.192,2.524-0.123c0.339,0.053,0.679,0.146,0.977,0.322
		c0.643,0.368,1.069,0.993,1.531,1.549c0.274,0.315,0.578,0.643,0.993,0.771c0.421,0.135,0.871,0.064,1.304,0.006
		c1.31-0.223,2.583-0.596,3.852-0.988c0.1-0.047,0.2,0.012,0.292,0.047c0.563,0.217,1.002,0.799,1.518,1.114
		c0.502,0.305-0.313-0.121,0.161,0.219c-1.191-0.64,0.849,0.697-0.293-0.364c1.574,1.364,2.084,2.13,3.289,3.021
		c1.978,1.339,3.672,3.08,5.812,4.174c0.053,0.029,0.104,0.059,0.164,0.088c0.028,0.018,0.088,0.041,0.117,0.059
		c0.075,0.04,0.155,0.075,0.231,0.116c0.028,0.012,0.088,0.041,0.116,0.059c0.293,0.14,0.578,0.28,0.877,0.415
		c0.164,0.07,0.322,0.146,0.484,0.211c0.111,0.046,0.223,0.099,0.334,0.146c0.234,0.093,0.467,0.192,0.701,0.292
		c0.082,0.029,0.17,0.064,0.252,0.094c2.039,0.818,4.166,1.432,6.096,2.508c1.351,0.748,2.648,1.619,3.758,2.699
		c-0.221,0.07-0.448,0.135-0.678,0.188c-0.524,0.089-1.059,0.089-1.59,0.101c-0.678,0.054-1.361,0.019-2.033,0.136
		c-0.274,0.041-0.545,0.082-0.817,0.123c-0.183,0.018-0.363,0.022-0.539,0.039c-0.565,0.07-1.127,0.129-1.692,0.176
		c-0.205,0.047-0.423,0.028-0.634,0.075c-0.155,0.019-0.319,0.023-0.479,0.041c-0.192,0.041-0.391,0.041-0.584,0.06
		c-0.211,0.047-0.428,0.029-0.631,0.076c-0.356,0.018-0.709,0.076-1.063,0.1C39.1,30.982,38.607,31,38.13,31.076
		c-0.239,0.059-0.397,0.263-0.498,0.473c-0.063,0.322,0.07,0.689,0.382,0.83c0.483,0.223,0.971,0.444,1.483,0.59
		c0,0.018,0.006,0.047,0.006,0.064c-1.303,0.484-2.666,0.801-4.051,0.936c-0.896,0.07-1.802,0.135-2.688,0.018
		c-1.065-0.174-1.384-0.379-2.514-0.704c0.455,0.348-0.49-0.152-1.016-0.199c-0.741-0.088,0.166,0.424-0.49,0.062
		c0.525,0.31-0.469,0.139,0.145,0.467c-0.229-0.129-0.461-0.245-0.695-0.356c-0.135-0.06-0.269-0.116-0.402-0.176
		c-0.1-0.035-0.199-0.076-0.293-0.117c-0.449-0.169-0.917-0.292-1.378-0.426c-0.374-1.164-0.082-2.392,0.216-3.537
		c0.223-0.894,0.538-1.829,0.288-2.752c-0.398-0.871-0.895-1.783-1.749-2.291c-0.783-0.451-1.718-0.439-2.589-0.504
		c-0.497,0-0.965,0.176-1.433,0.328c-1.134,0.386-2.273,0.824-3.478,0.93c-0.584,0.035-1.233,0.012-1.718-0.363
		c-0.27-0.21-0.352-0.566-0.386-0.895c-0.047-0.245-0.123-0.484-0.223-0.713c-0.012-0.029-0.041-0.088-0.059-0.117
		c-0.222-0.432-0.59-0.794-1.058-0.952c-0.684-0.245-1.432-0.075-2.087,0.181c-1.04,0.428-1.964,1.076-2.852,1.754
		c-1.152,0.9-2.245,1.889-3.268,2.935c-0.374-0.257-0.73-0.538-1.093-0.813c-0.252-0.146-0.082-0.468-0.1-0.696
		c0.146-0.373,0.462-0.654,0.76-0.917c0.286-0.263,0.713-0.415,0.813-0.836c0-0.187-0.029-0.374-0.146-0.526
		c-0.631-0.76-1.192-1.619-1.42-2.589c-0.082-0.216,0.094-0.397,0.204-0.562c0.515-0.643,1.157-1.162,1.789-1.678
		c1.741-1.361,3.601-2.554,5.471-3.723c0.146-0.094,0.31-0.164,0.479-0.211c0.678-0.21,1.373-0.355,2.068-0.49
		C14.762,13.44,14.996,13.405,15.23,13.364z"/>
</g>
<g id="_x23_e5a001ff">
	<path fill="#CCCCCC" d="M11.015,23.821c0.585-0.369,1.198-0.73,1.883-0.877c0.245-0.041,0.566-0.07,0.736,0.152
		c0.292,0.379,0.228,0.894,0.409,1.32c0.233,0.631,0.76,1.129,1.379,1.379c0.9,0.381,1.917,0.34,2.864,0.158
		c1.11-0.204,2.168-0.613,3.238-0.971c0.286-0.081,0.578-0.21,0.882-0.163c0.521,0.053,1.059,0.047,1.555,0.222
		c0.479,0.193,0.771,0.649,1.018,1.076c0.129,0.251,0.321,0.502,0.315,0.801c-0.023,0.555-0.192,1.093-0.327,1.631
		c-0.24,0.9-0.45,1.817-0.456,2.752c0.006,0.721,0.135,1.45,0.444,2.1c0.088,0.205,0.286,0.355,0.503,0.396
		c1.022,0.211,2.021,0.573,2.922,1.1c-0.952,1.83-2.432,3.367-4.203,4.412c-1.935,1.146-4.226,1.685-6.471,1.508
		c-2.197-0.15-4.343-0.986-6.072-2.354c-2.004-1.571-3.441-3.853-3.985-6.336c-0.427-1.887-0.339-3.881,0.233-5.728
		c0.047-0.181,0.217-0.286,0.345-0.409C9.116,25.224,10.028,24.464,11.015,23.821 M9.771,26.907
		c-0.105,0.035-0.193,0.111-0.252,0.205c-0.631,1.186-0.292,2.828,0.842,3.582c0.479,0.328,1.087,0.469,1.654,0.347
		c0.748-0.146,1.379-0.696,1.701-1.38c0.104-0.245,0.04-0.573-0.205-0.708c-1.116-0.66-2.232-1.32-3.349-1.98
		C10.051,26.896,9.905,26.866,9.771,26.907 M18.876,29.415c-0.128,0.063-0.216,0.181-0.257,0.313c-0.21,0.645-0.222,1.356,0,1.994
		c0.17,0.479,0.479,0.918,0.912,1.197c0.484,0.322,1.099,0.439,1.665,0.287c0.977-0.24,1.742-1.064,2.034-2.012
		c0.088-0.256-0.11-0.537-0.362-0.607c-1.187-0.402-2.373-0.801-3.56-1.197C19.169,29.346,19.011,29.333,18.876,29.415z"/>
</g>
</svg>
