<?xml version="1.0" encoding="utf-8"?>
<!-- Generator: Adobe Illustrator 16.0.0, SVG Export Plug-In . SVG Version: 6.00 Build 0)  -->
<!DOCTYPE svg PUBLIC "-//W3C//DTD SVG 1.1//EN" "http://www.w3.org/Graphics/SVG/1.1/DTD/svg11.dtd">
<svg version="1.1" xmlns="http://www.w3.org/2000/svg" xmlns:xlink="http://www.w3.org/1999/xlink" x="0px" y="0px" width="55px"
	 height="55px" viewBox="0 0 55 55" enable-background="new 0 0 55 55" xml:space="preserve">
<g id="Layer_2">
	
		<rect x="14.632" y="3.503" fill="#FFFFFF" stroke="#7D7D7D" stroke-width="2" stroke-miterlimit="10" width="35.454" height="47.993"/>
	<rect x="20.416" y="10.07" fill="#CCCCCC" width="24.686" height="28.318"/>
</g>
<g id="Layer_1">
	<polygon fill="#999999" stroke="#7D7D7D" stroke-width="2" stroke-miterlimit="10" points="2.046,25.022 4.109,26.585 
		4.109,48.647 6.984,50.085 38.171,50.085 40.296,47.585 40.296,27.46 37.921,25.022 13.546,25.022 34.796,12.335 34.796,9.085 
		32.546,4.897 29.108,4.897 2.046,20.96 	"/>
	<polygon fill="#FFFFFF" points="12.503,22.147 7.171,25.48 7.015,21.147 12.503,17.741 	"/>
	<polygon fill="#FFFFFF" points="21.421,16.688 16.379,19.813 16.379,15.647 21.421,12.491 	"/>
	<polygon fill="#FFFFFF" points="30.379,11.272 25.338,14.397 25.338,10.304 30.379,7.21 	"/>
	<polygon fill="#FFFFFF" points="14.921,32.522 8.484,32.522 10.502,27.985 16.917,27.985 	"/>
	<polygon fill="#FFFFFF" points="24.608,32.522 18.171,32.522 20.189,27.985 26.604,27.985 	"/>
	<polygon fill="#FFFFFF" points="34.546,32.522 28.108,32.522 30.126,27.985 36.608,27.991 	"/>
</g>
</svg>
