<?xml version="1.0" encoding="utf-8"?>
<!DOCTYPE svg PUBLIC "-//W3C//DTD SVG 1.1//EN" "http://www.w3.org/Graphics/SVG/1.1/DTD/svg11.dtd">
<svg version="1.1" id="Layer_1" xmlns="http://www.w3.org/2000/svg" xmlns:xlink="http://www.w3.org/1999/xlink" x="0px" y="0px"
	 width="55px" height="55px" viewBox="0 0 55 55" enable-background="new 0 0 55 55" xml:space="preserve">
<polygon fill="#9B9994" stroke="#7D7D7D" stroke-width="0.5" stroke-miterlimit="10" points="46.864,41.02 48.848,41.029 
	48.848,35.221 8.417,35.221 8.417,41.041 10.306,41.043 10.311,42.48 8.416,42.48 8.417,44.275 10.336,44.27 10.337,45.605 
	8.417,45.605 8.417,49.742 27.841,49.742 27.827,48.898 28.062,48.271 28.633,47.996 29.153,48.313 29.325,48.891 29.339,49.732 
	48.849,49.744 48.849,45.727 46.792,45.719 46.792,44.35 48.847,44.346 48.848,42.486 46.843,42.477 "/>
<rect x="10.585" y="46.921" fill="#CCCBCB" width="15.952" height="2.469"/>
<rect x="13.095" y="36.372" fill="#767676" stroke="#767676" stroke-miterlimit="10" width="3.473" height="7.979"/>
<rect x="22.227" y="36.373" fill="#767676" stroke="#767676" stroke-miterlimit="10" width="3.476" height="7.977"/>
<rect x="31.427" y="36.373" fill="#767676" stroke="#767676" stroke-miterlimit="10" width="3.473" height="7.977"/>
<rect x="40.689" y="36.373" fill="#767676" stroke="#767676" stroke-miterlimit="10" width="3.473" height="7.977"/>
<rect x="30.637" y="46.91" fill="#CCCBCB" width="15.95" height="2.467"/>
<g>
	<polygon fill="#9B9994" stroke="#7D7D7D" stroke-width="0.5" stroke-miterlimit="10" points="45.21,34.898 47.165,34.564 
		46.155,28.844 6.337,35.865 7.348,41.596 9.21,41.271 9.464,42.684 7.598,43.016 7.91,44.781 9.801,44.441 10.032,45.756 
		8.141,46.09 8.86,50.166 27.989,46.793 27.83,45.963 27.951,45.305 28.467,44.936 29.033,45.156 29.303,45.695 29.463,46.521 
		48.677,43.145 47.98,39.189 45.953,39.537 45.716,38.189 47.739,37.828 47.417,36 45.44,36.336 	"/>
		<rect x="10.599" y="45.607" transform="matrix(0.9848 -0.1737 0.1737 0.9848 -7.8553 3.9394)" fill="#CCCBCB" width="15.953" height="2.467"/>
		<rect x="11.811" y="35.825" transform="matrix(0.9848 -0.1738 0.1738 0.9848 -6.7129 2.9602)" fill="#767676" stroke="#767676" stroke-miterlimit="10" width="3.473" height="7.977"/>
		<rect x="20.805" y="34.239" transform="matrix(0.9848 -0.1737 0.1737 0.9848 -6.2979 4.497)" fill="#767676" stroke="#767676" stroke-miterlimit="10" width="3.474" height="7.976"/>
		<rect x="29.866" y="32.64" transform="matrix(0.9848 -0.1738 0.1738 0.9848 -5.8847 6.0494)" fill="#767676" stroke="#767676" stroke-miterlimit="10" width="3.473" height="7.979"/>
		<rect x="38.987" y="31.031" transform="matrix(0.9847 -0.1743 0.1743 0.9847 -5.4816 7.6356)" fill="#767676" stroke="#767676" stroke-miterlimit="10" width="3.473" height="7.979"/>
		<rect x="30.345" y="42.114" transform="matrix(0.9848 -0.1737 0.1737 0.9848 -6.9454 7.3129)" fill="#CCCBCB" width="15.948" height="2.467"/>
</g>
<polygon fill="#9B9994" stroke="#7D7D7D" stroke-width="0.5" stroke-miterlimit="10" points="46.679,17.011 48.662,17.021 
	48.662,11.212 8.231,11.212 8.231,17.033 10.12,17.035 10.125,18.472 8.23,18.472 8.231,20.267 10.15,20.261 10.151,21.597 
	8.231,21.597 8.231,25.734 27.655,25.734 27.642,24.89 27.876,24.263 28.447,23.988 28.968,24.304 29.14,24.882 29.153,25.724 
	48.663,25.736 48.663,21.718 46.606,21.71 46.606,20.341 48.661,20.337 48.662,18.478 46.657,18.468 "/>
<rect x="10.399" y="22.913" fill="#CCCBCB" width="15.952" height="2.469"/>
<rect x="12.909" y="12.364" fill="#767676" stroke="#767676" stroke-miterlimit="10" width="3.473" height="7.979"/>
<rect x="22.042" y="12.365" fill="#767676" stroke="#767676" stroke-miterlimit="10" width="3.476" height="7.977"/>
<rect x="31.241" y="12.365" fill="#767676" stroke="#767676" stroke-miterlimit="10" width="3.473" height="7.977"/>
<rect x="40.504" y="12.365" fill="#767676" stroke="#767676" stroke-miterlimit="10" width="3.473" height="7.977"/>
<rect x="30.451" y="22.902" fill="#CCCBCB" width="15.95" height="2.467"/>
<g>
	<polygon fill="#9B9994" stroke="#7D7D7D" stroke-width="0.5" stroke-miterlimit="10" points="45.024,10.889 46.979,10.555 
		45.97,4.834 6.151,11.857 7.162,17.587 9.024,17.263 9.278,18.675 7.412,19.006 7.725,20.772 9.615,20.433 9.847,21.748 
		7.955,22.082 8.675,26.157 27.804,22.784 27.645,21.955 27.766,21.295 28.281,20.926 28.848,21.147 29.117,21.686 29.277,22.513 
		48.491,19.135 47.795,15.18 45.768,15.529 45.53,14.181 47.554,13.82 47.231,11.991 45.255,12.328 	"/>
		<rect x="10.413" y="21.599" transform="matrix(0.9848 -0.1737 0.1737 0.9848 -3.6871 3.5421)" fill="#CCCBCB" width="15.953" height="2.467"/>
		<rect x="11.626" y="11.816" transform="matrix(0.9848 -0.1738 0.1738 0.9848 -2.5433 2.5627)" fill="#767676" stroke="#767676" stroke-miterlimit="10" width="3.473" height="7.978"/>
		<rect x="20.619" y="10.231" transform="matrix(0.9848 -0.1737 0.1737 0.9848 -2.1299 4.0992)" fill="#767676" stroke="#767676" stroke-miterlimit="10" width="3.475" height="7.976"/>
		<rect x="29.681" y="8.631" transform="matrix(0.9847 -0.1741 0.1741 0.9847 -1.7171 5.661)" fill="#767676" stroke="#767676" stroke-miterlimit="10" width="3.473" height="7.979"/>
		<rect x="38.802" y="7.023" transform="matrix(0.9847 -0.1741 0.1741 0.9847 -1.298 7.2241)" fill="#767676" stroke="#767676" stroke-miterlimit="10" width="3.473" height="7.978"/>
		<rect x="30.159" y="18.106" transform="matrix(0.9848 -0.1737 0.1737 0.9848 -2.7789 6.9159)" fill="#CCCBCB" width="15.948" height="2.466"/>
</g>
</svg>
