<?xml version="1.0" encoding="utf-8"?>
<!DOCTYPE svg PUBLIC "-//W3C//DTD SVG 1.1//EN" "http://www.w3.org/Graphics/SVG/1.1/DTD/svg11.dtd">
<svg version="1.1" id="Layer_1" xmlns="http://www.w3.org/2000/svg" xmlns:xlink="http://www.w3.org/1999/xlink" x="0px" y="0px"
	 width="55px" height="55px" viewBox="0 0 55 55" enable-background="new 0 0 55 55" xml:space="preserve">
<polygon fill="#9B9994" stroke="#7D7D7D" stroke-width="0.5" stroke-miterlimit="10" points="38.398,13.539 39.808,12.144 
	35.7,8.037 7.111,36.626 11.226,40.741 12.565,39.407 13.584,40.42 12.245,41.76 13.513,43.028 14.868,41.667 15.813,42.61 
	14.454,43.969 17.38,46.895 31.115,33.16 30.509,32.572 30.23,31.963 30.44,31.365 31.032,31.221 31.562,31.508 32.167,32.094 
	45.97,18.306 43.129,15.465 41.67,16.914 40.702,15.946 42.152,14.489 40.839,13.175 39.413,14.585 "/>
<rect x="15.455" y="37.366" transform="matrix(0.7071 -0.7071 0.7071 0.7071 -20.4317 27.8758)" fill="#CCCBCB" width="15.952" height="2.468"/>
<rect x="13.546" y="31.738" transform="matrix(0.7071 -0.7071 0.7071 0.7071 -20.786 21.2703)" fill="#767676" stroke="#767676" stroke-miterlimit="10" width="3.473" height="7.977"/>
<rect x="20.003" y="25.278" transform="matrix(0.7071 -0.7071 0.7071 0.7071 -14.3273 23.945)" fill="#767676" stroke="#767676" stroke-miterlimit="10" width="3.475" height="7.977"/>
<rect x="26.509" y="18.774" transform="matrix(0.7071 -0.7071 0.7071 0.7071 -7.8229 26.6394)" fill="#767676" stroke="#767676" stroke-miterlimit="10" width="3.472" height="7.977"/>
<rect x="33.059" y="12.225" transform="matrix(0.707 -0.7072 0.7072 0.707 -1.2708 29.3597)" fill="#767676" stroke="#767676" stroke-miterlimit="10" width="3.473" height="7.977"/>
<rect x="29.626" y="23.18" transform="matrix(0.7071 -0.7071 0.7071 0.7071 -6.25 33.7365)" fill="#CCCBCB" width="15.951" height="2.465"/>
<g>
	<polygon fill="#9B9994" stroke="#7D7D7D" stroke-width="0.5" stroke-miterlimit="10" points="22.986,8.164 23.674,6.304 
		18.215,4.317 4.387,42.311 9.855,44.301 10.505,42.526 11.856,43.014 11.209,44.794 12.895,45.407 13.547,43.601 14.801,44.057 
		14.145,45.862 18.034,47.276 24.678,29.024 23.879,28.748 23.369,28.313 23.307,27.683 23.781,27.302 24.383,27.339 25.18,27.613 
		31.861,9.284 28.088,7.91 27.377,9.84 26.09,9.372 26.789,7.438 25.043,6.803 24.348,8.684 	"/>
		<rect x="12.036" y="35.967" transform="matrix(0.3419 -0.9397 0.9397 0.3419 -21.7905 43.286)" fill="#CCCBCB" width="15.952" height="2.468"/>
		<rect x="9.675" y="34.053" transform="matrix(0.3421 -0.9397 0.9397 0.3421 -28.2379 35.7523)" fill="#767676" stroke="#767676" stroke-miterlimit="10" width="3.474" height="7.976"/>
		<rect x="12.798" y="25.47" transform="matrix(0.342 -0.9397 0.9397 0.342 -18.1172 33.0428)" fill="#767676" stroke="#767676" stroke-miterlimit="10" width="3.475" height="7.977"/>
		<rect x="15.946" y="16.825" transform="matrix(0.342 -0.9397 0.9397 0.342 -7.9242 30.3111)" fill="#767676" stroke="#767676" stroke-miterlimit="10" width="3.472" height="7.977"/>
		<rect x="19.113" y="8.122" transform="matrix(0.3419 -0.9397 0.9397 0.3419 2.3404 27.5627)" fill="#767676" stroke="#767676" stroke-miterlimit="10" width="3.473" height="7.977"/>
		<rect x="18.883" y="17.123" transform="matrix(0.342 -0.9397 0.9397 0.342 0.4238 37.3171)" fill="#CCCBCB" width="15.951" height="2.465"/>
</g>
<g>
	<polygon fill="#9B9994" stroke="#7D7D7D" stroke-width="0.5" stroke-miterlimit="10" points="45.129,26.528 46.93,25.698 
		44.476,20.435 7.833,37.522 10.291,42.796 12.006,42.001 12.616,43.301 10.9,44.103 11.659,45.728 13.397,44.912 13.961,46.12 
		12.221,46.934 13.971,50.683 31.574,42.475 31.205,41.714 31.151,41.047 31.554,40.557 32.158,40.622 32.558,41.074 32.927,41.832 
		50.612,33.596 48.916,29.956 47.049,30.817 46.469,29.577 48.331,28.704 47.545,27.021 45.725,27.858 	"/>
		<rect x="14.516" y="43.723" transform="matrix(0.9063 -0.4227 0.4227 0.9063 -16.8956 13.7217)" fill="#CCCBCB" width="15.952" height="2.469"/>
		<rect x="14.081" y="35.484" transform="matrix(0.9065 -0.4222 0.4222 0.9065 -15.1857 10.3688)" fill="#767676" stroke="#767676" stroke-miterlimit="10" width="3.474" height="7.976"/>
		<rect x="22.359" y="31.622" transform="matrix(0.9063 -0.4225 0.4225 0.9063 -12.7902 13.5172)" fill="#767676" stroke="#767676" stroke-miterlimit="10" width="3.476" height="7.976"/>
		<rect x="30.698" y="27.735" transform="matrix(0.9064 -0.4224 0.4224 0.9064 -10.3645 16.6695)" fill="#767676" stroke="#767676" stroke-miterlimit="10" width="3.472" height="7.977"/>
		<rect x="39.091" y="23.819" transform="matrix(0.9062 -0.4229 0.4229 0.9062 -7.929 19.8734)" fill="#767676" stroke="#767676" stroke-miterlimit="10" width="3.473" height="7.978"/>
		<rect x="32.685" y="35.241" transform="matrix(0.9063 -0.4226 0.4226 0.9063 -11.6045 20.5999)" fill="#CCCBCB" width="15.949" height="2.465"/>
</g>
</svg>
