<?xml version="1.0" encoding="utf-8"?>
<svg version="1.1" id="Layer_1" xmlns="http://www.w3.org/2000/svg" xmlns:xlink="http://www.w3.org/1999/xlink" x="0px" y="0px"
	 width="55px" height="55px" viewBox="0 0 55 55" enable-background="new 0 0 55 55" xml:space="preserve">
<polygon fill="#9B9994" stroke="#7D7D7D" stroke-width="0.5" stroke-miterlimit="10" points="47.799,19.787 49.783,19.796 
	49.783,13.988 9.352,13.988 9.352,19.808 11.24,19.81 11.245,21.248 9.351,21.248 9.352,23.042 11.271,23.037 11.271,24.373 
	9.352,24.373 9.352,28.509 28.775,28.509 28.762,27.666 28.996,27.039 29.568,26.763 30.088,27.08 30.26,27.658 30.273,28.499 
	49.783,28.511 49.783,24.494 47.727,24.486 47.727,23.117 49.781,23.113 49.783,21.253 47.777,21.244 "/>
<rect x="11.52" y="25.688" fill="#CCCBCB" width="15.953" height="2.469"/>
<rect x="15.52" y="15.396" fill="#767676" stroke="#767676" stroke-miterlimit="10" width="3.473" height="7.979"/>
<rect x="24.652" y="15.396" fill="#767676" stroke="#767676" stroke-miterlimit="10" width="3.475" height="7.977"/>
<rect x="33.852" y="15.396" fill="#767676" stroke="#767676" stroke-miterlimit="10" width="3.473" height="7.977"/>
<rect x="43.115" y="15.396" fill="#767676" stroke="#767676" stroke-miterlimit="10" width="3.473" height="7.977"/>
<rect x="31.572" y="25.677" fill="#CCCBCB" width="15.949" height="2.467"/>
<g>
	<polygon fill="#9B9994" stroke="#7D7D7D" stroke-width="0.5" stroke-miterlimit="10" points="46.145,13.666 48.1,13.332 
		47.09,7.611 7.271,14.632 8.282,20.363 10.145,20.039 10.398,21.451 8.532,21.783 8.845,23.548 10.735,23.208 10.967,24.523 
		9.075,24.857 9.795,28.933 28.924,25.56 28.766,24.73 28.887,24.072 29.402,23.703 29.969,23.923 30.238,24.462 30.398,25.289 
		49.611,21.912 48.916,17.957 46.889,18.304 46.65,16.957 48.674,16.595 48.352,14.767 46.375,15.103 	"/>
		<rect x="11.533" y="24.374" transform="matrix(0.9848 -0.1738 0.1738 0.9848 -4.1529 3.7796)" fill="#CCCBCB" width="15.953" height="2.467"/>
		<rect x="12.746" y="14.592" transform="matrix(0.9848 -0.1738 0.1738 0.9848 -3.0087 2.7995)" fill="#767676" stroke="#767676" stroke-miterlimit="10" width="3.473" height="7.977"/>
		<rect x="21.739" y="13.006" transform="matrix(0.9848 -0.1737 0.1737 0.9848 -2.5953 4.3366)" fill="#767676" stroke="#767676" stroke-miterlimit="10" width="3.474" height="7.976"/>
		<rect x="30.801" y="11.407" transform="matrix(0.9848 -0.1738 0.1738 0.9848 -2.1805 5.8887)" fill="#767676" stroke="#767676" stroke-miterlimit="10" width="3.473" height="7.979"/>
		<rect x="39.922" y="9.798" transform="matrix(0.9847 -0.1743 0.1743 0.9847 -1.7657 7.4734)" fill="#767676" stroke="#767676" stroke-miterlimit="10" width="3.473" height="7.979"/>
		<rect x="31.279" y="20.881" transform="matrix(0.9848 -0.1736 0.1736 0.9848 -3.2438 7.1522)" fill="#CCCBCB" width="15.949" height="2.467"/>
</g>
<g>
	<polygon fill="#9B9994" stroke="#7D7D7D" stroke-width="0.5" stroke-miterlimit="10" points="42.514,7.787 44.381,7.119 
		42.393,1.66 4.398,15.489 6.39,20.957 8.168,20.314 8.662,21.661 6.883,22.312 7.496,23.996 9.299,23.333 9.756,24.587 
		7.951,25.246 9.367,29.134 27.621,22.491 27.318,21.701 27.324,21.031 27.768,20.579 28.365,20.697 28.723,21.181 29.023,21.968 
		47.359,15.306 45.988,11.531 44.051,12.226 43.584,10.94 45.514,10.232 44.879,8.488 42.99,9.162 	"/>
		<rect x="10.38" y="22.939" transform="matrix(0.9397 -0.3421 0.3421 0.9397 -7.1619 7.7383)" fill="#CCCBCB" width="15.953" height="2.468"/>
		<rect x="10.449" y="14.137" transform="matrix(0.9397 -0.3419 0.3419 0.9397 -5.4629 5.259)" fill="#767676" stroke="#767676" stroke-miterlimit="10" width="3.473" height="7.976"/>
		<rect x="19.031" y="11.013" transform="matrix(0.9397 -0.3419 0.3419 0.9397 -3.8773 8.004)" fill="#767676" stroke="#767676" stroke-miterlimit="10" width="3.473" height="7.977"/>
		<rect x="27.678" y="7.864" transform="matrix(0.9397 -0.3419 0.3419 0.9397 -2.2803 10.7718)" fill="#767676" stroke="#767676" stroke-miterlimit="10" width="3.473" height="7.979"/>
		<rect x="36.38" y="4.697" transform="matrix(0.9395 -0.3427 0.3427 0.9395 -0.6687 13.5874)" fill="#767676" stroke="#767676" stroke-miterlimit="10" width="3.474" height="7.978"/>
		<rect x="29.221" y="16.07" transform="matrix(0.9397 -0.342 0.342 0.9397 -3.6753 13.7663)" fill="#CCCBCB" width="15.948" height="2.468"/>
</g>
<polygon fill="#9B9994" stroke="#7D7D7D" stroke-width="0.5" stroke-miterlimit="10" points="48.617,43.992 50.6,44.002 
	50.6,38.193 10.169,38.193 10.169,44.014 12.058,44.016 12.063,45.453 10.168,45.453 10.169,47.248 12.088,47.242 12.089,48.578 
	10.169,48.578 10.169,52.715 29.594,52.715 29.58,51.871 29.814,51.244 30.385,50.969 30.906,51.285 31.078,51.863 31.092,52.705 
	50.602,52.717 50.602,48.699 48.545,48.691 48.545,47.322 50.6,47.318 50.6,45.459 48.596,45.449 "/>
<rect x="12.337" y="49.894" fill="#CCCBCB" width="15.952" height="2.469"/>
<rect x="14.847" y="39.345" fill="#767676" stroke="#767676" stroke-miterlimit="10" width="3.473" height="7.979"/>
<rect x="23.979" y="39.346" fill="#767676" stroke="#767676" stroke-miterlimit="10" width="3.476" height="7.977"/>
<rect x="33.18" y="39.346" fill="#767676" stroke="#767676" stroke-miterlimit="10" width="3.473" height="7.977"/>
<rect x="42.441" y="39.346" fill="#767676" stroke="#767676" stroke-miterlimit="10" width="3.473" height="7.977"/>
<rect x="32.389" y="49.883" fill="#CCCBCB" width="15.951" height="2.467"/>
<g>
	<polygon fill="#9B9994" stroke="#7D7D7D" stroke-width="0.5" stroke-miterlimit="10" points="46.963,37.871 48.918,37.537 
		47.908,31.816 8.089,38.838 9.1,44.568 10.962,44.244 11.216,45.656 9.35,45.988 9.663,47.754 11.553,47.414 11.785,48.729 
		9.893,49.063 10.613,53.139 29.742,49.766 29.582,48.936 29.703,48.277 30.219,47.908 30.785,48.129 31.055,48.668 31.215,49.494 
		50.43,46.117 49.732,42.162 47.705,42.51 47.469,41.162 49.492,40.801 49.17,38.973 47.193,39.309 	"/>
		<rect x="12.351" y="48.58" transform="matrix(0.9848 -0.1737 0.1737 0.9848 -8.3449 4.289)" fill="#CCCBCB" width="15.953" height="2.467"/>
		<rect x="13.564" y="38.798" transform="matrix(0.9848 -0.1738 0.1738 0.9848 -7.2028 3.31)" fill="#767676" stroke="#767676" stroke-miterlimit="10" width="3.473" height="7.977"/>
		<rect x="22.557" y="37.212" transform="matrix(0.9848 -0.1737 0.1737 0.9848 -6.7868 4.8459)" fill="#767676" stroke="#767676" stroke-miterlimit="10" width="3.475" height="7.976"/>
		<rect x="31.619" y="35.612" transform="matrix(0.9848 -0.1738 0.1738 0.9848 -6.3746 6.3993)" fill="#767676" stroke="#767676" stroke-miterlimit="10" width="3.473" height="7.979"/>
		<rect x="40.74" y="34.004" transform="matrix(0.9847 -0.1743 0.1743 0.9847 -5.9729 7.9868)" fill="#767676" stroke="#767676" stroke-miterlimit="10" width="3.473" height="7.979"/>
		<rect x="32.098" y="45.087" transform="matrix(0.9848 -0.1737 0.1737 0.9848 -7.4354 7.6629)" fill="#CCCBCB" width="15.947" height="2.467"/>
</g>
<g>
	<polygon fill="#9B9994" stroke="#7D7D7D" stroke-width="0.5" stroke-miterlimit="10" points="43.332,31.992 45.199,31.324 
		43.211,25.865 5.216,39.694 7.208,45.162 8.986,44.52 9.48,45.866 7.701,46.518 8.314,48.201 10.117,47.539 10.574,48.793 
		8.769,49.451 10.185,53.34 28.438,46.696 28.137,45.906 28.143,45.236 28.586,44.784 29.182,44.902 29.541,45.387 29.842,46.174 
		48.178,39.512 46.805,35.736 44.869,36.432 44.4,35.146 46.332,34.438 45.697,32.693 43.809,33.367 	"/>
		<rect x="11.198" y="47.144" transform="matrix(0.9397 -0.3421 0.3421 0.9397 -15.3922 9.4776)" fill="#CCCBCB" width="15.953" height="2.467"/>
		<rect x="11.267" y="38.342" transform="matrix(0.9397 -0.3419 0.3419 0.9397 -13.6901 6.9975)" fill="#767676" stroke="#767676" stroke-miterlimit="10" width="3.473" height="7.976"/>
		<rect x="19.849" y="35.219" transform="matrix(0.9398 -0.3418 0.3418 0.9398 -12.1019 9.7406)" fill="#767676" stroke="#767676" stroke-miterlimit="10" width="3.474" height="7.977"/>
		<rect x="28.496" y="32.07" transform="matrix(0.9397 -0.3421 0.3421 0.9397 -10.512 12.518)" fill="#767676" stroke="#767676" stroke-miterlimit="10" width="3.471" height="7.979"/>
		<rect x="37.198" y="28.903" transform="matrix(0.9394 -0.3428 0.3428 0.9394 -8.9171 15.3422)" fill="#767676" stroke="#767676" stroke-miterlimit="10" width="3.472" height="7.978"/>
		<rect x="30.038" y="40.276" transform="matrix(0.9397 -0.342 0.342 0.9397 -11.9056 15.5056)" fill="#CCCBCB" width="15.948" height="2.468"/>
</g>
</svg>
