<?xml version="1.0" encoding="utf-8"?>
<!-- Generator: Adobe Illustrator 16.0.0, SVG Export Plug-In . SVG Version: 6.00 Build 0)  -->
<!DOCTYPE svg PUBLIC "-//W3C//DTD SVG 1.1//EN" "http://www.w3.org/Graphics/SVG/1.1/DTD/svg11.dtd">
<svg version="1.1" xmlns="http://www.w3.org/2000/svg" xmlns:xlink="http://www.w3.org/1999/xlink" x="0px" y="0px" width="55px"
	 height="55px" viewBox="0 0 55 55" enable-background="new 0 0 55 55" xml:space="preserve">
<g id="Layer_2">
	<g id="Layer_3">
		
			<rect x="19.564" y="7.424" fill="#FFFFFF" stroke="#7D7D7D" stroke-width="1.7" stroke-miterlimit="10" width="29.578" height="40.152"/>
		<path fill="none" stroke="#CCCCCC" stroke-width="2" stroke-miterlimit="10" d="M32.866,15.687"/>
		<path fill="none" stroke="#CCCCCC" stroke-width="2" stroke-miterlimit="10" d="M24.191,15.687"/>
		<g id="Rectangle_6_1_">
			<g>
				<rect x="23.448" y="10.894" fill="#CCCCCC" width="12.888" height="1.983"/>
			</g>
		</g>
		<g id="Rectangle_6_copy_1_">
			<g>
				<rect x="23.448" y="14.695" fill="#CCCCCC" width="21.811" height="1.983"/>
			</g>
		</g>
		<g id="Rectangle_6_copy_2_1_">
			<g>
				<rect x="23.448" y="19.292" fill="#CCCCCC" width="21.811" height="1.982"/>
			</g>
		</g>
		<g id="Rectangle_6_copy_3_1_">
			<g>
				<rect x="23.448" y="23.639" fill="#CCCCCC" width="21.811" height="1.982"/>
			</g>
		</g>
		<g id="Rectangle_6_copy_2_">
			<g>
				<rect x="23.448" y="27.501" fill="#CCCCCC" width="21.811" height="1.981"/>
			</g>
		</g>
		<g id="Rectangle_6_copy_2_2_">
			<g>
				<rect x="23.448" y="32.098" fill="#CCCCCC" width="21.811" height="1.982"/>
			</g>
		</g>
		<g id="Rectangle_6_copy_3_2_">
			<g>
				<rect x="23.448" y="36.443" fill="#CCCCCC" width="21.811" height="1.984"/>
			</g>
		</g>
		<g id="Rectangle_6_copy_2_3_">
			<g>
				<rect x="23.448" y="41.053" fill="#CCCCCC" width="21.811" height="1.982"/>
			</g>
		</g>
	</g>
</g>
<g id="Layer_1">
	<path fill="#FFFFFF" stroke="#7D7D7D" stroke-miterlimit="10" d="M34.354,27.501c0,0-0.698,10.78-6.036,16.106
		c-2.206,2.203-4.712,2.275-7.927,2.275c-3.273,0-6.256-0.033-8.564-2.266c-5.441-5.262-5.969-16.116-5.969-16.116H34.354z"/>
	<path fill="none" stroke="#AAAAAA" stroke-miterlimit="10" d="M19.891,26.14c-2.143-5.61,1.833-6.741,0.928-11.221"/>
	<path fill="none" stroke="#7D7D7D" stroke-width="2" stroke-miterlimit="10" d="M33.773,31.6c1.354,0,3.485-0.033,3.703,0.682
		c1.563,5.145-5.508,6.479-5.926,6.479"/>
	<path fill="none" stroke="#AAAAAA" stroke-miterlimit="10" d="M22.939,26.14c-2.144-5.61,1.832-6.741,0.926-11.221"/>
	<path fill="none" stroke="#AAAAAA" stroke-miterlimit="10" d="M16.783,26.14c-2.143-5.61,1.834-6.741,0.928-11.221"/>
	<path fill="#CCCCCC" d="M30.921,31.018H9.355c-0.766,0-1.332,0.824-1.076,1.617c0.227,0.67,0.452,1.342,0.68,2.016
		c2.745,7.414,6.03,9.162,10.813,9.162c4.783,0,8.801-1.748,11.547-9.162c0.254-0.674,0.482-1.346,0.682-2.016
		C32.252,31.842,31.714,31.018,30.921,31.018z"/>
</g>
</svg>
