<?xml version="1.0" encoding="utf-8"?>
<!-- Generator: Adobe Illustrator 16.0.0, SVG Export Plug-In . SVG Version: 6.00 Build 0)  -->
<!DOCTYPE svg PUBLIC "-//W3C//DTD SVG 1.1//EN" "http://www.w3.org/Graphics/SVG/1.1/DTD/svg11.dtd">
<svg version="1.1" id="Layer_1" xmlns="http://www.w3.org/2000/svg" xmlns:xlink="http://www.w3.org/1999/xlink" x="0px" y="0px"
	 width="55px" height="55px" viewBox="0 0 55 55" enable-background="new 0 0 55 55" xml:space="preserve">
<path fill="#919191" d="M3.683,28.35c5.485-1.756,11.797,0.02,16.617,8.832c0.434,0.848,0.993,0.637,0.963-0.227
	c0.105-0.893-0.035-4.637-2.375-7.951c-0.078-0.174,0.005-0.268,0.131-0.391c0.549-0.41,4.608-1.273,9.145-4.519
	c0.352-0.24,1.865-0.958,1.614-3.111c-0.757-5.309-4.992-8.908-6.171-9.634c-1.18-0.726-1.049,0.544-1.028,0.736
	c-0.212,4.104-1.444,10.133-5.834,14.246c-1.567-0.443-2.122-1.552-2.122-1.552s5.918-7.723,4.386-13.895
	c-0.403-1.734-0.877-2.349-2.813-1.956c-1.936,0.393-6.534,1.845-6.534,1.845s-0.715,0.272-0.15,0.999
	c0.564,0.726,3.286,3.468,1.068,11.131c-2.017-0.686-6.453-1.532-6.897-0.323C3.239,23.792,1.707,28.289,3.683,28.35z"/>
<path fill="#919191" d="M22.608,31.314c-0.06,0.316,0.272,2.178,0,3.721c-0.454,1.148-0.606,1.846,0.287,2.539
	c0.894,0.697,7.57,3.844,11.48,8.037c1.498,1.521,2.256-0.367,1.15-1.244c-0.303-0.332-1.725-1.604-1.693-2.041
	c0.027-0.439,0.846,0.406,1.148,0.725c-0.816-1.648,0.967-3.752,2.875-1.377c0.775,0.752,0.23,2.527-0.436,3.012
	c0.73-0.732-0.539-2.547-1.553-1.535c-0.525,0.506,0.92,1.645,1.24,1.928c0.322,0.283,1.473-0.676,1.877-1.342
	c0.295-0.412,0.723-0.762,1.34-3.428c0.197-0.691,0.451-0.941,1.068-1.559c0.617-0.619,9.621-8.162,10.617-11.338
	c0.584-1.654,0.305-2.24-0.938-1.059c-1.24,1.18-8.105,6.322-10.707,7.049c-2.604,0.727-3.057-0.59-2.678-0.91
	c0.23-0.227,6.014-6.482-0.412-3.115c-2.355,0.869-4.654-1.049-5.138-2.762c-1.021-3.265-0.989-3.912-3.308-1.916
	c-1.25,1.027-3.469,2.136-4.316,2.439c-2.541,0.605-3.549,3.449-1.492,3.73c2.056,0.283,3.171-0.037,2.611,0.551
	c-0.559,0.59-1.391,1.119-0.453,1.633c0.938,0.516,2.729,1.787,2.832,1.906c0.102,0.121,0.934,0.227,1.176-0.379
	s0.031-0.771-0.135-0.861c-0.168-0.09,0.014-0.363,0.406-0.316c0.395,0.045,1.332-0.318,1.559-0.484
	c0.229-0.166,2.889-0.605,3.539,0.316c-0.738,0.23-0.953-0.246-1.996,0.121c-0.572,0.223-1.961,0.398-2.616,1.877
	c-0.489,1.104-0.671,3.381-2.667,2.736c-1.997-0.645-4.049-1.254-3.731-3.268C23.864,32.691,23.728,31.389,22.608,31.314z"/>
</svg>
