<?xml version="1.0" encoding="utf-8"?>
<!-- Generator: Adobe Illustrator 16.0.0, SVG Export Plug-In . SVG Version: 6.00 Build 0)  -->
<!DOCTYPE svg PUBLIC "-//W3C//DTD SVG 1.1//EN" "http://www.w3.org/Graphics/SVG/1.1/DTD/svg11.dtd">
<svg version="1.1" xmlns="http://www.w3.org/2000/svg" xmlns:xlink="http://www.w3.org/1999/xlink" x="0px" y="0px" width="55px"
	 height="55px" viewBox="0 0 55 55" enable-background="new 0 0 55 55" xml:space="preserve">
<g id="Layer_2">
</g>
<g id="Layer_3">
	<path fill="#CCCCCC" stroke="#767676" stroke-miterlimit="10" d="M19.917,39.753c-3.333,0.007-11.468,0.002-15.676-0.005
		c-0.676-0.001-0.824-1.242-0.824-1.242s0-17.881,0-23.506c0-0.25,0.594-1.146,0.969-1.146c4.209,0,12.196-0.253,15.531-0.021
		c0.458,0.032,0.95,0.795,0.95,1.254c0,5.792-0.125,16.965-0.05,23.008C20.825,38.715,20.538,39.752,19.917,39.753z"/>
	<path fill="#CCCCCC" stroke="#767676" stroke-miterlimit="10" d="M50.936,43.485c-4.301,0.008-14.795,0.002-20.224-0.006
		c-0.872-0.002-1.063-1.479-1.063-1.479s0-21.273,0-27.965c0-0.297,0.766-1.364,1.25-1.364c5.43,0,15.734-0.301,20.037-0.025
		c0.59,0.038,1.227,0.946,1.227,1.492c0,6.891-0.162,20.185-0.064,27.374C52.107,42.251,51.736,43.483,50.936,43.485z"/>
	<ellipse fill="#FFFFFF" cx="41.708" cy="23.022" rx="8.95" ry="8.844"/>
	<path fill="#FFFFFF" stroke="#767676" stroke-miterlimit="10" d="M37.724,37.957c-0.667,0.026-1.353-0.559-1.778-1.072
		c-0.173-0.208-0.4-0.836-0.241-1.055c2.122-2.905,4.437-5.785,6.188-7.87c0.174-0.207,1.088,0.182,0.988,0.433
		c-0.837,2.111-0.716,1.58-3.813,8.5C39.067,36.893,38.22,37.938,37.724,37.957z"/>
	<path fill="#FFFFFF" d="M39.27,39.24v3.093c0,0-3.859,0.04-5.14,0c-0.86-0.029-2.912-2.303-2.942-3.213c-0.03-1.55,0-6.19,0-6.19
		h3.522c0,0-0.03,2.25,0.06,3c0.061,0.561,0.16,1.721,0.44,2.21c0.12,0.21,0.521,0.511,0.72,0.641c0.23,0.149,0.73,0.479,1,0.46
		C37.67,39.19,39.27,39.24,39.27,39.24z"/>
	<text transform="matrix(1 0 0 1 4.5 24.8301)" fill="#767676" font-family="'MyriadPro-Regular'" font-size="8.0148">SSD</text>
	<text transform="matrix(1 0 0 1 21.917 28.0098)" fill="#767676" font-family="'MyriadPro-Regular'" font-size="12">+</text>
	<text transform="matrix(1 0 0 1 33.167 24.8301)" fill="#767676" font-family="'MyriadPro-Regular'" font-size="7.6302">HDD</text>
	<rect x="4.5" y="37.958" fill="#FFFFFF" width="15" height="1.125"/>
</g>
</svg>
