<?xml version="1.0" encoding="utf-8"?>
<svg version="1.1" id="Layer_2" xmlns="http://www.w3.org/2000/svg" xmlns:xlink="http://www.w3.org/1999/xlink" x="0px" y="0px"
	 width="55px" height="55px" viewBox="0 0 55 55" enable-background="new 0 0 55 55" xml:space="preserve">
<polygon fill="#FFFFFF" stroke="#7D7D7D" stroke-width="1.5" stroke-miterlimit="10" points="7.063,3.35 47.813,3.35 47.938,51.65 
	7.188,51.65 "/>
<rect x="7.646" y="4.1" fill="#999999" width="39.458" height="8.417"/>
<g id="Rectangle_5_copy_3_5_" opacity="0.502">
	<g>
		<rect x="7.646" y="15.542" fill="#999999" width="39.458" height="2.017"/>
	</g>
</g>
<g id="Rectangle_5_copy_4_5_" opacity="0.502">
	<g>
		<rect x="7.646" y="21.592" fill="#999999" width="39.458" height="2.019"/>
	</g>
</g>
<g id="Rectangle_5_copy_5_5_" opacity="0.502">
	<g>
		<rect x="7.646" y="27.644" fill="#999999" width="39.458" height="2.016"/>
	</g>
</g>
<g id="Rectangle_5_copy_3_4_" opacity="0.502">
	<g>
		<rect x="22.822" y="12.517" fill="#999999" width="2.023" height="38.454"/>
	</g>
</g>
<g id="Rectangle_5_copy_4_4_" opacity="0.502">
	<g>
		<rect x="16.751" y="12.517" fill="#999999" width="2.023" height="38.454"/>
	</g>
</g>
<g id="Rectangle_5_copy_5_4_" opacity="0.502">
	<g>
		<rect x="10.682" y="12.517" fill="#999999" width="2.024" height="38.454"/>
	</g>
</g>
<g id="Rectangle_5_copy_3_3_" opacity="0.502">
	<g>
		<rect x="41.035" y="12.517" fill="#999999" width="2.021" height="38.454"/>
	</g>
</g>
<g id="Rectangle_5_copy_4_3_" opacity="0.502">
	<g>
		<rect x="34.963" y="12.517" fill="#999999" width="2.022" height="38.454"/>
	</g>
</g>
<g id="Rectangle_5_copy_5_3_" opacity="0.502">
	<g>
		<rect x="28.893" y="12.517" fill="#999999" width="2.023" height="38.454"/>
	</g>
</g>
<g id="Rectangle_5_copy_5_1_" opacity="0.502">
	<g>
		<rect x="7.646" y="33.645" fill="#999999" width="39.458" height="2.016"/>
	</g>
</g>
<g id="Rectangle_5_copy_5_2_" opacity="0.502">
	<g>
		<rect x="7.646" y="39.645" fill="#999999" width="39.458" height="2.016"/>
	</g>
</g>
<g id="Rectangle_5_copy_5_6_" opacity="0.502">
	<g>
		<rect x="7.646" y="45.645" fill="#999999" width="39.458" height="2.016"/>
	</g>
</g>
</svg>
