<?xml version="1.0" encoding="utf-8"?>
<svg version="1.1" id="Layer_1" xmlns="http://www.w3.org/2000/svg" xmlns:xlink="http://www.w3.org/1999/xlink" x="0px" y="0px"
	 width="55px" height="55px" viewBox="0 0 55 55" enable-background="new 0 0 55 55" xml:space="preserve">
<path fill="#CCCCCC" stroke="#767676" stroke-miterlimit="10" d="M4.5,41.551c0.02-7.658,0-20.079,0-26.726
	c0-2.031,1.564-2.565,2.855-2.565c7.367,0,28.118-0.205,39.239-0.013c3.439,0.059,3.906,0.259,3.771,3.967
	c-0.246,6.516,0.154,17.091,0.107,22.661c-0.021,1.975,0.577,3.596-2.906,3.723C38.732,42.92,16.36,42.52,7.56,42.828
	C4.496,42.936,4.5,41.551,4.5,41.551z"/>
<path fill="none" stroke="#767676" stroke-miterlimit="10" d="M42.82,16.383"/>
<path fill="none" stroke="#767676" stroke-miterlimit="10" d="M45.705,16.383"/>
<path fill="none" stroke="#767676" stroke-miterlimit="10" d="M45.705,17.88"/>
<path fill="none" stroke="#767676" stroke-miterlimit="10" d="M45.705,16.383"/>
<g>
	<path fill="#FFFFFF" stroke="#FFFFFF" stroke-miterlimit="10" d="M7.452,37.96c0.015-5.721,0-15.004,0-19.971
		c0-1.517,1.367-1.918,2.497-1.918c6.447,0,25.27-0.144,35.002,0c3.01,0.043,2.753,0.119,2.626,2.956
		c-0.214,4.87,0.137,12.77,0.094,16.936c-0.019,1.475,0.507,2.684-2.538,2.783c-7.73,0.244-27.306-0.061-35.003,0.168
		C7.443,39,7.452,37.96,7.452,37.96z"/>
	<line fill="none" stroke="#767676" stroke-width="1.5" stroke-miterlimit="10" x1="8.601" y1="37.697" x2="46.185" y2="17.227"/>
	<polyline fill="none" stroke="#767676" stroke-width="1.5" stroke-miterlimit="10" points="15.979,37.697 8.601,37.697 
		12.282,31.245 	"/>
	<polyline fill="none" stroke="#767676" stroke-width="1.5" stroke-miterlimit="10" points="38.803,17.088 46.185,17.088 
		42.5,23.541 	"/>
</g>
</svg>
