<?xml version="1.0" encoding="utf-8"?>
<svg version="1.1" id="Layer_1" xmlns="http://www.w3.org/2000/svg" xmlns:xlink="http://www.w3.org/1999/xlink" x="0px" y="0px"
	 width="55px" height="55px" viewBox="0 0 55 55" enable-background="new 0 0 55 55" xml:space="preserve">
<path fill="#919191" d="M20.749,7.013c-0.244-0.79,3.675-1.818,7.972-2.008c4.327-0.189,9.445,0.672,10.404,3.526
	c1.563,4.68-6.361,11.503-13.268,14.857c-1.696,0.819-2.72,1.045-3.15,0.988c-0.406-0.055-0.47-0.434-0.337-0.695
	c0.244-0.493,1.361-1.494,2.85-2.584c7.775-5.679,10.301-9.845,8.833-11.532C33.111,8.482,29.172,7.73,25.08,7.73
	C23.968,7.73,21.049,7.973,20.749,7.013"/>
<path fill="#919191" d="M29.469,28.395c-2.452-1.682-6.822-2.242-10.418-2.057c-3.205,0.17-8.711,1.189-8.507,2.201
	c0.197,1.096,3.683,0.756,5.281,0.756c3.513,0,9.088,0.213,9.966,2.479c1.895,4.879-10.948,13.636-13.687,12.791
	c-1.239-0.375,2.515-6.741,3.877-9.032c0.812-1.363,2.043-3.513,0.992-3.656c-1.175-0.164-2.473,1.856-3.314,3.022
	c-2.284,3.166-4.625,6.619-6.503,10.172c-0.579,1.099-2.505,4.396-1.844,4.828c0.618,0.396,3.555-0.17,7.292-1.649
	C24.345,43.6,29.634,37.537,31.05,32.533C31.547,30.771,30.689,29.232,29.469,28.395"/>
<path fill="#919191" d="M47.088,20.426c-3.822-0.629-10.656-0.87-12.994,2.711c-1.805,2.765,1.608,6.558,4.713,10.23
	c2.489,2.939,5.198,5.746,4.092,7.389c-0.901,1.342-6.69,1.342-8.688,1.445c-2.419,0.129-5.909,0.135-6.517,0.469
	c-0.546,0.293-0.851,1.203,1.197,1.57c1.647,0.299,5.569,0.896,9.705,0.896c4.315,0,8.853-0.709,9.836-4.053
	c0.791-2.685-1.947-5.563-4.363-8.479c-2.635-3.199-5.307-5.473-5.08-7.735c0.17-1.761,3.623-1.862,9.351-1.963
	c1.192-0.021,3.565-0.078,3.106-1.019C51.037,21.057,49.262,20.782,47.088,20.426"/>
</svg>
