<?xml version="1.0" encoding="utf-8"?>
<svg version="1.1" id="Layer_1" xmlns="http://www.w3.org/2000/svg" xmlns:xlink="http://www.w3.org/1999/xlink" x="0px" y="0px"
	 width="55px" height="55px" viewBox="0 0 55 55" enable-background="new 0 0 55 55" xml:space="preserve">
<rect x="22.126" y="41.193" fill="#CCCCCC" stroke="#CCCCCC" stroke-miterlimit="10" width="10.75" height="5.5"/>
<g id="Layer_3">
	<rect x="5.276" y="12.847" fill="none" width="44.451" height="26.115"/>
	
		<rect x="4.407" y="11.806" fill="#FFFFFF" stroke="#767676" stroke-width="2" stroke-miterlimit="10" width="46.188" height="27.783"/>
</g>
<path fill="#888888" d="M26.247,29.033c0-7.674,3.669-10.072,6.193-12.62c2.959,2.754,6.248,6.576,6.248,12.577L26.247,29.033z"/>
<path fill="#888888" d="M16.323,29.033c0-7.674,3.671-10.072,6.195-12.62c2.959,2.754,6.25,6.576,6.25,12.577L16.323,29.033z"/>
<path fill="#AAAAAA" d="M28.016,36.447c0.754,0,7.316-15.874,7.512-19.75C49.031,28.313,32.418,36.447,28.016,36.447z"/>
<path fill="#AAAAAA" d="M26.987,36.447c-0.754,0-7.314-15.874-7.512-19.75C5.971,28.313,22.585,36.447,26.987,36.447z"/>
<path fill="#CCCCCC" d="M27.409,36.68c-6.324-4.672-6.168-8.295-6.168-9.345c0-7.674,3.671-10.07,6.194-12.619
	c2.959,2.755,6.25,6.62,6.25,12.619C33.453,29.129,33.943,32.227,27.409,36.68z"/>
</svg>
