<?xml version="1.0" encoding="utf-8"?>
<!-- Generator: Adobe Illustrator 16.0.0, SVG Export Plug-In . SVG Version: 6.00 Build 0)  -->
<!DOCTYPE svg PUBLIC "-//W3C//DTD SVG 1.1//EN" "http://www.w3.org/Graphics/SVG/1.1/DTD/svg11.dtd">
<svg version="1.1" id="Layer_1" xmlns="http://www.w3.org/2000/svg" xmlns:xlink="http://www.w3.org/1999/xlink" x="0px" y="0px"
	 width="55px" height="55px" viewBox="0 0 55 55" enable-background="new 0 0 55 55" xml:space="preserve">
<rect x="2.843" y="12.211" fill="#CCCCCC" stroke="#767676" stroke-miterlimit="10" width="45.782" height="25.813"/>
<g id="Layer_1_1_" display="none">
	
		<image display="inline" overflow="visible" enable-background="new    " width="362" height="315" xlink:href="../../Downloads/icon-2in1.png"  transform="matrix(0.1423 0 0 0.1423 -57.3701 -0.8945)">
	</image>
</g>
<g id="Layer_2">
	<path fill="#CCCCCC" stroke="#767676" stroke-miterlimit="10" d="M5.422,39.143c-0.918-7.371-2.484-19.727-2.875-26.324
		c-0.118-1.997,1.6-2.527,2.919-2.527c10.686,0,30.75-0.223,38.972-0.086c3.517,0.058,4.271,0.274,5.008,3.983
		c0.992,6.336,2.593,16.651,2.984,22.323c-0.021,1.947,0.594,3.541-2.968,3.668c-9.032,0.322-31.914-0.076-40.911,0.228
		C5.416,40.512,5.422,39.143,5.422,39.143z"/>
</g>
<path fill="#FFFFFF" stroke="#FFFFFF" stroke-miterlimit="10" d="M8.828,36.518C7.872,30.5,6.513,20.562,5.953,15.148
	c-0.167-1.615,1.368-2.052,2.497-2.052c6.445,0,25.263-0.154,34.991,0c3.01,0.047,1.738,0.131,2.627,3.164
	c1.058,5.367,2.498,13.543,2.969,18.122c-0.018,1.58,0.507,2.875-2.539,2.978c-7.725,0.264-27.298-0.062-34.992,0.184
	C8.822,37.631,8.828,36.518,8.828,36.518z"/>
<path fill="none" stroke="#CCCCCC" stroke-width="3" stroke-miterlimit="10" d="M23.583,29.833c-1.997-1.665-9.164-1.254-7.5-3.25
	c4.03-4.833,16.577-3.89,7.583-6.417c-1.652-0.466,7.981,6.056,6.917,7.333c-0.854,1.021,3.544,2.993,1.878,2.856
	c6.005,0.485-9.473,6.963-4.462,0.977"/>
<path fill="#767676" d="M41.011,6.285c0,0-12.905,21.668-12.93,21.727c-0.197,0.445-0.666,1.611-0.431,1.998l0.033,1.092
	c0.024,0.047-0.156,0.59-0.156,0.59c-0.056,0.094-0.021,0.207,0.078,0.254c0.098,0.043,0.224,0.004,0.276-0.086
	c0,0,0.407-0.436,0.467-0.449l1.215-0.768c0.496-0.047,1.145-0.863,1.458-1.26C31.06,29.334,43.968,7.667,43.968,7.667"/>
</svg>
