<?xml version="1.0" encoding="utf-8"?>
<!-- Generator: Adobe Illustrator 16.0.0, SVG Export Plug-In . SVG Version: 6.00 Build 0)  -->
<!DOCTYPE svg PUBLIC "-//W3C//DTD SVG 1.1//EN" "http://www.w3.org/Graphics/SVG/1.1/DTD/svg11.dtd">
<svg version="1.1" xmlns="http://www.w3.org/2000/svg" xmlns:xlink="http://www.w3.org/1999/xlink" x="0px" y="0px" width="55px"
	 height="55px" viewBox="0 0 55 55" enable-background="new 0 0 55 55" xml:space="preserve">
<g id="Layer_1" display="none">
	
		<image display="inline" overflow="visible" enable-background="new    " width="50" height="45" id="Vector_Smart_Object_xA0_Image_8_" xlink:href="92E76CDD.png"  transform="matrix(1 0 0 1 2 5)">
	</image>
</g>
<g id="Layer_2">
	<path fill="none" stroke="#7D7D7D" stroke-width="1.5" stroke-miterlimit="10" d="M16.314,39.305"/>
	<path fill="#FFFFFF" stroke="#7D7D7D" stroke-width="1.5" stroke-miterlimit="10" d="M24.203,39.305
		c-1.984,0-4.199-0.124-5.233,0.511c-0.892,0.548-1.241,2.697-1.241,3.408c0,0.866,0.645,2.918,1.917,3.521
		c1.5,0.71,4.262,0.667,6.708,0.667c1.83,0,4.762,0.027,6.125-0.396c2.005-0.622,2.302-3.169,2.302-4.292
		c0-0.856-0.065-2.818-1.313-3.418c-1.117-0.537-3.781-0.266-5.5-0.43l-0.188-0.313v-2.906l13.386,0.061l1.114,2.096
		c0,0-1.926,1.944-1.926,3.822c0,2.488,1.959,4.506,4.375,4.506s4.375-2.018,4.375-4.506c0-1.667-1.455-3.512-2.762-4.291
		l-1.219-2.46l-1.844-2.353l-15.489-0.066l0.021-1.746l7.778-0.01l3.625-3.624l-0.063-10.771c1.586-0.677,3.188-2.066,3.188-3.944
		c0-2.488-1.959-4.506-4.375-4.506s-4.375,2.018-4.375,4.506c0,1.667,1.318,3.165,2.625,3.944l0.063,8.563l-1.5,1.666l-7.612-0.021
		l-0.018-1.612c1.586-0.677,3.188-2.066,3.188-3.944c0-2.488-1.959-4.506-4.375-4.506s-4.375,2.018-4.375,4.506
		c0,1.667,1.318,3.165,2.625,3.944l-0.044,1.348l-6.792,0.035l-1.5-1.667l0.063-8.563c1.307-0.78,2.625-2.277,2.625-3.944
		c0-2.488-1.959-4.506-4.375-4.506c-2.416,0-4.375,2.018-4.375,4.506c0,1.878,1.602,3.268,3.188,3.944l-0.063,10.771l3.625,3.625
		l7.75,0.011l0.003,4.813l-10.925,0.015c-0.677-1.586-2.066-3.188-3.944-3.188c-2.488,0-4.506,1.959-4.506,4.375
		s2.018,4.375,4.506,4.375c1.667,0,3.165-1.318,3.944-2.625l10.813-0.156V39.305z"/>
</g>
</svg>
