<?xml version="1.0" encoding="utf-8"?>
<!-- Generator: Adobe Illustrator 16.0.0, SVG Export Plug-In . SVG Version: 6.00 Build 0)  -->
<!DOCTYPE svg PUBLIC "-//W3C//DTD SVG 1.1//EN" "http://www.w3.org/Graphics/SVG/1.1/DTD/svg11.dtd">
<svg version="1.1" id="Layer_2" xmlns="http://www.w3.org/2000/svg" xmlns:xlink="http://www.w3.org/1999/xlink" x="0px" y="0px"
	 width="55px" height="55px" viewBox="0 0 55 55" enable-background="new 0 0 55 55" xml:space="preserve">
<polygon fill="#929191" stroke="#7D7D7D" stroke-width="2" stroke-miterlimit="10" points="36.915,37.09 35.339,39.078 
	5.165,39.006 3.499,36.924 3.499,18.424 5.249,16.174 35.249,16.174 36.915,18.424 "/>
<rect x="6.582" y="19.083" fill="#FFFFFF" width="7.167" height="4.001"/>
<rect x="6.582" y="25.625" fill="#FFFFFF" width="7.166" height="4.001"/>
<rect x="6.582" y="32.166" fill="#FFFFFF" width="7.166" height="4.001"/>
<rect x="15.082" y="21.085" fill="#FFFFFF" width="18.5" height="13.08"/>
<ellipse fill="none" stroke="#7D7D7D" stroke-width="1.5" stroke-miterlimit="10" cx="38.433" cy="12.514" rx="5.25" ry="5.208"/>
<ellipse fill="none" stroke="#7D7D7D" stroke-width="1.5" stroke-miterlimit="10" cx="26.66" cy="17.019" rx="5.25" ry="5.208"/>
<ellipse fill="none" stroke="#7D7D7D" stroke-width="1.5" stroke-miterlimit="10" cx="26.659" cy="17.018" rx="2.333" ry="2.446"/>
<ellipse fill="none" stroke="#7D7D7D" stroke-width="1.5" stroke-miterlimit="10" cx="38.433" cy="12.514" rx="2.333" ry="2.446"/>
<ellipse fill="none" stroke="#CCCCCC" stroke-width="2" stroke-miterlimit="10" cx="26.57" cy="17.1" rx="3.593" ry="3.792"/>
<ellipse fill="none" stroke="#CCCCCC" stroke-width="2" stroke-miterlimit="10" cx="38.433" cy="12.514" rx="3.593" ry="3.791"/>
<polyline fill="none" stroke="#7D7D7D" stroke-width="1.5" stroke-miterlimit="10" points="28.5,21.894 34.84,27.674 34.84,47.25 
	38.25,50.088 40.292,48.129 40.25,34 49.334,44.25 51.334,45.25 51.917,45.25 52.75,43.25 53.084,42.833 52.125,38.71 
	40.775,27.172 40.766,17.178 "/>
<polyline fill="none" stroke="#7D7D7D" stroke-width="1.5" stroke-miterlimit="10" points="37.129,17.722 37.129,25.667 
	35.584,25.208 30.643,20.409 "/>
<line fill="none" stroke="#CCCCCC" stroke-width="2.3" stroke-miterlimit="10" x1="38.938" y1="17.018" x2="38.938" y2="29.75"/>
<line fill="none" stroke="#CCCCCC" stroke-width="1.3" stroke-miterlimit="10" x1="28.5" y1="20.125" x2="39.313" y2="29.838"/>
<line fill="none" stroke="#CCCCCC" stroke-width="1.3" stroke-miterlimit="10" x1="38.433" y1="26.875" x2="36.5" y2="28"/>
<polygon fill="#CCCCCC" stroke="#CCCCCC" stroke-width="1.3" stroke-miterlimit="10" points="36.1,27.5 36.208,26.644 
	39.917,28.105 40.828,29.016 51.097,39.405 51.781,42.156 51.188,43.719 50,43 49.719,42.656 39.094,30.844 38.938,47.75 
	38.25,48.296 36.1,46.756 "/>
</svg>
