<?xml version="1.0" encoding="utf-8"?>
<svg version="1.1" xmlns="http://www.w3.org/2000/svg" xmlns:xlink="http://www.w3.org/1999/xlink" x="0px" y="0px" width="55px"
	 height="55px" viewBox="0 0 55 55" enable-background="new 0 0 55 55" xml:space="preserve">
<g id="Layer_1">
	<path fill="#CCCCCC" stroke="#767676" stroke-miterlimit="10" d="M1.813,40.073c0.021-8.313,0-21.798,0-29.015
		c0-2.205,1.763-2.785,3.217-2.785c8.303,0,31.688-0.223,44.219-0.014c3.88,0.063,4.403,0.282,4.252,4.307
		c-0.274,7.075,0.174,18.557,0.12,24.604c-0.023,2.146,0.652,3.903-3.271,4.041c-9.957,0.354-35.169-0.084-45.089,0.252
		C1.808,41.58,1.813,40.073,1.813,40.073z"/>
	<path fill="none" stroke="#767676" stroke-miterlimit="10" d="M45,12.75"/>
	<path fill="none" stroke="#767676" stroke-miterlimit="10" d="M48.25,12.75"/>
	<path fill="none" stroke="#767676" stroke-miterlimit="10" d="M48.25,14.375"/>
	<path fill="none" stroke="#767676" stroke-miterlimit="10" d="M48.25,12.75"/>
	<g>
		<path fill="#FFFFFF" stroke="#FFFFFF" stroke-miterlimit="10" d="M5.139,36.34c0.018-6.252,0-16.396,0-21.824
			c0-1.658,1.542-2.096,2.815-2.096c7.265,0,28.478-0.157,39.448,0c3.392,0.047,3.103,0.131,2.959,3.23
			c-0.241,5.321,0.152,13.956,0.104,18.508c-0.018,1.611,0.572,2.933-2.859,3.039c-8.711,0.268-30.772-0.063-39.447,0.186
			C5.131,37.477,5.139,36.34,5.139,36.34z"/>
		<path fill="none" stroke="#767676" stroke-width="1.5" stroke-miterlimit="10" d="M48.79,13.683"/>
		<path fill="none" stroke="#767676" stroke-width="1.5" stroke-miterlimit="10" d="M6.434,36.052"/>
		<path fill="none" stroke="#767676" stroke-width="1.5" stroke-miterlimit="10" d="M10.583,29"/>
		<path fill="none" stroke="#767676" stroke-width="1.5" stroke-miterlimit="10" d="M6.434,36.052"/>
		<path fill="none" stroke="#767676" stroke-width="1.5" stroke-miterlimit="10" d="M14.75,36.052"/>
		<path fill="none" stroke="#767676" stroke-width="1.5" stroke-miterlimit="10" d="M44.641,20.583"/>
		<path fill="none" stroke="#767676" stroke-width="1.5" stroke-miterlimit="10" d="M48.79,13.531"/>
		<path fill="none" stroke="#767676" stroke-width="1.5" stroke-miterlimit="10" d="M40.475,13.531"/>
	</g>
</g>
<g id="Layer_2">
	
		<rect x="10.445" y="14.304" fill="#FFFFFF" stroke="#7D7D7D" stroke-width="1.5" stroke-miterlimit="10" width="17.055" height="12.558"/>
	<rect x="10.689" y="14.618" fill="#999999" width="16.515" height="2.209"/>
	
		<rect x="20.945" y="23.795" fill="#FFFFFF" stroke="#7D7D7D" stroke-width="1.5" stroke-miterlimit="10" width="17.055" height="12.556"/>
	<rect x="21.189" y="24.109" fill="#999999" width="16.514" height="2.208"/>
	
		<rect x="6.512" y="21.839" fill="#FFFFFF" stroke="#7D7D7D" stroke-width="1.5" stroke-miterlimit="10" width="17.055" height="12.558"/>
	<rect x="6.756" y="22.153" fill="#999999" width="16.514" height="2.209"/>
	
		<rect x="29.473" y="13.128" fill="#FFFFFF" stroke="#7D7D7D" stroke-width="1.5" stroke-miterlimit="10" width="17.056" height="12.556"/>
	<rect x="29.717" y="13.442" fill="#999999" width="16.515" height="2.208"/>
	
		<rect x="31.194" y="21.839" fill="#FFFFFF" stroke="#7D7D7D" stroke-width="1.5" stroke-miterlimit="10" width="17.056" height="12.555"/>
	<rect x="31.438" y="22.153" fill="#999999" width="16.515" height="2.208"/>
</g>
</svg>
