<?xml version="1.0" encoding="utf-8"?>
<svg version="1.1" id="Layer_1" xmlns="http://www.w3.org/2000/svg" xmlns:xlink="http://www.w3.org/1999/xlink" x="0px" y="0px"
	 width="55px" height="55px" viewBox="0 0 55 55" enable-background="new 0 0 55 55" xml:space="preserve">
<path fill="#CCCCCC" stroke="#767676" stroke-miterlimit="10" d="M5.5,39.412c0.019-6.492,0-17.023,0-22.658
	c0-1.722,1.497-2.175,2.731-2.175c7.047,0,26.896-0.174,37.533-0.011c3.291,0.05,3.735,0.22,3.606,3.363
	c-0.233,5.524,0.147,14.49,0.104,19.213c-0.021,1.674,0.553,3.049-2.779,3.155c-8.451,0.273-29.852-0.065-38.269,0.195
	C5.496,40.586,5.5,39.412,5.5,39.412z"/>
<path fill="none" stroke="#767676" stroke-miterlimit="10" d="M42.154,18.075"/>
<path fill="none" stroke="#767676" stroke-miterlimit="10" d="M44.914,18.075"/>
<path fill="none" stroke="#767676" stroke-miterlimit="10" d="M44.914,19.344"/>
<path fill="none" stroke="#767676" stroke-miterlimit="10" d="M44.914,18.075"/>
<g>
	<path fill="#FFFFFF" stroke="#FFFFFF" stroke-miterlimit="10" d="M8.573,36.501c0.015-4.885,0-12.811,0-17.052
		c0-1.296,1.288-1.638,2.351-1.638c6.067,0,23.784-0.122,32.946,0c2.833,0.037,2.592,0.102,2.472,2.524
		c-0.201,4.158,0.127,10.903,0.088,14.462c-0.018,1.259,0.476,2.291-2.39,2.374c-7.275,0.21-25.702-0.05-32.947,0.146
		C8.565,37.392,8.573,36.501,8.573,36.501z"/>
	<line fill="none" stroke="#767676" stroke-width="1.5" stroke-miterlimit="10" x1="9.654" y1="36.276" x2="45.031" y2="18.798"/>
	<polyline fill="none" stroke="#767676" stroke-width="1.5" stroke-miterlimit="10" points="16.6,36.276 9.654,36.276 13.12,30.766 
			"/>
	<polyline fill="none" stroke="#767676" stroke-width="1.5" stroke-miterlimit="10" points="38.084,18.68 45.031,18.68 
		41.564,24.189 	"/>
</g>
</svg>
